<?xml version="1.0" standalone="no"?>
<!DOCTYPE svg PUBLIC "-//W3C//DTD SVG 1.1//EN" "http://www.w3.org/Graphics/SVG/1.1/DTD/svg11.dtd" >
<svg xmlns="http://www.w3.org/2000/svg">
<metadata></metadata>
<defs>
<font id="from_where_you_areregular" horiz-adv-x="1424" >
<font-face units-per-em="2048" ascent="1638" descent="-410" />
<missing-glyph horiz-adv-x="1078" />
<glyph horiz-adv-x="2048" />
<glyph horiz-adv-x="2048" />
<glyph unicode="&#xd;" horiz-adv-x="2000" />
<glyph unicode=" "  horiz-adv-x="1078" />
<glyph unicode="&#x09;" horiz-adv-x="1078" />
<glyph unicode="&#xa0;" horiz-adv-x="1078" />
<glyph unicode="!" horiz-adv-x="674" d="M206 132q0 48 26 94t67 83t92 59t99 22q24 0 50 -10t48 -28t36 -42t14 -50v-4q-22 -108 -97 -181t-195 -73q-52 0 -96 34t-44 96zM170 632q-4 18 -10 55t-13 84t-15 99t-16 99t-14 84t-8 55q0 6 -1 20t-3 31t-3 33t-1 24q0 58 -11 123t-13 123q0 12 3 36t4 49t1 47t-6 30 l12 112q-2 4 -11 16t-11 14v6l2 4q0 2 3 5t3 5q28 16 71 41t90 49t93 39t80 13h4q6 0 17 -4t24 -8t25 -7t18 -5q0 -4 2 -6q4 -4 6 -4q50 -36 74 -93t22 -121q0 -16 -5 -37t9 -31q-16 -110 -27 -213t-7 -211q4 -102 8 -206t-6 -204q-4 -28 -20 -49t-36 -40t-39 -41t-27 -50 h-2h-6l-4 8q-2 2 -2 6h-2q-2 0 -4 2q-8 0 -10 -7t-4 -15t-7 -14t-17 -2q-2 2 -8 12t-10 10q-8 2 -30 -7t-26 -17q-4 2 -10 9t-8 11l-4 2q-12 0 -20 -16t-28 -14q-34 4 -45 17t-21 49z" />
<glyph unicode="&#x22;" horiz-adv-x="1104" d="M754 1282q-8 0 -20 -8t-25 -19t-28 -19t-31 -8q-4 0 -12 3t-10 3q-10 10 -12 17t-2 17q0 18 7 36t7 34v8q-4 4 -6 8q-10 10 -8 10v84q0 82 13 139t45 93t85 52t131 16q24 0 56 -4t59 -15t46 -33t19 -58q0 -28 -29 -87t-67 -119t-75 -105t-53 -45h-2l-10 6q-6 -4 -20 -10 t-18 -10l-6 -6h-8h-6q-4 4 -8 10q-10 10 -12 10zM580 1656q0 -36 -16 -66t-38 -56t-46 -52t-40 -54q-4 -2 -13 -15t-18 -29t-18 -30t-11 -18q-6 -14 -19 -21t-29 -7q-12 0 -20 4l-16 8t-17 6t-27 0q-4 0 -16 -9t-16 -9h-22q-50 0 -72 24t-28 60t-5 79t-1 81v6q0 54 23 97 t60 72t85 45t100 16q32 0 71 -6t72 -21t55 -40t22 -65z" />
<glyph unicode="#" horiz-adv-x="2092" d="M890 436q-2 -16 -4 -38t-24 -22h-10q4 16 -7 34t-27 26l-12 -20q-16 0 -27 10t-20 24t-18 27t-19 21h-17t-24 1t-25 1h-16q-84 0 -165 -15t-167 -15h-86q-24 6 -33 15t-12 20t-4 24t-5 27q-6 10 -28 17t-30 17q-10 18 -13 26t-5 13l-4 10t-12 19q20 14 29 28t19 27t27 22 t51 15l348 68q20 2 30 8t10 26q0 16 -6 38t-22 32q-8 -2 -31 -8t-48 -12t-49 -12l-32 -8q-4 -2 -26 -4t-30 -2h-10q-46 0 -88 18t-74 48t-52 70t-20 86q0 34 28 60q34 22 77 28t83 16q50 16 102 37t104 31q-4 12 -4 33v44t-3 43t-11 28v160q0 36 20 64t50 47t64 30t64 11 q38 0 82 -6t86 -21t77 -38t57 -59h8q0 -12 10 -40t10 -38v-8q-6 0 -10 -8q-2 -4 -4 -6q4 -6 15 -18t15 -16l-16 -6q0 -4 3 -10t3 -10v-8q16 0 32 6t26 22q-4 28 -7 48t-4 38t-1 36v42v50q16 16 13 34t-1 34q2 20 18 34t38 24t45 15t39 5q52 0 92 -14t86 -40q26 -10 56 -35 t36 -57q2 -16 5 -47t6 -63t10 -57t19 -27q8 -4 35 -7t57 -7t53 -11t23 -19v-4q0 -2 -4 -5t-4 -7q28 -4 53 -9t49 -19v-2v-6q-4 -2 -6 -4t-2 -4t-2 -2v-4v-4q4 -4 15 -7t13 -3l-8 -14h28l-74 -2l-10 6l-20 -20q22 -10 55 -10t49 -16q-10 -6 -26 -12l-32 -12h30q-6 -4 -42 -16 t-80 -24t-80 -22t-42 -10v-14q0 -36 4 -71t4 -69q64 0 128 10t128 10q8 0 28 -4q8 -2 16 -2l12 -8h84v-12q-8 0 -27 -4t-40 -9t-39 -9t-26 -6q-2 0 -9 -3t-11 -3q6 -4 28 -11t28 -7h12q10 0 14 1t14 7v-20q6 -2 14 -4q16 -4 22 -4h48q-22 -14 -46 -22t-46 -18v-2q40 0 79 7 t81 7q16 0 26 -1t28 -11q-34 -10 -71 -9t-71 -19h28q14 -2 37 -9t23 -11v-10h-40l8 -18q-6 -2 -27 -8t-29 -8q-4 0 -22 -4t-41 -9t-43 -10t-26 -5q-50 -14 -99 -23t-97 -25q-22 -8 -33 -13t-16 -13t-6 -21t-1 -37q0 -46 15 -93t15 -93q0 -6 -3 -14t-13 -8h-4v2l-18 36h-6 q-10 0 -17 -14t-23 -14h-2q-2 0 -10 10t-17 22t-17 23t-10 13q-2 0 -10 -4q-4 -2 -6 -2v-34l-70 66h-12q0 -4 -1 -12t-11 -8q-14 0 -22 15t-16 34t-17 34t-23 15q-4 0 -5 -1t-3 -1h-4q-44 -14 -82 -25t-78 -23q-22 -6 -38 -9t-27 -11t-16 -24t-5 -44t6 -54t6 -52 q0 -16 -1 -28t-19 -12h-6q-6 0 -12 6q-4 2 -8 6q-4 -4 -20 -12t-20 -8q-14 -4 -21 5t-13 21t-10 24t-12 18zM1020 1016q0 -28 2 -47t10 -47q8 2 28 3t41 5t36 12t15 24q0 10 -1 29t-4 39t-12 34t-23 14q-32 0 -62 -16t-30 -50zM1868 922q0 2 -4 2h-10h-11t-3 -2q4 -4 14 -4 t14 4zM1772 1362q8 0 8 -8t-8 -8t-8 8t8 8z" />
<glyph unicode="$" horiz-adv-x="1380" d="M408 -170q-2 -6 -10 -22q-4 -8 -6 -14l-2 -2q-4 -4 -4 -2q-6 0 -10 12t-6 29t-2 34t2 27h-2q-2 2 -4 2q0 -2 -5 -10t-5 -12q-10 24 -16 42t-9 38t-2 45t7 65q-30 12 -64 26t-61 26l-45 20t-18 10v8q0 4 3 16t3 14q-4 0 -23 6t-19 20l6 4l8 6h-24q0 2 -4 10q-2 2 -2 6 q-2 0 -9 3t-11 3v16q4 2 15 13l15 15q-4 0 -15 4t-15 4v14l58 32h-48q6 18 22 23t33 7t32 4t19 12q8 2 33 6t54 9t55 9t36 4q14 0 30 6q18 92 42 213t56 273q-30 28 -55 48t-41 20l-2 -4l-8 -8l4 -4q0 -2 1 -2t1 -2t2 -2v-12q-4 2 -20 13t-33 25t-30 26t-11 18 q-34 34 -52 64t-48 70q-28 36 -63 73t-66 77t-52 84t-21 96q0 38 16 76t42 71t60 59t70 42q12 4 23 5t21 2t19 7t15 22l8 -8l20 20t22 18q0 4 4 4t4 -4q88 44 177 70t181 48q4 16 6 30t6 28q14 68 31 110t38 62t47 23t58 -3q16 -4 34 -22t34 -44t28 -56t16 -56h4q2 -2 5 -9 t3 -17h10q34 0 62 -4t55 -10t55 -13t62 -15q-4 -8 13 -20t38 -26t40 -30t19 -32v-2q0 -4 -3 -6t-3 -6q12 -6 12 -24t16 -28l-22 -8q6 -18 2 -39t-15 -40t-28 -31t-39 -12h-202l8 -8q-2 -4 -13 -8t-17 -4q-4 0 -16 1t-29 1h-33h-28q-6 -24 -11 -47t-7 -31q-28 -126 -49 -250 t-49 -248q16 -12 27 -24t15 -16q4 -2 12 -8t18 -6l52 -48l-14 -8q6 -4 17 -9t23 -12t21 -16t7 -21l2 4q0 2 2 2h10q2 -2 6 -4q6 -6 6 -8q-4 0 -8 -2t-4 -6q0 -6 24 -37t52 -66t53 -63t29 -28q0 -24 14 -63t20 -67q2 0 5 -4t7 -4v-42q0 -82 -37 -143t-93 -105t-122 -72 t-122 -46t-93 -26t-37 -12l-108 -12q-6 -18 -9 -34t-5 -26q-2 -4 -2 -10q0 -4 -2 -6q-20 -30 -37 -73t-35 -65q-10 -12 -24 -20t-24 -26q-8 -16 -16 -24l-4 -8q-10 22 -13 43t-23 25zM482 1408q0 -30 25 -68t59 -76q10 46 19 94t19 100l-34 -14q-28 -10 -44 -23t-44 -13z M794 584q0 26 -12 50t-32 46q-6 -36 -19 -91t-25 -105q30 12 53 27t35 35v38zM340 1004h26q-4 2 -9 9t-11 7l-4 4l-2 -4v-16zM116 314q-10 0 -10 -11t10 -11q6 0 6 11t-6 11zM326 1042q-6 0 -6 -11t6 -11q10 0 10 11t-10 11zM304 1064q-4 0 -4 -11t4 -11q10 0 10 11t-10 11z M902 938q-6 0 -6 -9t6 -9q10 0 10 9t-10 9zM788 2160q-4 2 -7 -10t1 -14q4 0 7 11t-1 13zM376 982h14l-14 8v-8z" />
<glyph unicode="%" horiz-adv-x="2744" d="M1294 -166q-4 0 -6 -2t-6 2q-4 0 -10 5t-6 9q-22 -22 -39 -24t-43 -2q-36 0 -61 7t-45 20t-40 30t-46 37q-34 22 -46 36t-12 56q0 74 28 141t50 133q4 14 16 53t25 83t25 83t16 55q-4 18 2 42t14 48t17 47t15 39l206 810v6q4 4 10 20t8 18v8q4 20 16 66t26 97t27 96 t19 63q0 6 4 24t4 22q4 52 45 88t99 36q0 -12 -12 -18l8 -4q10 0 16 6t16 6h8q10 0 41 -4t41 -4q10 -20 16 -18t11 4t8 -6t9 -46v-8q6 0 10 -4q2 -2 4 -2q0 4 3 11t3 9q30 -20 59 -42t29 -62v-22q-22 -82 -39 -147t-29 -141q-4 -16 -13 -37t-13 -43q-34 -120 -66 -240 t-60 -242v-8q0 -22 10 -37t10 -35h12q0 -12 -5 -18t-11 -10t-11 -8t-5 -12q0 -6 6 -8q2 -2 6 -4v-10q0 -8 -1 -17t-11 -9l-14 8q-26 -8 -35 -36t-13 -50q-4 -10 -15 -54t-24 -95t-25 -95t-14 -56l-4 -12q-2 -4 -2 -10q0 -2 -2 -4q-2 -6 -7 -28t-12 -47t-13 -47t-8 -28 q0 -4 -4 -16t-8 -27t-8 -28t-6 -15q-4 -12 -12 -43t-17 -64t-17 -62t-10 -39q-4 -10 -12 -42t-21 -67t-28 -63t-31 -28v26zM1294 -138q-10 0 -10 -10t10 -10q6 0 6 10t-6 10zM1102 1258q-16 -4 -24 -16t-15 -27l-14 -30t-21 -23q-4 -6 -17 -16t-28 -22t-28 -22t-19 -14 q-52 -10 -95 -35t-95 -33l-18 6q-6 0 -18 2t-25 4t-25 4t-16 2q-6 2 -22 6t-34 8t-35 9t-23 7q-50 18 -102 40t-101 50t-93 62t-78 76q10 10 -2 18t-22 12q-36 64 -46 137t16 149q10 32 31 61t46 56t49 55t40 60q8 10 21 20t17 26l18 -6q6 18 24 43t42 46t49 34t45 7l4 14 l8 5t19 11t23 11t22 7q18 6 53 11t74 8t74 4t53 -5l6 -4q2 -4 17 -13t19 -11q2 0 4 2l4 8l4 -2q2 -2 8 -6t12 -10q8 -8 14 -16h4q6 -2 8 -4l-6 24q10 -6 24 -17t29 -22t29 -20t26 -11q28 -22 59 -56t51 -70q-4 -4 -2 -10t7 -13t10 -13t5 -8q12 -30 26 -66t23 -75t11 -77 t-8 -70q0 -2 -3 -4t-7 0q-4 -32 -9 -50t-13 -40q-14 -46 -33 -84t-31 -84zM1176 1540q-4 -8 5 -11t13 5q4 6 -6 9t-12 -3zM684 1446q16 -6 40 -14t48 -10t43 5t27 29q10 30 -3 70t-38 79t-58 69t-63 40q-12 4 -26 9t-29 8t-28 2t-21 -13l-8 10q-22 -10 -39 -32t-25 -42 q-6 2 -21 1t-23 -9l-4 14l-10 -26q0 -4 13 -32t21 -42q14 -22 39 -40t53 -32t58 -25t54 -19zM2020 -30q-10 12 -24 17t-30 6t-32 4t-28 13q-6 2 -20 11t-30 19t-30 20t-20 14q-26 46 -62 79t-62 79v20q0 6 -3 18t-5 25t-5 25t-3 16q0 6 -1 22t-2 35t-2 36t-1 25q0 52 5 108 t16 112t30 108t47 98q10 -6 15 8t5 24q48 54 114 87t148 33q34 0 68 -11t67 -26t67 -29t70 -20q12 -4 26 -12t30 -8v-20q18 0 48 -10t58 -25t48 -35t20 -40h14q2 0 24 -20t32 -36t27 -48t32 -68t26 -69t11 -51v-8q-4 -4 -8 -20t-4 -20l4 -4q2 -2 8 -2v-4q0 -4 -3 -10l-7 -14 q-6 -8 -10 -18v-4v-8l20 12q-4 -12 -9 -29t-11 -34t-10 -33t-2 -28q-12 -34 -34 -74t-50 -70q-10 6 -21 -12t-15 -22q-24 -22 -54 -46t-64 -45t-69 -35t-69 -14q-8 0 -8 8q-32 -6 -51 -7t-41 -1q-46 0 -90 6t-90 2zM2312 -10q-10 0 -10 -10t10 -10q6 0 6 10t-6 10zM2066 426 v-43t6 -48t18 -39t36 -16q30 0 65 25t63 61t47 77t19 73q0 12 1 27t-1 30t-8 27t-20 16l8 10q-16 18 -43 27t-49 11q0 6 -5 20t-15 20l12 8h-28q-2 0 -9 -7t-17 -16t-19 -18l-15 -15q-16 -22 -25 -50t-14 -60t-6 -63t-1 -57z" />
<glyph unicode="&#x26;" horiz-adv-x="1706" d="M432 -318q-6 2 -17 -4t-25 -13t-29 -12t-27 -3q-4 0 -5 2t-5 4t-6 6q-6 10 -6 18t2 14q4 18 14 33t14 31q0 2 1 3t1 3v2q-2 4 -4 10l-4 12l20 76q16 64 28 127t28 117q-90 14 -161 51t-111 103q-4 6 -12 39t-16 73t-13 74t-3 44q10 34 4 62t-2 62q0 2 5 15t11 27t11 27 t5 15q4 18 33 48t61 59t57 52t21 29l-6 6l-2 2q-60 40 -120 78t-98 100q-36 58 -13 143t77 172t127 162t137 115q40 24 95 50t115 48q2 2 2 4q2 16 11 54t22 87t29 100t32 93t30 68t24 22l2 -2l8 -6q6 2 19 3t17 5l8 4q0 -2 2 -2h4h4q2 -6 6 -12q8 -12 12 -12q8 -2 19 3 t24 10t27 9t28 0q2 0 5 -2t7 -4t6 -4q10 -10 11 -17t1 -17q-4 -16 -11 -30t-7 -28l-2 -6q2 -4 4 -10q4 -12 6 -10q-2 -10 -4 -38t-4 -38q-4 -40 -6 -79t-6 -77q60 -2 107 -19t71 -57q14 -24 3 -49t-34 -48t-50 -42t-45 -29q-72 -44 -117 -57t-85 -20t-84 -19t-112 -54 q-58 -34 -84 -80t0 -90q30 -48 73 -73t96 -34t112 -8t123 5q18 2 44 7t53 7t50 -2t33 -22q8 -14 6 -32t-6 -38l-8 -40t2 -34q4 -4 8 -6q8 -4 16 -4l2 -4q-4 -4 -4 -8t-4 -8q-26 -14 -40 -25t-26 -20t-23 -18t-31 -21l-30 -18q-4 -4 -18 -9t-18 -1q-24 -14 -57 -34t-55 -26 q-2 -2 -9 -1t-15 2t-14 2l-6 1q-40 2 -92 -6t-86 -30q-32 -20 -64 -48t-53 -59t-28 -64t11 -63q6 -12 19 -21t26 -19t24 -19t13 -21q114 -30 252 -36t274 18q36 6 110 27t153 41t144 32t81 2q4 -2 10 -16t8 -18q8 4 24 9t22 9q-16 -26 -45 -38t-51 -26l6 -10q2 -4 18 4 l36 18q22 12 50 30l-60 -54l16 -28q-22 -18 -40 -35t-35 -34t-36 -33t-45 -32q-78 -46 -160 -72t-168 -46q-84 -18 -184 -37t-206 -29q-8 -26 -24 -69t-36 -93t-42 -100t-42 -90t-37 -64t-25 -22l-2 -2l-6 8q-4 -2 -18 -4t-18 -6l-8 -4h-2q-2 0 -2 2h-6l-4 12q-2 6 -8 12z M74 1190q-6 -4 -2 -10t12 -2t3 11t-13 1z" />
<glyph unicode="'" horiz-adv-x="608" d="M378 1282q-2 0 -12 -10q-4 -6 -8 -10h-6h-8l-6 6q-4 4 -18 10t-20 10l-10 -6h-2q-10 0 -23 33t-26 83t-25 111t-21 118t-15 102t-6 65q0 36 19 58t46 33t59 15t56 4q78 0 114 -41t48 -106t8 -146t-4 -163v-84q-4 0 -8 -10q-4 -4 -6 -8v-8q0 -16 7 -34t7 -36q0 -10 -2 -17 t-12 -17q-2 0 -10 -3t-12 -3q-16 0 -31 8t-29 19t-25 19t-19 8z" />
<glyph unicode="(" horiz-adv-x="902" d="M394 28q-4 0 -12 -4l-8 -4q-34 24 -58 51t-45 56t-40 61t-43 66t-44 97t-35 142t-25 167t-17 170t-10 151t-3 111q0 88 4 170t15 160t32 155t55 157q24 58 61 110t85 91t104 62t120 23q38 0 70 -16t54 -42t35 -60t13 -70q0 -20 -15 -49t-34 -60t-37 -61t-26 -50 q-52 -150 -74 -303t-22 -321q0 -62 2 -140t12 -157t31 -156t59 -136t95 -97t141 -40q12 -16 28 -20l-84 -82q2 -4 7 -10t5 -10v-2v-8l-6 -6q-2 -2 -4 -2t-2 -2l-8 10q-12 -28 -38 -44t-30 -18q0 -10 2 -16t4 -10h34v-22q-52 2 -82 5t-70 3h-28q-4 -22 -19 -25t-31 -3 q-34 0 -62 14t-56 14zM174 290q-4 0 -4 -10t4 -10q10 0 10 10t-10 10zM702 290q-6 0 -6 -10t6 -10q10 0 10 10t-10 10z" />
<glyph unicode=")" horiz-adv-x="768" d="M414 4q-26 0 -52 -14t-56 -14q-14 0 -27 3t-17 25h-26q-36 0 -64 -3t-74 -5v22h32q0 4 2 10q0 4 1 8t1 8q-4 2 -27 18t-33 44l-8 -10q-2 0 -6 4q-2 2 -4 6v8v2q0 4 4 10t6 10l-76 82q8 2 15 9t11 13q76 2 128 40t86 98t53 136t28 156t11 158t2 140q0 168 -21 322t-67 304 q-6 20 -23 50t-35 62t-31 61t-13 49q0 74 43 131t113 57q56 0 108 -23t96 -62t77 -92t55 -111q30 -80 49 -157t30 -155t14 -160t3 -172q0 -42 -3 -112t-9 -152t-15 -169t-23 -166t-32 -143t-40 -98t-39 -66t-35 -62t-41 -57t-53 -51l-8 4q-8 4 -10 4zM614 268q-10 0 -10 -10 t10 -10q4 0 4 10t-4 10zM134 268q-8 0 -8 -10t8 -10q6 0 6 10t-6 10z" />
<glyph unicode="*" horiz-adv-x="1584" d="M536 400v54l-24 -26v34l-38 -28q0 4 -3 9t-5 5q-4 0 -12 -5t-8 -9q10 18 21 41t19 45h-10h-2q-4 0 -10 -4t-10 -6v38q0 44 17 89t38 90t39 87t18 80v8q-30 -12 -68 -23t-79 -19t-81 -12t-72 -4q-10 0 -37 2t-37 2q-22 24 -47 37t-47 29l-4 8q-2 4 -2 12q-4 0 -7 4t-7 4 q2 6 6 21t10 33t12 34t12 24q14 22 43 44t51 32q12 4 31 13t37 17q22 8 44 18h18q0 34 -20 54t-45 44t-45 59t-20 99q0 38 21 72t53 60t71 42t75 16h6q4 0 17 -2t28 -5t29 -5t20 -2q0 -6 14 -17t32 -23t35 -23t21 -15q0 -2 7 -9l15 -15t16 -15t10 -9q12 -10 32 -25t40 -31 q22 -18 48 -36l20 18q12 30 29 67t37 74t44 72t50 61q28 8 41 19t25 19t30 14t56 6q10 0 31 1t31 -11q-10 -4 -9 -12t1 -12q0 -18 12 -33t27 -29t27 -28t12 -30q0 -4 -1 -5t-1 -5q-2 -4 -2 -6l-114 -214v-40q72 0 142 10t142 10h76q4 0 23 -5t25 -15q-24 -18 -65 -21t-67 -7 v-12q12 0 18 -2l12 -4t15 -6t27 -6h-28l8 -18h80l4 -4q0 -2 1 -2t1 -2t2 -2v-2q0 -2 2 -4v-6h-50q28 -4 53 -7t25 -33q0 -16 -11 -18t-19 -12q6 -10 14 -13t14 -7q-6 -4 -19 -7t-26 -9t-22 -14t-9 -18q-12 2 -57 -1t-94 -11t-89 -17t-40 -19q0 -58 19 -120t19 -124 q0 -12 -9 -21t-22 -15t-27 -10t-24 -4q0 -18 -1 -25t-3 -12t-5 -11t-7 -22h-22q-40 0 -76 22t-67 49t-56 49t-41 22l-8 -2q-48 -92 -87 -175t-93 -173l-8 -8h-2h-8q-4 0 -18 9t-16 9q-16 2 -32 -11t-33 -30t-32 -33t-29 -18v20h-12zM1066 714q6 0 6 -8t-6 -8q-8 0 -8 8t8 8z M1448 1262q-4 0 -4 -10t4 -10q10 0 10 10t-10 10z" />
<glyph unicode="+" horiz-adv-x="1706" d="M1490 996q-8 0 -25 1t-37 2t-37 2t-25 1h-8h-12q-6 -2 -24 -5t-38 -8t-40 -8t-28 -5t-21 -5t-27 -8t-25 -11t-13 -16q2 -2 4 -6q4 -6 10 -10h2h4q4 0 20 4t18 4h6h4q2 -2 5 -9t3 -11t-11 -5t-23 -4t-23 -13t-11 -30q0 -56 4 -88t9 -53t10 -35t8 -34t3 -52t-6 -88 q2 -2 9 -22t14 -46t12 -50t5 -32h-12q4 -24 -5 -33t-23 -13t-26 -8t-12 -18l-10 6q-8 -4 -30 -27t-28 -39q0 4 -8 8t-12 4l-6 -12h-14q-16 0 -14 17t-12 23q-6 -4 -8 -10t-3 -13t-4 -14t-13 -11q-8 16 -25 31t-21 37q-24 -22 -24 -46q-36 0 -62 45t-41 104t-22 117t-7 82 q-16 0 -20 8t-4 24h8q0 6 -8 28t-14 30h14v18h-14q-8 0 -10 23t-2 33h6q0 18 -8 29t-18 27q-6 12 1 -20t18 -73t21 -73t10 -20h12v20q-22 0 -27 22t-6 48t-7 48t-30 22h-16l10 -12l-118 -46q-6 2 -10 6l-7 7t-3 7q-4 4 -10 15t-10 13q-30 -4 -77 -6t-95 5t-87 27t-49 62 q-4 10 -15 17t-11 13v4q0 2 8 5t12 5v6v2l-7 7t-7 5q6 0 18 11t26 26t26 29t16 16q10 10 38 17l44 11q6 0 26 5t42 10t41 10t23 5t20 9t20 9l8 2l4 -2h4l-8 -8h20q16 0 13 1t-9 4l-10 5t12 6q10 2 27 6l34 8t29 8t12 6l10 6v74l-24 164q0 48 5 94t23 82t54 59t98 23 q2 0 6 -1t8 -1h10l20 -38q16 16 29 18t33 2h26q0 -4 6 -10q4 -4 8 -10q20 -8 33 -11t21 -8t15 -15t17 -30q14 -30 15 -94t27 -162q4 -4 7 -11t7 -9h2q40 0 99 12t105 18h8h35t57 -3t53 -12t23 -27q4 0 20 2t20 2q2 0 5 -5t3 -7zM900 308q-4 0 -4 -9t4 -9q10 0 10 9t-10 9z M986 308q-2 0 -2 -5t2 -5q4 2 4 6t-4 4zM978 390q-10 0 -10 -7t10 -7q6 0 6 7t-6 7zM1180 404q-4 0 -4 -10t4 -10q10 0 10 10t-10 10zM734 730q-6 0 -6 -10t6 -10q4 0 4 10t-4 10zM734 750q-6 0 -6 -10t6 -10q4 0 4 10t-4 10zM776 532q-10 0 -10 -8t10 -8q6 0 6 8t-6 8z M764 588q-6 0 -6 -8t6 -8q10 0 10 8t-10 8zM576 816q6 0 24 -4t24 -4h6h6q2 0 12 8t12 12h-2h-4q-8 -4 -38 -6t-40 -6zM680 828q-8 0 -8 -10t8 -10q6 0 6 10t-6 10zM1536 1162q-8 0 -8 -10t8 -10t8 10t-8 10z" />
<glyph unicode="," horiz-adv-x="742" d="M96 -304q0 14 12 31t18 29q26 46 41 89t33 89l4 6v166q-6 16 -5 29t1 29t-1 23t5 21q4 4 10 12t10 16q6 8 12 18l14 8l-8 4q40 26 93 49t107 23q34 0 62 -17t49 -42t33 -54t12 -53q0 -6 -3 -20t-7 -29t-7 -29t-5 -22q-4 -30 -7 -65t-12 -68t-26 -65t-47 -56 q-4 -2 -21 -14t-36 -25t-35 -25t-18 -14l-8 -8t-14 -13t-15 -13t-9 -6q0 -2 -5 -3t-7 -1q0 2 -2 4q-4 4 -6 4h-4q-20 0 -51 -2t-53 -6q-10 -4 -17 -8t-17 -4q-20 0 -35 6t-35 6z" />
<glyph unicode="-" horiz-adv-x="1096" d="M272 502q-52 12 -93 38t-41 78q0 48 42 86t109 66t148 48t161 32t149 17t109 5q26 0 47 -25t37 -60t25 -70t9 -53v-48q-10 -8 -28 -29t-32 -37z" />
<glyph unicode="." horiz-adv-x="704" d="M244 8q-32 18 -57 29t-42 28t-26 43t-9 72q0 56 31 105t79 86t105 58t111 21q52 0 84 -24t52 -60t29 -78t17 -80q0 -4 3 -14t7 -22l7 -21t3 -11q0 -16 -11 -40t-17 -32q-12 -18 -29 -24t-36 -8t-39 -1t-36 -1q-26 -4 -43 -19t-39 -15h-24q-6 0 -24 1t-38 3t-36 3t-22 1z " />
<glyph unicode="/" horiz-adv-x="1048" d="M406 -206q-4 0 -6 -2t-6 2q-4 0 -10 5t-6 9q-22 -22 -39 -24t-43 -2q-36 0 -61 7t-45 20t-40 30t-46 37q-34 22 -46 36t-12 56q0 74 28 141t50 133q4 14 16 53t25 83t25 83t16 55q-4 18 2 42t14 48t17 47t15 39l206 810v6q4 4 10 20t8 18v8q4 20 16 66t26 97t27 96t19 63 q0 6 4 24t4 22q4 52 45 88t99 36q0 -12 -12 -18l8 -4q10 0 16 6t16 6h8q10 0 41 -4t41 -4q10 -20 16 -18t11 4t8 -6t9 -46v-8q6 0 10 -4q2 -2 4 -2q0 4 3 11t3 9q30 -20 59 -42t29 -62v-22q-22 -82 -39 -147t-29 -141q-4 -16 -13 -37t-13 -43q-34 -120 -66 -240t-60 -242v-8 q0 -22 10 -37t10 -35h12q0 -12 -5 -18t-11 -10t-11 -8t-5 -12q0 -6 6 -8q2 -2 6 -4v-10q0 -8 -1 -17t-11 -9l-14 8q-26 -8 -35 -36t-13 -50q-4 -10 -15 -54t-24 -95t-25 -95t-14 -56l-4 -12q-2 -4 -2 -10q0 -2 -2 -4q-2 -6 -7 -28t-12 -47t-13 -47t-8 -28q0 -4 -4 -16 t-8 -27t-8 -28t-6 -15q-4 -12 -12 -43t-17 -64t-17 -62t-10 -39q-4 -10 -12 -42t-21 -67t-28 -63t-31 -28v26zM406 -178q-10 0 -10 -10t10 -10q6 0 6 10t-6 10z" />
<glyph unicode="0" d="M92 430q0 22 -11 56t-13 56v12q-2 8 -4 26t-4 39t-3 39t-3 24q4 4 7 11t7 9v6v2q-14 152 -17 296t20 281t77 266t154 249q20 14 49 27t62 23t65 16t58 6q6 0 25 -4t38 -12t35 -17t16 -17v-4q-4 -2 -6 -5t-4 -5q20 0 33 -12t22 -27t15 -28t14 -15q4 -4 20 -2t20 2 q6 -4 20 -7t28 -7t26 -7t18 -5q188 -46 298 -149t164 -250t64 -331t-2 -390h-18q0 -4 -1 -6t-1 -6q2 0 5 -8t5 -8q-4 -28 -10 -62t-16 -67t-25 -63t-35 -54q0 4 -8 10t-12 10l-2 -2q-2 -2 -4 -2q0 -10 6 -13t6 -13l-6 -8l-46 -20q16 -14 -4 -22q-8 -4 -22 -6l-8 -12 q-8 -12 -12 -16q-12 -20 -32 -34t-43 -26t-45 -27t-40 -35h8h2q4 0 15 9t13 11h8h12q-14 -16 -36 -31t-47 -27t-50 -19t-43 -7h-4q-2 0 -9 3t-11 3l-8 -14l-8 8q-2 0 -10 -4q-4 -2 -10 -4h-16q-4 -4 -8 -12q-2 -4 -2 -8q-4 0 -16 4t-14 4h-16q-6 0 -15 -1t-5 -19 q-94 8 -172 16t-149 29t-135 62t-126 113q-2 0 -15 29t-27 67t-25 73t-11 45zM458 644q0 -36 5 -97t23 -121t52 -103t92 -43q60 0 123 37t114 93t84 123t33 127v50q4 -4 8 33t6 98t0 135t-11 143t-27 124t-48 77q-20 42 -54 68t-77 44t-91 33t-96 35q-86 -76 -119 -182 t-39 -223t6 -234t16 -217zM1238 300q-6 0 -6 -10t6 -10q10 0 10 10t-10 10zM1152 334q-6 0 -6 -8t6 -8q10 0 10 8t-10 8zM1210 422q-6 0 -6 -6t6 -2q8 0 0 8zM1212 1380q-6 0 -6 -10t6 -10t6 10t-6 10zM1120 1480q0 8 -7 8t-7 -8q6 -2 14 0zM1080 1540q-6 0 -6 -10t6 -10 q10 0 10 10t-10 10zM996 1574q8 -10 13 -15t15 -5h8q-2 4 -12 12t-14 8h-4h-6zM892 1622q-6 0 -6 -10t6 -10q10 0 10 10t-10 10zM864 1632q0 4 -5 4t-3 -4q0 -6 3 -6t5 6zM292 1774q-8 0 -8 -10t8 -10t8 10t-8 10z" />
<glyph unicode="1" horiz-adv-x="710" d="M382 48q0 -4 -8 -16q-4 -6 -6 -12l-4 -4q-2 -2 -4 -2q-10 0 -20 9t-19 22t-15 26t-6 21h-2h-8q0 -2 -5 -8t-5 -10q-36 28 -56 44t-30 52t-13 107t-6 208t-9 356t-20 551q0 4 -2 15t-6 13q0 4 -4 12q-2 4 -2 8v32t-1 8t-4 7t-9 29q0 2 5 11t9 9v50q0 40 -7 78t-7 76 q0 56 14 92t41 55t68 26t93 7q26 0 62 -12t71 -30t64 -39t45 -39h8q6 0 14 -13t16 -30t14 -32t6 -21q0 -8 -5 -12t-5 -10v-8l8 -6v-104q10 -4 11 -10t1 -12q0 -10 -1 -17t-11 -7v-100q0 -54 1 -99t2 -87t2 -86t1 -98v-18q0 -6 -4 -33t-4 -33t1 -28t3 -49t3 -51t1 -32v-54 t-1 -81t-2 -82t-3 -53v-26q0 -18 -2 -61t-4 -91t-5 -90t-3 -58v-14q-20 -26 -31 -62t-33 -58q-16 -12 -35 -21t-31 -25q-4 -4 -6 -10t-4 -10l-10 -8q-22 16 -35 32t-45 16h-6zM204 1900q-8 0 -8 -9t8 -9q6 0 6 9t-6 9z" />
<glyph unicode="2" horiz-adv-x="1304" d="M112 218q0 38 16 75t38 71t46 67t42 63q52 98 107 193t99 195q24 56 56 139t62 173t51 179t21 157q0 14 -14 14q-64 0 -113 -29t-93 -67t-86 -72t-88 -44q-2 0 -12 4t-14 4q-4 2 -24 1t-22 -1q-4 2 -10 15t-10 15q-12 10 -23 13t-21 5l-20 4t-22 12q-4 58 -19 107 t-15 107q0 12 2 19t14 23q50 54 110 102t126 84t139 57t151 21q60 0 122 -18t119 -51t103 -77t76 -98q20 -36 28 -78t32 -72v-58q0 -80 -17 -179t-45 -198t-65 -192t-77 -161q-14 -26 -34 -59t-41 -68t-40 -70t-33 -67q-2 0 -2 -6q0 -2 2 -4q42 0 80 6t76 6q68 0 129 -5 t109 -25t82 -60t48 -110q4 -16 12 -34t8 -38v-14q-4 -4 -21 -23t-27 -23q-4 -2 -14 -2h-22t-23 1t-13 1q-4 0 -16 -4l-12 -4h-12q-34 0 -78 14t-70 14q-22 2 -72 -9t-103 -25t-98 -29t-57 -23q-2 0 -5 -7t-5 -7q-20 -10 -47 -14t-49 -6q-26 -6 -54 -27t-56 -21q-16 0 -23 12 t-27 16q-46 12 -72 14t-44 9t-33 26t-37 63q-4 8 -13 13t-18 12t-17 19t-8 34z" />
<glyph unicode="3" d="M298 68l-64 14q24 0 46 2q18 2 33 3t15 5v12q-22 0 -47 -4t-47 12q6 -2 19 2t19 6q0 4 -1 20t1 20q6 18 57 43t114 50t123 47t88 34q52 26 102 70t96 95t87 104t75 97q-6 22 8 55t14 61q0 36 -18 62t-47 43t-63 24t-64 7q-34 0 -73 -22t-67 -44q-2 0 -13 -13t-15 -13 q-16 -6 -48 -6t-56 -2q0 -4 -12 -8t-16 -4h-28q-18 0 -30 2t-24 5t-27 4t-39 1q-4 0 -6 4t-6 4v2v4q4 4 8 12l4 8q-2 16 -13 32t-23 31t-21 30t-9 33q0 22 14 38t33 29t40 22t35 19q44 30 93 73t88 94t65 108t26 117q0 54 -38 81t-92 27q-66 0 -108 -25t-79 -55t-80 -55 t-111 -25q-18 0 -45 2t-52 10t-44 25t-19 45q0 52 29 102t77 92t108 77t122 60t120 39t100 14q80 16 170 -14t162 -91t111 -144t17 -173q0 -76 -25 -143t-51 -135q-2 0 -2 -2v-8q0 -8 27 -15t62 -16t68 -20t43 -25q2 -4 20 -18t20 -18q54 -72 84 -126t44 -101t15 -93 t-7 -102q0 -116 -65 -211t-161 -171t-205 -132t-197 -94q-68 -30 -136 -52t-142 -22q-50 0 -85 12t-81 22v34zM1024 1610q-8 0 -8 -9t8 -9q6 0 6 9t-6 9z" />
<glyph unicode="4" horiz-adv-x="1380" d="M1192 48q-8 0 -8 -9t4 -11q-22 -14 -24 -20h-66q0 4 -5 6t-9 6h-6q0 -4 -8 -12t-12 -8l-12 4q-12 4 -16 4h-8q-2 0 -10 -4l-8 -4h-12q-4 2 -12 12t-19 20t-20 20t-11 16q-4 2 -8 12t-4 12v170q-2 70 -3 116t-2 80t-4 63t-8 63t-14 79t-23 113h-10q-16 0 -43 -9t-31 -31 q-58 -22 -128 -36t-128 -14v12q-10 -10 -32 -11t-32 3l12 -10h-32v14q-58 0 -111 -1t-105 35q-68 44 -104 90t-56 126v132q0 126 19 248t29 250q6 60 10 119t22 108t58 85t118 54h72q44 0 75 -4t53 -18t36 -41t24 -71q2 -4 4 -14t4 -22t3 -23t1 -13q0 -4 4 -16l4 -12v-8 q0 -62 -17 -126t-31 -122q-14 -78 -26 -164t-12 -170q0 -6 2 -34t2 -36q10 -30 41 -39t61 -9q8 0 43 5t73 14t68 21t30 28q0 74 -6 151t-28 149v8q-2 8 -6 43t-7 75t-5 75t-2 43l4 150q2 16 7 42t11 55t15 56t21 47h14q16 6 28 18t24 25t28 22t40 9q12 0 18 -6t11 -13 t10 -13t15 -6q22 0 28 18t20 26q2 -2 5 -16t5 -18q0 -2 4 -6l4 -4q0 -4 -2 -15t-6 -13q4 2 18 11t16 9q4 0 12 -5t8 -7q6 0 21 -4t19 -4q0 -6 4 -28t4 -26v-20q0 -8 -4 -34t-10 -56t-10 -56t-4 -34q0 -6 1 -25t3 -41t3 -42t1 -26q2 -6 3 -1t0 12t-3 11t-4 -2q12 -12 16 -31 t4 -35q16 -126 31 -250t27 -246q4 -56 16 -124t12 -126q0 -16 -3 -23t-5 -17q-4 -8 0 -14v-6h8v-62q-4 -6 -4 -11v-7q0 -82 16 -174q-4 -4 -3 -9t7 -9q4 -26 9 -52t11 -50l20 8v-34q0 -28 -3 -47t-3 -47h6q0 -20 -5 -32t-13 -21t-15 -18t-13 -23q-4 -6 -7 -29t-7 -29 q-4 -16 -25 -28t-43 -22q2 4 1 10t-5 6zM1278 682h6v22q2 -16 6 -51t8 -73q6 -44 10 -96h-20v20h12q0 26 -1 55t-11 57l-14 8q0 4 7 10t7 10v6l-20 -6v22q4 16 10 16zM1288 548q4 0 4 -10t-4 -10q-10 0 -10 10t10 10zM1244 168q-4 0 -4 -10t4 -10q10 0 10 10t-10 10z M1264 750q10 0 10 -10t-10 -10q-4 0 -4 4v14q2 0 2 1t2 1zM1288 476q4 0 4 -10t-4 -10h-4q-2 4 -2 9t-2 9q2 0 3 1t5 1zM1274 604q8 0 8 -8t-8 -8q-2 -4 -2 8t2 8zM1304 334q-4 4 -4 -3t4 -3q4 0 4 3t-4 3zM1196 32q0 -4 -4 -4h-4q4 0 8 4z" />
<glyph unicode="5" horiz-adv-x="1420" d="M478 28q0 16 -12 22t-27 9t-28 9t-13 22q16 0 31 6t21 16q-10 -2 -37 -3t-39 11q18 8 22 17t4 18t1 17t13 16q6 2 21 11t33 20t36 21t30 14q8 2 42 15t72 26t71 25t43 14q4 2 17 9t28 15t28 14t19 10q48 18 84 56t57 86t25 100t-8 95t-43 73t-83 36q-24 0 -62 -2t-77 -5 t-70 -5t-37 -2l-140 -14q0 -2 -13 -2h-23h-22t-16 2q-2 0 -14 8q-6 4 -12 10q-34 8 -60 10t-54 20q-64 36 -103 93t-60 125t-28 141t-7 141v58q2 10 6 37t8 58t8 59l6 42q18 92 70 142t121 74t147 32t150 18q4 0 20 4t20 4q12 0 42 5t64 11t65 12t43 10l18 10h208q2 0 10 -2 t17 -5t17 -7t10 -6q26 -12 50 -32t43 -46t31 -54t12 -58q0 -4 -2 -20t-2 -22q-18 -10 -26 -10t-28 -14q-30 -24 -93 -35t-136 -16t-144 -6t-115 -7q-8 0 -27 -2t-40 -5t-39 -6t-26 -5q-30 -12 -45 -52t-21 -88t-5 -93t1 -69v-54q4 -6 10 -13t10 -15q60 6 134 7t151 -4 t149 -18t130 -33q44 -14 87 -47t77 -70t53 -72t17 -51l-8 -12q12 -2 10 -16t-2 -18q14 -2 23 -35t12 -81t2 -105t-6 -106t-14 -85t-19 -42q-22 -32 -28 -65t-36 -67q-4 -4 -16 -11t-12 -9q-42 -30 -84 -64t-88 -58q-2 0 -10 -4t-19 -9t-21 -9t-16 -6q-4 0 -16 -4t-25 -9 t-26 -8t-15 -3q-16 -6 -40 -18t-49 -23t-49 -19t-38 -8h-12l8 4q8 4 12 4l-4 6q-34 0 -65 -7t-63 -7h-12q-10 0 -24 1t-28 3l-32 4v20h-56zM1312 354q-6 0 -6 -10t6 -10q10 0 10 10t-10 10zM1304 362q-4 0 -4 -7t4 -7q6 0 6 7t-6 7zM1296 902q-4 0 -4 -10t4 -10q10 0 10 10 t-10 10zM1276 930q0 -6 2 -11t12 -9v12q0 16 -8 20q0 -4 -3 -7t-3 -5zM1270 958q-6 0 -6 -8t6 -8q10 0 10 8t-10 8z" />
<glyph unicode="6" horiz-adv-x="1398" d="M68 708q0 46 11 91t13 91q6 66 24 153t44 182t61 193t77 186t90 159t100 113q16 10 36 20t36 10q28 0 43 -7t45 -3l140 -56q30 -10 39 -46t9 -58q0 -34 -15 -70t-36 -72t-43 -69t-38 -59v-14q0 -2 -9 -20t-9 -26q-32 -70 -68 -170t-67 -207t-51 -211t-20 -178q10 0 18 5 t16 9q42 26 94 53t108 49t111 37t103 15q46 0 120 -17t143 -49t119 -78t50 -102q0 -26 -7 -53t-23 -49l20 8v-4v-4q0 -2 -9 -10t-11 -8q12 -4 11 -14t-1 -14q0 -22 -7 -33t-16 -18t-19 -14t-16 -21q-4 -14 -15 -36t-26 -44t-34 -38t-37 -16v8q-30 0 -54 -34l6 -8 q-22 -6 -48 -20t-54 -30t-57 -32t-55 -24l-8 -4q-4 -2 -12 -2q-32 -22 -63 -21t-65 -7l8 -12q-6 0 -22 -1t-34 -3t-35 -3t-25 -1h-6q-64 0 -131 19t-129 52t-116 77t-92 94q-36 48 -58 105t-34 119t-16 124t-4 118zM1124 242q-4 0 -4 -10t4 -10q10 0 10 10t-10 10zM1230 262 q-2 2 -9 -3t-3 -5q8 -4 12 0t0 8zM620 280q4 -2 18 -6t16 -4q38 4 84 19t88 39t75 58t49 74q-4 0 -11 4t-9 4q-34 0 -79 -20t-90 -49t-83 -61t-58 -58zM1264 348q-8 0 -13 -9t-1 -21h4h4q4 2 10 13t10 17h-14zM1304 488q-10 -28 -15 -47t-5 -47v-20q6 12 20 36t14 40 q0 10 -4 18zM1324 394q-4 0 -4 -6t4 -6q4 8 0 12zM950 488q-10 0 -10 -10t10 -10q6 0 6 10t-6 10zM1332 542q-6 0 -6 -10t6 -10q8 0 8 10t-8 10zM1324 562h8l-8 40v-40zM488 630q-6 0 -6 -10t6 -10q4 0 4 10t-4 10zM694 742q-10 0 -10 -10t10 -10q6 0 6 10t-6 10zM722 750 q-6 0 -6 -10t6 -10t6 10t-6 10z" />
<glyph unicode="7" horiz-adv-x="1292" d="M656 24q-8 -4 -12 -4l-6 -6q-10 0 -15 7t-8 16l-6 18t-11 13q-38 8 -66 30t-28 70q0 70 25 147t41 145q20 48 41 130t42 180t40 206t34 208t24 186t9 140v56q-14 0 -26 2q-10 2 -22 3t-20 1q-6 2 -24 5t-39 5t-41 3t-28 1h-82t-108 4t-116 15t-105 34t-76 60t-29 93 q0 28 19 50t46 38t57 24t52 8q14 0 51 -3t79 -6t79 -6t51 -5q34 -2 67 -13t63 -7l284 -44q24 -14 51 -12t51 -8q34 -10 78 -23t83 -33t66 -51t27 -79q2 -8 -3 -63t-15 -136t-25 -180t-32 -198t-35 -187t-34 -148q-38 -106 -69 -217t-57 -223q-2 -4 -5 -13t-6 -19t-6 -19 t-3 -11q0 -4 -8 -12q-4 -4 -6 -8q0 -6 6 -12l8 -8q0 -4 -10 -14t-10 -14q-16 -32 -27 -50t-25 -29t-34 -16t-54 -11q-4 0 -11 -3t-9 -3q-4 -4 -9 -4t-9 -2q-6 -2 -10 -2l-8 8h-8h-4q-2 -4 -9 -16t-11 -12q-2 0 -6 2q-8 4 -10 6q-2 0 -7 4t-5 8q-2 0 -8 4t-10 4z" />
<glyph unicode="8" horiz-adv-x="1390" d="M368 20q-34 16 -79 25t-75 29q-28 18 -46 46t-32 60t-24 65t-20 63q-6 16 -15 19t-9 21l2 2q0 4 4 4l-6 8v36q0 134 47 236t119 208q16 22 31 43t25 45q-48 44 -81 85t-55 85t-34 93t-18 111q-4 24 -6 38t-3 26t-1 27v43q0 94 18 164t57 126t99 104t142 100q28 16 61 22 t59 22q10 2 32 6t46 7t45 5t31 2h4h2q10 0 29 -4t37 -8t33 -8t17 -6q14 -6 25 -28t19 -42t15 -30t13 6q14 -4 22 -11t18 -15q-4 0 4 -3t19 -8t20 -9l9 -4q2 -6 -4 -12t-1 -18t29 -33t88 -57q10 -8 24 -13t24 -13q26 -28 40 -62t42 -52q12 -8 16 -12t4 -9t-2 -13t-2 -22 q4 4 10 6q10 4 12 2q2 -4 16 -28t28 -52t26 -53t12 -29v-6q0 -8 -8 -20q0 -10 -9 -16t-9 -22q0 -8 -4 -26t-11 -38t-15 -36t-16 -20q6 0 6 -8q0 -2 -9 -13t-19 -25q-12 -16 -26 -36q-6 -4 -19 0t-19 -12l10 -8q0 -2 -4 -5t-6 -7q-4 -4 -23 -14t-25 -14v4v8q4 0 16 13t14 15 q-2 0 -2 2v6q-24 0 -39 -25t-15 -45q0 -2 35 -37t78 -81t78 -91t35 -69v-160q-22 -68 -44 -120q-18 -46 -39 -86t-39 -46q-12 -4 -19 -13t-12 -19t-11 -19t-16 -13q-62 -34 -127 -82t-127 -90q-4 0 -22 -6t-39 -14t-41 -17t-26 -11t-27 -5t-45 -8t-46 -8t-34 -5h-20 q-4 0 -15 -1t-23 -3t-24 -3t-14 -1q-8 0 -29 2t-45 5t-44 6t-28 7zM488 460q0 -30 8 -60t25 -55t44 -40t65 -15q52 0 108 29t101 74t74 100t29 109q0 26 -9 56t-27 56t-43 43t-55 21q4 10 -7 17t-28 12t-33 8t-22 3h-4q-4 0 -12 -5t-8 -9q-34 -30 -71 -69t-67 -84t-49 -93 t-19 -98zM74 394q-4 0 -4 -6t4 -6q10 8 0 12zM580 1670q-8 -12 -17 -32t-17 -42t-14 -43t-6 -35v-202q0 -2 3 -13t13 -39q6 -16 20 -33t33 -32t39 -25t38 -10q24 0 62 18t76 45t65 59t27 62v12q-4 10 -1 4t-1 0t-14 12t-22 12t-23 12t-15 10q-4 0 -12 4q-4 2 -6 4 q-4 0 -11 -4t-9 -4h-6h-2q-30 80 -77 140t-111 110q-4 4 -8 6t-4 4zM1172 1614q8 0 8 -8t-8 -8t-8 8t8 8z" />
<glyph unicode="9" horiz-adv-x="1404" d="M898 82q4 12 -2 26t-6 24q0 64 10 131t10 131q0 6 -4 23t-8 25l2 448l-8 30q-58 -26 -133 -37t-139 -3q16 -16 38 -19t38 -3v-8q-28 0 -50 3t-43 9t-41 13t-46 15q-2 2 -9 1t-11 -1q-86 12 -154 43t-126 99q-4 4 -12 13t-16 17l-18 18l-20 -12q2 18 -8 37t-25 37t-30 35 t-23 33q-22 38 -25 96t-3 100q0 68 20 115t53 86t74 75t81 84q74 34 144 65t141 54t145 37t156 14q6 0 18 -1t27 -1t27 -1t18 -1q26 -18 59 -19t61 -15q24 -12 41 -28t33 -34l32 -36t36 -34q30 6 50 -8t35 -36t26 -48t21 -44v-374v-376q0 -14 -1 -62t-3 -113t-5 -138 t-5 -138t-4 -113t-4 -62q0 -64 -5 -113t-23 -107q-16 12 -21 10t-21 -2q0 -6 6 -18t-10 -16q-6 4 -24 15t-14 25q-10 -8 -13 -15t-6 -13t-11 -12t-26 -8q-4 0 -10 4t-10 4l-8 -4q-8 -4 -12 -4h-6h-14q-26 10 -65 14t-61 20l-20 20q-4 4 -20 14t-20 14zM470 1366 q0 -32 14 -68t38 -66t56 -50t68 -20q24 0 41 8t32 20t29 25t32 23q34 18 56 23t34 15t17 34t5 82q0 48 -5 75t-20 44t-40 29t-67 28h-8q-26 0 -73 -22t-94 -53t-81 -66t-34 -61zM50 1462q-10 0 -10 -10t10 -10q4 0 4 10t-4 10z" />
<glyph unicode=":" horiz-adv-x="648" d="M122 436q0 38 23 64t58 43t73 25t68 8q32 0 75 -8t82 -26t66 -46t27 -70q0 -36 -12 -75t-35 -71t-55 -52t-70 -20q-30 0 -74 5t-66 23q-10 8 -36 36t-54 61t-49 63t-21 40zM40 958q0 30 22 50t52 32t62 17t54 5q24 0 59 -4t67 -16t55 -32t23 -52q0 -6 -1 -15t-11 -13 q10 -4 11 -10t1 -12q0 -26 -6 -55t-19 -54t-35 -41t-54 -16q-8 0 -29 2t-44 5t-43 7t-24 6q-8 2 -31 28t-47 59t-43 64t-19 45z" />
<glyph unicode=";" horiz-adv-x="688" d="M164 -536q-2 -10 -10 -11t-12 -1q-26 0 -26 20q0 36 11 71t23 69t23 69t11 73v10q-2 10 -4 36t-3 55t-2 54t-3 35q-10 10 -15 30t-8 41t-4 40t-1 29q0 26 22 65t53 76t66 66t59 37h14q2 0 14 1t25 3t25 4t16 4h4q50 0 85 -37t57 -90t32 -109t10 -92q0 -42 -5 -105 t-18 -127t-38 -119t-63 -83l-10 6q-34 -34 -71 -69t-77 -57q-4 -6 -8 -6h-8q-32 0 -32 32q-22 -18 -51 -32t-57 -14q-10 0 -21 1t-3 25zM164 120q-8 0 -8 -9t8 -9q6 0 6 9t-6 9zM218 228q10 0 10 -10t-10 -10q-4 0 -4 10t4 10zM100 648q0 48 23 94t60 83t85 61t98 28 q24 4 35 -4t27 -16q32 -12 49 -20t27 -17t15 -24t15 -41q0 -2 8 -15t12 -13l1 -9t2 -19l2 -20t1 -16v-8v-4q-6 -10 -10 -33t-10 -45t-14 -39t-20 -17t-22 7t-20 7t-14 -8t-13 -17t-25 -16t-46 -7h-12q-4 0 -24 4t-22 4q-6 -2 -10 -4q-2 -2 -6 -2q-2 0 -4 -2q-2 -4 -7 -4 t-9 -2q-6 -2 -12 -2q-64 0 -112 34t-48 102z" />
<glyph unicode="&#x3c;" horiz-adv-x="1104" d="M878 1448q56 -12 90 -53t51 -94t18 -110t-9 -101q-10 -40 -53 -84t-100 -88t-116 -83t-97 -65q0 -4 -2 -4t-2 -2l2 -6l12 -12q58 -54 105 -107t75 -111t36 -124t-12 -148q0 -4 -4 -16q-2 -6 -2 -12l-20 -16l-66 16q-8 -6 -22 -2q-38 8 -81 34t-87 59t-85 67t-73 60 q-12 10 -44 37t-67 56t-67 56t-44 37q-8 10 -19 40t-20 65t-14 66t-3 43l13 52t17 56t23 53t31 43q54 50 125 89t129 85q46 30 86 64t80 66q28 26 51 47t47 35t52 17t66 -5z" />
<glyph unicode="=" horiz-adv-x="1064" d="M282 656q-52 12 -93 38t-41 78q0 48 42 86t109 66t148 48t161 32t149 17t109 5q26 0 47 -25t37 -60t25 -70t9 -53v-48q-10 -8 -28 -29t-32 -37zM896 600q32 4 56 -20t39 -59t22 -73t7 -60v-62q-2 -16 -42 -31t-99 -29t-130 -24t-135 -18t-113 -12t-63 -4q-44 0 -90 7 t-83 26t-61 52t-24 87q0 36 22 59t54 38t67 26t61 25z" />
<glyph unicode="&#x3e;" horiz-adv-x="1176" d="M346 178q-56 12 -90 53t-51 93t-18 109t9 103q8 38 52 83t101 88t116 82t97 67q0 4 2 4t4 2l-4 6l-12 12q-58 54 -105 106t-75 110t-36 125t12 149v7t2 9l4 12l20 16l66 -16q8 6 22 2q38 -10 81 -35t87 -58t84 -67t74 -60q12 -10 44 -37t68 -56t68 -56t44 -37 q8 -10 19 -41t20 -65t13 -65t2 -43q-12 -48 -31 -108t-53 -96q-54 -50 -125 -89t-129 -85q-44 -32 -85 -65t-81 -67q-28 -26 -51 -47t-47 -34t-52 -17t-66 6z" />
<glyph unicode="?" horiz-adv-x="1012" d="M308 140q0 52 21 94t56 73t79 53t90 34q12 4 26 12t30 8q38 0 65 -21t55 -45h12q2 0 17 -22t19 -36v-36q0 -60 -22 -108t-60 -80t-89 -49t-107 -17q-32 0 -66 8t-62 25t-46 43t-18 64zM374 762q-8 4 -25 14t-36 22t-36 22t-23 14q-8 6 -20 19t-24 27t-21 27t-9 21 q-4 38 23 78t70 83t93 89t94 98t74 112t30 128q0 8 -1 19t-5 20t-12 14t-22 1q-4 -2 -20 -21t-35 -41t-35 -42t-22 -26q-4 -6 -14 -17t-22 -23l-23 -23t-17 -15q0 4 -7 4t-9 -4q-4 0 -16 -3t-26 -6t-27 -5t-15 -2h-4q-64 0 -104 19t-78 65v42q0 92 60 164t145 127t181 93 t168 60h50q150 0 228 -73t78 -227q-6 -76 -29 -153t-59 -149t-83 -137t-97 -115q10 0 24 -16t26 -38t20 -44t8 -36q0 -18 -15 -58t-36 -81t-45 -72t-42 -31q-16 0 -22 4t-28 4q-24 0 -42 -4t-40 -4q-52 0 -76 14t-50 62z" />
<glyph unicode="@" horiz-adv-x="2128" d="M898 892q16 -54 32 -96q14 -36 30 -64t32 -24t15 19t3 31q6 22 18 35t18 35q2 22 -1 46t5 42l-10 -8l-4 4q-2 6 0 13t12 5q10 20 14 32t4 21t-3 20l-9 33q-4 10 -11 33t-7 25l-24 28h-6q-48 -12 -74 -37t-36 -56t-8 -67t10 -70zM1806 214q2 -34 -21 -64t-57 -59t-71 -57 t-59 -60l60 16l-16 -16q-38 -12 -74 -24q-30 -10 -62 -21t-54 -19l-16 -4q-10 -4 -18 -10q-8 -4 -14 -8t-8 -4l-12 -2q-4 -2 -11 -2h-15h-20q-4 0 -21 -9t-23 -11l-14 -4q-16 -4 -52 -6t-83 -3t-99 1t-98 5t-83 7t-53 10q-14 6 -50 23t-77 37t-78 37t-51 23q-14 20 -35 37 t-44 32l-46 30t-39 31q-94 96 -169 200t-107 230q-42 166 -49 354t43 369t169 340t329 271q84 42 181 68t187 48l150 38q6 2 24 5t39 7t41 7t30 3q2 0 17 1t34 1t37 1t28 3h33t42 -1t40 -5t27 -10l76 -60q84 -32 143 -98t102 -152t73 -187t51 -202t38 -196t37 -169l30 -120 q-4 -6 -21 -17t-15 -19l2 -120q-12 -12 -16 -23t-6 -23t-5 -22t-15 -18l-34 136q-2 4 0 10l4 12l4 16q0 4 -9 13t-13 7l-8 -28q4 -36 6 -70q2 -28 3 -58t3 -50l11 -22t-9 -24q-20 10 -23 14t-7 14q-6 26 -7 67t7 67l-30 -8q4 -4 6 -10q4 -12 0 -16q4 -28 5 -73t3 -85 q2 -50 2 -100l-18 -56l-14 -4q-8 32 -9 70t3 72l-32 -40l-2 8q0 4 2 19t4 17l-40 -32q-10 4 -14 12q-2 -2 -8 -7t-10 -7q24 -2 21 -13t-1 -19q14 4 19 7t13 -13q2 -6 -8 -16q-32 -28 -42 -35t-16 -7t-18 3t-46 -3v4q4 12 11 24t13 26q10 -30 -18 -31t-73 14t-97 37t-92 40 t-58 24t8 -14q-24 6 -46 14t-26 12v6q0 4 1 5t1 3q-22 -6 -43 15t-35 43q-12 -8 -4 -23t0 -21q-4 -6 -17 -17t-27 -23t-27 -23t-19 -17l-34 -10q-10 -2 -12 0t-6 4t-16 2t-40 -8q-2 0 -5 -9t-6 -15t-5 -4t-2 24q-46 -30 -96 -21t-99 41t-92 80t-74 98t-47 94t-10 68v16 q0 16 2 18q-16 92 6 171t69 144t108 115t122 81t113 44t80 5q12 -8 14 -12l-4 -8l-4 -8q2 -6 24 -1t51 7t55 -6t34 -40l14 4q2 0 14 -13t10 -23q-10 -156 -5 -255t22 -151t44 -61t62 12t75 67t82 106q44 48 49 125t-7 153t-33 134t-29 70q-10 14 -52 42t-88 57t-84 52 t-40 27l10 4l-4 16q-4 -4 -15 -8t-15 -4l-14 6l-30 -8q-50 -12 -121 -15t-156 -24t-182 -71t-199 -156q4 -16 -11 -23t-27 -9q-32 -68 -52 -152t-30 -170t-9 -170t13 -152q28 -178 94 -296t155 -187t197 -95t220 -17t223 45t207 92zM1726 518q-24 -16 -26 -28t4 -15t15 6 t7 37zM1716 616l14 -58zM1746 526q4 10 8 22l8 24q-4 12 -4 23t-2 21q-6 -24 -7 -46t-3 -44zM2010 742q-12 -4 -9 -17t15 -9t9 17t-15 9zM1878 474q-10 -4 -7 -16t13 -8q14 4 11 16t-17 8zM1896 782q-16 -4 -13 -16t19 -8q8 2 5 14t-11 10zM1974 1122q-10 -4 -7 -15t13 -9 q12 4 9 16t-15 8zM1718 158q-10 -4 -8 -15t14 -7t9 15t-15 7zM2000 712q-10 -2 -7 -14t13 -8q12 2 9 14t-15 8zM1722 998q-10 -4 -7 -17t13 -9q8 2 5 15t-11 11zM1790 718q4 -4 6 -4t6 -4v10l-2 12q-2 2 -4 5t-6 7l-8 8zM1994 868q-10 -4 -8 -14t14 -6q10 4 7 13t-13 7z M1740 864q-12 -4 -10 -13t14 -5q10 4 8 13t-12 5zM1780 814q-10 -4 -8 -13t12 -7q10 4 8 14t-12 6zM1734 704q-12 4 -9 -11t15 -11q4 4 1 13t-7 9zM1896 1004q2 4 -2 4t-10 -1t-9 -4t1 -5q2 -8 13 -5t7 11zM1306 -110q-2 2 -18 -3t-14 -5q10 -6 20 -4t12 12zM2022 874 q-12 2 -10 -8t12 -2q4 2 3 7t-5 3zM1758 722q-10 0 -8 -7t12 -5q10 16 -4 12zM1746 164l16 4l-4 16zM1514 -48l42 10l-2 6zM1034 784q-6 -2 -4 -9t8 -5q4 2 2 9t-6 5zM1392 484q-4 0 -5 7t-1 15t1 15t5 7l4 8q-2 -4 -2 -8v-18q-2 -12 -2 -26z" />
<glyph unicode="A" horiz-adv-x="1472" d="M320 28q-2 0 -15 -4t-15 -4q-2 -2 -11 -4t-21 -3l-24 -2t-20 -3h-4q-12 0 -14 9t-7 20t-16 22t-41 15q-22 4 -34 13t-24 25v48q0 24 3 74t6 113t8 133t8 133t6 114t3 75q0 10 -1 39t-1 37q-4 6 -11 32t-7 36q0 2 3 13t5 15v70q0 142 -14 279t-10 279q0 44 4 102t20 111 t51 90t99 37h200q14 0 35 -19t31 -29q0 -6 1 -21t2 -31l2 -32t1 -22v-34q28 0 46 16t42 32q28 16 64 21t68 5q38 0 71 -8t65 -12q54 -6 85 -16t53 -29t41 -48t49 -73q6 -10 14 -18t16 -17t14 -19t6 -24h-10q0 -16 7 -41t19 -41q0 -4 9 -7t9 -7q16 -22 17 -46t19 -46 q0 -2 -2 -4q-4 -4 -6 -4t-9 4t-9 4v-4v-4q0 -4 5 -16t11 -27t12 -29t10 -22q10 -22 14 -43t20 -43q4 4 7 6t7 4h2q40 0 57 -14t17 -50h64q-28 -16 -56 -31t-28 -45q14 0 22 -1t14 -1t13 2t21 8l14 -20q-14 10 -25 1t-21 -25t-19 -31t-19 -15q0 -28 4 -54t4 -54q0 -8 1 -16 t-11 -10l20 -10q14 -170 24 -308q4 -58 9 -115t9 -104t8 -78t6 -39q2 -6 3 -19t4 -26t8 -23t13 -12v-106q-28 0 -28 -28l-10 28q0 -6 -8 -17t-18 -11q-8 0 -11 6l-7 14t-9 14t-15 6l-14 -12q-12 6 -17 12t-6 11t-4 8t-13 3v-8q2 -4 2 -9t2 -11q0 -8 2 -14h16q-2 -2 -2 -4v-6 q-4 -4 -14 -15t-14 -13q-4 0 -4 -1t-2 -1l-2 -2q0 20 -16 34t-16 36h-8q-6 0 -20 -8t-18 -12q-10 26 -33 58t-53 32v6h-24q0 6 -5 62t-14 136t-19 171t-20 168t-18 128t-12 51q-62 0 -124 -20t-130 -20v12q22 0 49 5t45 15h-6h-10q-8 -4 -38 -7t-40 -5l-8 -8 q-12 -20 -50 -25t-80 -7t-77 -8t-43 -26q-2 -6 -3 -41t-2 -85t-2 -106t-1 -106t-1 -85t-1 -41q-6 -20 -16 -35t-18 -31q0 -4 2 -24t-2 -24l-5 -12t-13 -27t-15 -30t-11 -23t-9 -15t-9 -15q-6 -8 -10 -18h-28v8q0 4 2 9t-14 9zM1326 48q-4 0 -4 -10t4 -10q6 0 6 10t-6 10z M1320 88q-10 0 -10 -10t10 -10q4 0 4 10t-4 10zM1018 778q-8 0 -8 -10t8 -10q6 0 6 10t-6 10zM624 808q-6 0 -6 -10t6 -10q10 0 10 10t-10 10zM846 806l28 8h-28v-8zM934 832q-10 0 -10 -9t10 -9q6 0 6 9t-6 9zM998 842q-8 0 -8 -9t8 -9t8 9t-8 9zM954 858q-10 0 -10 -8 t10 -8q6 0 6 8t-6 8zM1346 1018q-8 0 -8 -8t8 -8t8 8t-8 8zM1308 1074q-4 0 -4 -8t4 -8q6 0 6 8t-6 8zM760 1510q-34 18 -68 -12t-62 -90t-49 -143t-29 -169v-12q2 0 13 2t15 2q14 2 57 7t92 11t91 10t54 6q16 0 20 5t4 15q8 16 -4 71t-34 118t-49 116t-51 63zM1234 1342 q8 -6 17 -22t16 -33t11 -34t4 -27q0 -2 -5 -6t-9 -4q-10 22 -22 51t-12 57v18zM592 1454q-4 4 -8 -2t0 -8q10 0 8 10zM600 1482q-6 0 -6 -10t6 -10q10 0 10 10t-10 10zM584 1490q-10 0 -10 -8t10 -8q6 0 6 8t-6 8zM1158 1462q-8 0 -8 -10t8 -10t8 10t-8 10zM584 1576 q-10 0 -10 -10t10 -10q6 0 6 10t-6 10zM658 1596q-8 0 -8 -10t8 -10q4 0 4 10t-4 10z" />
<glyph unicode="B" horiz-adv-x="1542" d="M576 50q-24 6 -61 18t-71 12q2 14 15 20t27 6q16 0 21 -6t23 -14q-4 6 -2 14t12 10q-16 4 -29 11t-35 7q-14 0 -20 -9t-12 -19t-12 -19t-20 -9h-4q-4 0 -4 8q-2 4 -2 8h-6q-10 0 -15 -8t-17 -8t-18 8t-10 18t-11 18t-19 8l-6 -36q-4 0 -8 -2q-8 -4 -12 -4h-2h-4 q-2 2 -8 10t-14 17t-15 15t-11 6h-2q-4 -4 -15 -12t-15 -12q-10 24 -28 46t-22 48q-28 236 -38 468t-20 470q-2 6 -2 14q-2 8 -2 16t1 51t1 93t-1 94t-1 56v6l-16 200v4q6 40 25 67t46 47t61 35t70 29q8 -2 31 -4t47 -2t46 1t32 3q54 2 111 25t109 33q24 4 40 5t33 1t36 -1 t47 -1q198 -2 272 -80t48 -248q-6 -40 -22 -97t-37 -117t-45 -116t-44 -92q0 -2 -3 -6t-7 -10q-4 -8 -8 -14v-6l-2 -2q12 -4 38 -12t53 -16t48 -15t25 -7q6 -2 22 -9l32 -14t30 -14l18 -9q12 -6 14 -17t3 -21t7 -17t30 -7l2 6q-6 4 -22 16t-16 22h2h6q28 -16 57 -44t49 -54 q-4 -2 12 -24t35 -50t35 -58t14 -46h12q-4 -14 -14 -16q26 -18 39 -48t16 -65t0 -70t-7 -65q-16 -98 -67 -178t-141 -158v-4q-18 -24 -40 -38t-54 -24l-6 16q-2 0 -13 -6t-15 -10q-16 -12 -40 -24t-51 -21t-54 -15t-47 -6q-16 2 -29 8t-33 6h-40q-8 0 -19 -1t-21 -3 q-12 -2 -26 -2l-2 -20q-6 0 -26 3t-26 3q-10 2 -35 4t-35 2q-6 2 -23 7t-33 13t-28 16t-12 14zM1204 90l4 -2h4q4 0 6 4t6 4zM430 112q-8 0 -9 -8t7 -8t9 8t-7 8zM560 110q-6 0 -7 -8t5 -8q8 0 9 8t-7 8zM408 118q-6 0 -8 -7t4 -7t8 7t-4 7zM1264 120q2 4 -2 4t-6 -4 q0 -4 4 -4t4 4zM334 174q-10 0 -11 -8t9 -8q6 0 7 8t-5 8zM554 196q-4 0 -5 -4t3 -4t5 4t-3 4zM600 206q-4 0 -5 -9t3 -9q8 0 9 9t-7 9zM512 646q0 -6 3 -30t7 -52t8 -55t4 -37v-19v-32v-32v-17q2 -18 8 -39t11 -42t7 -41t-4 -38q12 10 17 16t7 16q2 4 1 10t-7 6h8 q10 0 10 -9t10 -9t16 6t24 6q0 4 3 15t11 15q4 -4 8 -6t2 -6q14 -16 31 -22t29 -22h36q54 0 104 17t91 45t73 66t52 80q2 4 5 27t5 31q22 138 -37 235t-185 167h-10q-2 0 -20 5t-22 5q-18 -4 -49 -24t-62 -47t-55 -54t-30 -43q0 4 -3 8t-7 4t-20 -16t-33 -35t-31 -36 t-16 -17zM516 712l4 -4q8 0 0 -8l34 24q-2 2 -9 5t-11 5h-6h-4q0 -2 -5 -8t-7 -10zM576 750q-8 0 -10 -8t6 -8q6 0 8 8t-4 8zM616 780q-4 4 -9 -1t1 -5q0 -4 6 -1t2 7zM1146 1058q4 0 2 -8t-6 -8q-10 0 -8 8t12 8zM498 1524q-6 -38 -5 -94t3 -116t3 -117t-5 -93h8 q26 62 48 114q20 46 40 88t32 58q36 48 63 105t37 111q0 4 2 20t4 22q-2 10 -22 10q-16 0 -45 -8t-60 -20t-58 -26t-39 -24q-2 -4 -3 -15t-3 -15zM582 1632q-4 -10 -15 -10t-23 -1t-22 -6t-12 -21l20 -2l184 70v4l2 6q-4 0 -9 3t-9 3v10q-10 0 -33 -6t-45 -15t-40 -19 t-18 -16h20z" />
<glyph unicode="C" horiz-adv-x="1464" d="M54 818q0 38 -1 83t0 92t4 92t11 81q8 56 18 96t20 90v8q84 274 276 421t474 147q104 0 199 -37t168 -102t117 -155t44 -198q0 -32 -1 -72t-9 -79t-23 -75t-45 -58q-2 -2 -6 -4q-2 -2 -6 -2h-2q-48 -18 -73 -34t-48 -28t-55 -18t-92 -6q-34 0 -70 18t-66 47t-50 64 t-20 69q0 26 7 54t16 58t16 62t7 66q0 6 -6 28t-12 22q-58 0 -105 -31t-84 -81t-63 -114t-44 -128t-26 -123t-8 -101q0 -80 11 -165t36 -167t66 -155t101 -129q24 -16 61 -31t63 -15q42 4 83 18t82 29t82 27t81 12q20 0 40 -10t36 -10l8 4q8 4 12 4q2 4 12 6t14 6h4h4 q-22 -10 -30 -32t-4 -44h12q22 0 35 8t29 8h6l-18 -34h10l5 -15t3 -15q0 -22 -7 -43t-29 -33l8 -6q-36 -44 -116 -79t-173 -59t-183 -37t-146 -13h-45t-56 3t-55 9t-44 16q-162 96 -261 238t-161 316q-10 28 -13 60t-11 60q-8 8 -14 8v108z" />
<glyph unicode="D" horiz-adv-x="1592" d="M762 34q-10 -2 -36 -3t-52 3t-43 17t-11 41q-18 -6 -25 -15t-14 -19t-17 -17t-30 -7q-34 0 -43 17t-3 51q-6 -16 -11 -33t-9 -35h-8q0 18 -1 35t-9 33q-4 -8 -20 -14t-16 -14q0 -4 4 -10t4 -10v-4q0 -8 -6 -10t-14 -2t-14 -3t-6 -15l-12 8v84q-8 -16 -13 -36t-3 -42 q-2 14 -9 21t-13 15t-8 17t4 25l-20 -20q-6 10 -16 16t-19 13t-15 18t-4 29h-4h-8l-8 -8l-4 -6l-2 6q-4 88 -17 199t-30 232t-36 248t-35 250t-26 235t-10 204q0 34 8 79t16 77q22 4 34 15t21 24t19 24t30 17q24 -2 55 -4t66 -1t69 7t62 18q2 0 4 2l4 4h-46l38 28l8 -8l6 20 l88 28v18l-54 -18l-14 8q4 0 10 4t10 6l-4 10h-22v18q12 0 22 2t18 3t14 5h8h4l8 -10l-8 -10h8q16 0 39 -5t49 -5t41 -4t35 -26h128q-18 10 -51 12t-49 6l-12 10h8q76 0 162 -21t169 -58t157 -87t126 -110h8q0 -22 21 -28t37 -26q18 -22 21 -47t19 -47q0 -8 6 -16 q4 -6 8 -10q28 -34 32 -74t1 -81t-6 -77t13 -60q0 -4 9 -7t11 -7v-6q0 -32 -11 -95t-29 -140t-42 -161t-50 -159t-52 -133t-50 -84q-4 -6 -18 -21t-30 -31l-31 -31l-23 -23q-4 -4 -18 -15t-30 -25t-32 -26t-24 -16q-22 -16 -57 -43t-75 -53t-80 -45t-68 -19q-14 0 -31 15 t-25 19zM818 48q-8 0 -8 -10t8 -10q4 0 4 10t-4 10zM834 54q-8 0 -8 -10t8 -10q6 0 6 10t-6 10zM562 82q-6 0 -6 -7t6 -7q10 0 10 7t-10 7zM394 130q-10 0 -10 -9t10 -9q6 0 6 9t-6 9zM254 222q-10 0 -10 -7t10 -7q6 0 6 7t-6 7zM630 304q20 0 37 11t33 26t33 30t37 23 q8 6 29 23t45 36t45 36t29 25q4 4 12 10t8 10q30 38 62 79t70 69q6 14 17 58t24 102t25 123t22 124t16 104t6 63q0 52 -13 111t-51 99q-36 40 -89 66t-113 42t-121 23t-115 7t-86 -8t-48 -27t-20 -50t-4 -75v-12q6 -16 15 -83t20 -162t23 -204t21 -209t15 -177t6 -109l10 20 q0 -6 4 -21t4 -19v-4v-4q0 -6 -4 -21t-14 -15v-2h12q0 -6 6 -20t-8 -20v-78zM610 450q-6 0 -6 -10t6 -10q8 0 8 10t-8 10zM1510 1392q6 0 6 -10t-6 -10q-10 0 -10 10t10 10zM1424 1514q-6 2 -6 -3t6 -5q4 2 4 5t-4 3zM1376 1532q-8 0 -8 -9t8 -9t8 9t-8 9zM1386 1572 q-8 0 -8 -10t8 -10t8 10t-8 10zM720 1712q0 4 -6 4t-6 -4q8 -10 12 0zM1056 1732q-6 0 -6 -10t6 -10q10 0 10 10t-10 10zM596 1738q-6 0 -6 -10t6 -10q10 0 10 10t-10 10zM1028 1732q0 4 -5 4t-3 -4q0 -6 3 -6t5 6zM1010 1752q-8 0 -8 -10t8 -10t8 10t-8 10zM482 1810 q-10 0 -10 -10t10 -10q4 0 4 10t-4 10zM502 1798q4 0 17 5t13 15h-30v-20zM956 1786q-10 0 -10 -10t10 -10q6 0 6 10t-6 10zM936 1786v12h-28zM548 1830l48 -32l-40 40zM644 1834q-10 -6 -18 -18t-10 -18q6 0 29 2t49 5t48 8t26 13h-40q-22 0 -35 -6t-33 -6q-4 0 -12 5 t-4 15zM728 1806q-6 0 -6 -10t6 -10t6 10t-6 10zM756 1806q-6 0 -6 -10t6 -10q10 0 10 10t-10 10zM896 1806q2 0 -3 1t-11 1t-10 -1l-4 -1q4 -4 15 -4t13 4zM784 1834q-6 0 -6 -10t6 -10q10 0 10 10t-10 10zM674 1844q-10 0 -10 -9t10 -9q4 0 4 9t-4 9zM654 1862q0 4 -5 4 t-5 -4q4 -10 10 0z" />
<glyph unicode="E" horiz-adv-x="1568" d="M398 4q-4 0 -6 2q-4 0 -5 1t-5 1q-10 4 -13 15t-4 22l-2 22t-9 15q-10 8 -15 8t-10 -1t-14 3t-25 20h-6q-8 0 -10 -5l-4 -10t-8 -10t-20 -5l-4 4q-4 4 -4 6v10q0 2 -8 5t-12 5q-8 4 -16 30t-16 59t-12 63t-2 44l-46 490q0 10 -9 17t-18 15t-17 21t-8 35q0 8 3 21t7 26 t11 23t13 12v44q0 56 -5 110t-5 112q0 90 12 177t8 177q12 4 19 33t15 70t22 87t42 86t72 66t112 26q38 0 83 -10t77 -30q18 -8 25 -26t23 -18q60 0 113 19t109 25q48 6 94 9t86 19q6 0 19 1t28 1t28 1t19 1q8 0 23 -1t30 -1t27 -1t14 -1q10 0 25 -3l30 -6t26 -6t11 -5v-2 q-16 0 -36 -5t-38 -9q34 -16 70 -20t72 0q4 -10 16 -16t27 -14t32 -22t31 -40q4 6 17 -1t9 -19q-4 -2 -12 -9t-8 -11v-2v-6q0 -2 8 -11t12 -9v-2q0 -6 -27 -13t-69 -15t-92 -15t-95 -13t-79 -10t-44 -4q-102 -18 -195 -43t-201 -65q-6 -2 -24 -10t-39 -19t-39 -20t-26 -15 q-4 0 -12 -6t-8 -10v-6v-6l8 -8q-16 -10 -22 -37t-6 -37v-236q0 -2 5 -9t9 -7h6q8 0 30 4t46 8t45 8t27 6q4 0 20 4t20 4q36 6 95 16t115 19t97 16l41 7h148q4 0 15 -4t17 -8l33 -11t44 -14t44 -11t33 0l60 -58v-6h44q0 -20 8 -28t24 -12q-6 0 -17 -8t-22 -18t-19 -22 t-10 -18q-6 2 -28 2t-26 -2q-4 0 -26 -7t-32 -11q-34 -12 -76 -17t-86 -11t-85 -16t-71 -32q0 4 -4 8t-8 4h-2q-26 0 -47 -14t-43 -14q-2 0 -4 2q-4 4 -4 6q-6 -10 -18 -16t-22 -4q-8 0 -29 -7t-45 -14t-45 -15t-29 -12q-16 -4 -49 -10t-67 -16t-59 -25t-25 -39q0 -22 2 -68 t4 -96t5 -95t7 -63q4 -12 18 -12h18q70 0 139 9t137 20t136 20t138 9q76 0 136 -14t120 -44q20 -10 48 -23t32 -17l8 -14h-14q0 -26 8 -33t16 -8t14 -2t4 -15q-16 0 -42 -3t-26 -25q0 -14 11 -17t21 -3q0 -12 -12 -20l-208 -28q0 -8 -43 -13t-99 -11t-110 -13t-74 -17 q-26 -16 -63 -20t-67 -8q-12 0 -41 -4t-62 -7t-62 -6t-41 -3q-18 -6 -40 -27t-28 -31h-4q-16 0 -23 12t-19 22h-4q-20 0 -31 -26t-11 -42q-6 8 -13 11t-13 6t-11 9t-7 22v-44zM394 102q-10 0 -10 -10t10 -10q6 0 6 10t-6 10zM1438 318q0 4 -7 4t-7 -4q6 -8 14 0zM1458 334 q-10 0 -10 -8t10 -8q4 0 4 8t-4 8zM960 902q2 4 -5 4t-3 -4q0 -4 4 -4t4 4zM1212 978q-6 0 -6 -8t6 -8t6 8t-6 8zM1446 1026q4 0 9 -1t7 -1q6 0 13 1t11 9zM1440 1034v12h-14zM1354 1054q-8 0 -8 -10t8 -10q6 0 6 10t-6 10zM1392 1054q-8 0 -8 -10t8 -10q6 0 6 10t-6 10z M1466 1054q-4 0 -4 -10t4 -10q6 0 6 10t-6 10zM1406 1082q-2 4 -2 -4t2 -4q8 0 8 4t-8 4zM1392 1094q-8 0 -8 -10t8 -10q6 0 6 10t-6 10zM1440 1082q0 4 -7 4t-7 -4q6 -8 14 0zM1466 1082q0 4 -5 4t-1 -4q0 -4 3 -4t3 4zM1446 1108q-4 0 -4 -7t4 -7q10 0 10 7t-10 7z M1426 1128q-2 0 -9 -3t-11 -3v-6v-8zM1440 1108q0 6 -7 6t-7 -6q6 -4 14 0zM1382 1128q-8 0 -8 -10t8 -10t8 10t-8 10zM1372 1128q0 6 -5 6t-5 -6q2 -4 6 -4t4 4zM1354 1138l8 10h-8v-10zM1344 1174q8 0 8 -9t-8 -9t-8 9t8 9zM1426 1756l6 6q0 10 -15 12t-21 2h-14z M1460 1768q0 4 -7 4t-7 -4t5 -4t9 4zM1362 1784q-6 0 -6 -8t6 -8q8 0 8 8t-8 8zM1420 1804q-10 0 -10 -10t10 -10q4 0 4 10t-4 10zM1294 1862q0 -14 14 -21t34 -11t40 -5t30 -1q0 14 -14 22t-33 11t-39 4t-32 1zM1184 1888h20q-2 0 -5 5t-5 5l-4 4l-6 -4v-10z" />
<glyph unicode="F" horiz-adv-x="1592" d="M554 20h-20v22q-4 0 -13 3t-13 3t-12 -8q-4 -4 -8 -6q-4 4 -16 17t-12 17q-2 0 -19 1t-19 5q-10 6 -18 49t-16 106t-16 136t-17 140t-21 118t-26 71q-10 14 -18 20t-16 9t-17 6t-23 13q-4 0 -12 8l-8 8q-2 2 -10 9t-17 15t-17 14t-10 8q4 6 9 19t5 19q4 8 7 35t7 33 q4 4 27 14t27 14q10 4 11 18t1 24q0 54 -6 108t-12 109t-11 110t-3 111q-10 6 -14 26h-48l8 8q-6 2 -16 11t-20 20t-17 22t-3 15q-2 -4 -9 -6t-11 -2q-10 0 -27 16t-17 26q0 12 14 17t20 13q-10 4 -19 11t-9 17h36q0 22 13 35t32 20t40 11t39 10q8 2 30 9t46 15t44 14t28 8 h12q84 22 193 54t223 62t223 52t195 22q18 0 27 -8t18 -17t25 -17t50 -8q0 -10 13 -22t21 -12h8l18 8h6h4q-4 -4 -7 -14t-3 -14q0 -8 10 -8l8 4q8 4 12 4h24q22 0 40 -14t40 -14h8q0 4 5 10t5 10q14 -6 16 -14t2 -18q0 -8 -1 -15t-9 -11l-8 10l-10 -20q-2 10 -10 12t-12 2 q-2 0 -4 -1t-6 -1q-4 -2 -6 -2q2 0 7 -6t5 -10q-16 0 -39 -2t-27 -18q14 2 26 0q10 -2 19 -5t9 -11v-2q-4 -2 -17 -5t-27 -6t-26 -6t-18 -3q-18 -4 -77 -17t-137 -30t-167 -38t-166 -42t-133 -42t-70 -39l10 -8q28 10 57 11t57 -3q2 16 18 24t28 8v-10q6 0 22 10t24 16v-20 q26 10 50 25t58 15h16q-4 -14 -11 -17t-16 -2t-18 4t-17 3l-4 -8q-4 -8 2 -8q2 -4 13 -8t15 -4q-22 -8 -73 -17t-103 -23t-92 -31t-42 -39q0 -6 -1 -20t-1 -29t-1 -29t-1 -20q0 -8 1 -23t1 -30t1 -27l1 -12q0 -20 2 -62t14 -68l6 -6q2 -2 4 -6l196 46q12 10 61 21t106 20 t107 14t66 5q30 0 73 1t69 -21q2 -4 13 -15t15 -11q2 -4 18 -2t20 2l6 -20q4 0 11 -3t9 -3v-24l8 2q6 -2 17 -13l15 -15v-8q0 -36 -28 -63t-63 -46t-66 -33t-35 -22l-550 -160q-10 -2 -11 -7t-1 -11q0 -70 18 -140t22 -138v-144q0 -2 2 -12t5 -21t7 -20t6 -9v-26 q0 -44 -10 -85t-10 -83q-6 0 -23 4t-34 11t-27 17t-4 22l-18 -14l-10 20q-10 -2 -9 -14t1 -25t-8 -24t-34 -11q-20 0 -30 14t-20 34v-28zM722 48q-10 0 -10 -10t10 -10q6 0 6 10t-6 10zM674 82q-8 0 -8 -7t8 -7q6 0 6 7t-6 7zM654 120q4 -2 15 -13t13 -15v10q0 12 -3 19 t-15 19q-4 0 -7 -8t-3 -12zM1388 938q8 0 8 -10t-8 -10q-6 0 -6 10t6 10zM682 1444q10 0 10 -10t-10 -10q-6 0 -6 10t6 10zM188 1464q-10 0 -10 -10t10 -10q4 0 4 10t-4 10zM682 1452q4 6 -3 6t-5 -6q0 -2 4 -2t4 2zM742 1464q6 0 6 -10t-6 -10q-10 0 -10 10t10 10z M710 1472q-6 0 -6 -10t6 -10q10 0 10 10t-10 10zM910 1512q-10 0 -10 -10t10 -10q6 0 6 10t-6 10zM978 1540q4 0 4 -10t-4 -10q-10 0 -10 10t10 10zM1098 1558q12 8 18 16t13 13t18 8t35 3l18 -6q-10 0 -23 -6t-13 -18q0 -10 8 -10h-35t-33 -10h14zM102 1592q-4 4 -4 -2 t4 -6q6 0 6 4t-6 4zM1090 1640q-10 0 -10 -8t10 -8q6 0 6 8t-6 8zM1472 1772h12v8h-12v-8zM1360 1792q2 -10 7 -11t13 -1h8q8 4 33 7t31 5q-8 4 -36 6t-36 2q-4 0 -11 -2t-9 -6zM1230 1904q-6 0 -6 -5t6 -5q6 6 0 10z" />
<glyph unicode="G" horiz-adv-x="1632" d="M1212 -276q-72 -6 -106 -1t-49 28t-19 66t-14 109q-6 28 -11 57t-9 55h-2h-8q-8 0 -38 -5t-64 -11t-62 -11t-30 -7q-8 0 -29 -3t-31 -3q-80 0 -174 24t-162 76q-10 6 -26 21t-33 30t-34 24t-29 5q-74 62 -122 146t-77 179t-41 194t-12 189q0 104 13 199t51 195 q26 68 72 145t108 152t135 144t151 122t159 84t157 31q42 0 77 -18t61 -39t40 -38t16 -17h4q4 0 14 4t12 6v-10l-34 -20q0 -60 -18 -93t-47 -54t-66 -36t-77 -39q-50 -34 -103 -84t-101 -110t-87 -123t-63 -119q0 -6 -5 -23t-11 -37t-11 -37t-7 -25q-4 -10 -3 -16t1 -11 t-1 -10t-7 -13v-70q0 -150 29 -275t111 -253q28 -46 65 -75t95 -29q32 0 54 8t41 20t39 24t46 20q2 4 18 2t18 -2q18 4 25 22t10 40t2 42t-1 28q4 60 16 122t24 114q0 4 -4 6t-8 6h-4q-24 0 -47 -6t-45 -14t-45 -14t-49 -6h-20h-32t-34 2t-24 6q-2 2 -12 11t-22 21t-21 22 t-9 12q-22 16 -41 33t-35 35q2 0 10 14t18 31t20 33t16 22q66 16 129 31t127 29q78 14 159 22t161 30h194q14 0 20 -6q30 -16 48 -29t29 -28t15 -36t4 -55q0 -72 -14 -149t-31 -155t-33 -156t-18 -152v-276q-4 -64 -4 -140t-16 -140q-4 -12 -12 -21t-18 -16t-19 -16t-15 -21 q0 10 -5 11t-13 1h-10q0 -4 -9 -8t-11 -4l-4 4q-4 4 -4 8l-8 14q-4 4 -6 0t-6 -4v-16q-6 0 -15 2t-13 12q0 -4 -3 -14t-3 -14l-4 -4q-2 -2 -4 -2l-6 6q0 42 -34 68zM1342 -296q-6 0 -6 -10t6 -10q8 0 8 10t-8 10zM1286 -270q-10 0 -10 -10t10 -10q6 0 6 10t-6 10zM1220 -252 q-6 0 -6 -9t6 -9q4 0 4 9t-4 9zM994 86q-6 0 -6 -8t6 -8q8 0 8 8t-8 8z" />
<glyph unicode="H" horiz-adv-x="2008" d="M294 720q-10 0 -39 -1t-37 -1q-6 0 -19 2t-27 5t-26 7t-16 6q4 6 -2 12t-15 11l-18 10t-11 11q2 8 4 14q4 12 4 14v6v2q-4 10 -16 19t-12 21q0 4 14 12q6 4 14 8l-28 20q8 0 13 12t9 25t10 24t18 11t20 -5t16 -5t31 5t48 12t46 15t25 14v86q8 154 12 307t26 303 q6 10 15 26t22 32t27 30t30 18q8 0 24 4t34 8t33 9l21 7h14q48 0 90 -14t73 -41t50 -65t19 -88q0 -126 -4 -253t-4 -253q26 0 68 4t87 11t86 15t65 14q0 4 2 10t2 10q0 56 -8 112t-18 111l-20 110t-14 109q-2 38 -10 91t-8 89t8 53t19 25t19 16t8 26q30 6 61 13t61 7 q10 0 33 -9t45 -22t37 -30t9 -35q14 0 18 6t6 14t5 14t15 6q10 0 20 -3t22 -17q0 -2 4 -13t4 -17q40 -152 63 -313t39 -317q6 -26 31 -24t47 -2q8 -2 31 -6t49 -8t48 -8t32 -6q30 -22 73 -35t83 -23q-4 -10 -6 -9t-8 1v-6q18 -10 38 -20t42 -20l-8 -8v-8v-4l8 -8 q2 -18 -5 -28t-19 -14t-26 -3t-22 5q12 -6 24 -14t20 -22q-22 -10 -38 -14t-26 -30q-24 6 -42 7t-35 0t-37 -1t-46 2q-34 2 -64 11t-62 9q-16 0 -25 -2t-27 -12l10 -14q-2 -60 -2 -133t1 -149t2 -149t1 -129v-26t-1 -39t-1 -39v-26q-4 -16 -7 -31t-11 -31l-10 8 q-10 -14 -32 -29t-49 -28t-53 -21t-44 -8q-4 0 -10 6q-4 2 -8 6q-2 0 -5 -2t-7 -4q-4 -4 -8 -6h-24q-20 0 -43 7t-23 25q-26 0 -41 13t-24 31t-15 39t-16 37q-4 0 -12 8t-8 12v8q0 16 21 40t25 46v96q0 38 2 101t2 130t-5 128t-17 97h-20q-36 0 -81 -9t-79 -19q-8 -2 -30 -7 t-48 -11t-49 -12t-33 -10q-6 0 -18 -4q-6 -2 -10 -4q0 -2 -4 -13t-4 -15q-12 -60 -18 -136t-8 -156t-2 -157v-139q4 0 10 -2t10 2q2 0 17 7t19 7v-10v-8q0 -2 2 -4q0 -22 -11 -34t-11 -34q0 -2 1 -16t11 -14q2 0 9 4t11 8q-10 -18 0 -32q4 0 8 -2q8 -4 10 -6v-4v-2 q-14 -28 -27 -60t-31 -59t-42 -46t-60 -23q-4 -4 -20 2t-18 6q-10 0 -11 -12t3 -16q-10 14 -27 19t-36 5t-38 -1t-33 5q-58 16 -94 54t-57 89t-28 109t-9 114q0 14 1 51t2 86t3 104t3 103t2 85t1 51zM704 -72q-2 2 -2 -5t2 -3q6 0 6 4t-6 4zM724 -72q-6 0 -6 -7t6 -7t6 7 t-6 7zM1440 146q-10 0 -10 -10t10 -10q4 0 4 10t-4 10zM1474 180q0 6 -6 2t-2 -8t8 0t0 6zM1440 180h6v14h-6v-14zM1362 228q-6 0 -6 -10t6 -10q8 0 8 10t-8 10zM1440 228q-10 0 -10 -10t10 -10q4 0 4 10t-4 10zM102 906l10 6l-10 14v-20zM92 942q-6 0 -6 -8t6 -8q8 0 8 8 t-8 8zM1934 1018q-8 0 -8 -10t8 -10q6 0 6 10t-6 10zM1904 1026q-4 0 -4 -10t4 -10q8 0 8 10t-8 10zM1858 1046q-6 0 -6 -10t6 -10q10 0 10 10t-10 10z" />
<glyph unicode="I" horiz-adv-x="730" d="M390 58q-58 0 -89 31t-59 85q-24 80 -47 187t-45 229t-41 251t-33 251t-22 232t-8 192q0 52 5 98t15 106q6 52 18 90t34 62t57 35t87 11q6 0 28 -1t26 -1q16 -14 24 -12t32 -6q64 -28 89 -59t25 -101q0 -54 -10 -107t-10 -111q0 -38 2 -102t6 -142t10 -161t13 -161 t15 -142t18 -102v40l12 -8q0 -2 5 -18t11 -39t13 -46t11 -37q0 -8 4 -26t4 -22v-12v-8l-20 36l-8 -16l48 -152l8 -8v4v4q0 16 -10 46t-10 46h12q8 -24 16 -46l12 -40t10 -34l6 -24t8 -34t8 -33t4 -21v-8v-12l-10 12q-4 18 -10 36q-4 16 -9 32t-7 26q-4 10 -1 16t-7 10v-22 q0 -46 12 -93t12 -95q0 -22 -4 -49t-15 -49t-27 -37t-40 -15q-26 0 -54 20q6 -12 -4 -19t-25 -10t-31 -4t-24 -1q-30 0 -35 20t-5 38zM422 28q-10 0 -10 -10t10 -10q6 0 6 10t-6 10zM554 610q-4 0 -4 -6t4 -2q4 0 4 4t-4 4zM542 630h12l-12 18v-18zM534 702q-2 2 -3 -2 t-1 -10t1 -11t3 -5q4 4 4 15t-4 13z" />
<glyph unicode="J" horiz-adv-x="1376" d="M654 20q0 4 -13 7t-28 4t-28 2t-15 1q-4 2 -15 3t-23 1t-22 -1t-16 -3q0 6 -13 12t-29 12t-31 10t-19 6q-6 2 -19 6t-28 8t-29 8t-18 6v10q-4 2 -15 7t-23 11l-22 11l-14 7q-16 8 -35 18t-37 20t-32 19t-20 17q2 0 6 4t4 8q0 16 -9 30t-21 27t-23 27t-13 30l8 14 q0 16 -11 42t-17 46q0 2 -3 5t-3 5h34q0 22 -4 40t-4 40q0 6 3 25l6 38t7 34t8 15q0 -32 -1 -61t15 -57q4 -10 8 -11t12 -1q20 0 18 32h-6h-4q-2 -4 -5 -12t-5 -8l-4 8q-4 8 -4 12v4q0 20 5 35t3 37q16 0 18 -6t2 -14v-8q0 -8 -5 -20t-5 -14h28v-76q20 0 32 -1t8 -31l6 8v86 h24q0 4 -3 18t7 18l-8 12h8h12l56 -32q2 -4 4 -21t4 -35t7 -32t15 -14h8l6 10l6 2q16 0 20 -20t14 -30q52 -58 116 -90t140 -32t128 31t84 82t46 113t14 126q0 10 -2 41t-2 41q-8 16 -18 46t-10 52v2q0 4 5 11t5 9q0 4 -9 15t-9 13q-4 8 -9 27t-10 40t-8 39t-3 26q0 14 5 18 t5 14q-28 76 -55 149t-47 147t-28 153t2 167q2 28 15 68t33 78t45 69t55 41q4 0 24 -2t24 2q4 0 20 7t20 7h4q2 0 3 1t3 1q18 0 31 -8t13 -28q12 8 27 7t29 -1q12 0 32 -7t38 -19t31 -27t13 -29q0 -2 -1 -4t-1 -4v-4q0 -6 -4 -23t-4 -23l8 -10v-2q0 -38 -13 -60t-35 -50 q-24 -104 -5 -210t52 -212t65 -214t36 -216q12 -14 18 -35t7 -43t1 -44v-38q0 -116 -33 -231t-99 -207t-163 -149t-225 -57v14h-76l-4 -4q-2 -2 -4 -2t-2 -2h-4h-6q-6 0 -23 4t-21 4zM674 28q-8 0 -8 -10t8 -10q6 0 6 10t-6 10zM730 28q4 2 -8 2t-12 -2q4 -4 11 -4t9 4z M992 82q0 6 -6 1t-2 -9t7 0t1 8zM354 112q-10 0 -10 -10t10 -10q6 0 6 10t-6 10zM174 402q-2 2 -2 -5t2 -3q6 0 6 4t-6 4zM62 422q-6 0 -6 -10t6 -10q10 0 10 10t-10 10zM188 422h6l-6 8v-8zM74 450q-10 0 -10 -10t10 -10q6 0 6 10t-6 10zM328 450h6v10zM168 478q-6 2 -6 -6 t6 -4q4 0 4 5t-4 5zM110 508q2 4 -5 4t-3 -4q0 -6 4 -6t4 6z" />
<glyph unicode="K" horiz-adv-x="1688" d="M400 -226q-16 0 -23 -12t-27 -12q0 8 -4 14t-10 16l-20 -14q-2 2 -2 4l-4 4l-12 -4q-12 -4 -16 -4q-2 -4 -9 -8t-11 -4q-8 0 -16 8t-2 18l-54 58q2 24 -4 52t-10 50q0 16 -4 76t-8 128t-8 128t-6 76q0 6 -1 17t-3 21l-4 24h-22q0 38 7 72t7 72q0 148 -8 292t-19 288 t-19 289t-8 293q0 66 20 110t56 70t84 37t106 11q28 0 70 -17t56 -37q30 -42 43 -113t17 -151t4 -159t6 -135q4 -34 0 -88t-8 -111t-3 -110t13 -85h6q8 0 20 21t27 52t31 66t29 64t23 46t14 13l196 292q8 18 20 38t26 41t25 42t17 39q4 16 8 39t10 46t17 44t29 31l8 -20 q2 2 22 14t44 26t45 25t27 11q16 0 34 -5t28 -23l14 40q16 -6 12 -12t-4 -14l12 -6q4 4 9 15t5 17q2 -4 8 -10t6 -10q0 -2 -8 -16t-17 -32t-16 -36t-7 -28v-8q10 4 16 14t10 21t9 21t13 16v-2v-8q0 -4 -2 -14t-6 -14q14 12 30 39t40 27h6q2 -2 5 -17t5 -21q2 -10 6 -16 t9 -10t9 -10t4 -16q0 -24 -9 -47t-20 -44t-20 -42t-9 -43q0 -4 1 -13t9 -13q-30 -10 -52 -45t-38 -79t-26 -88t-16 -72q0 -2 -12 -17t-27 -32t-29 -33t-16 -18q-2 -4 -8 -20t-8 -20q-10 -10 -23 -32t-26 -49t-23 -55t-14 -50h4h4q4 2 16 9t16 9v-2q0 -6 -19 -34t-48 -68 t-63 -85t-63 -84t-51 -66t-24 -29q8 -10 29 -16t31 -8q10 -4 37 -12t57 -17t57 -18t37 -13q16 4 22 0t26 -8q90 -24 166 -48t160 -72q6 0 17 -4t24 -9t25 -10t20 -5v-10v-2q-2 0 -6 -4l-4 -4q0 -4 4 -12t6 -8l82 -68q6 -4 9 -16t3 -18h-6q0 -16 3 -28t3 -28l-16 -13t-36 -30 t-39 -32t-23 -21q-4 -8 -10 -8q-4 0 -18 4t-18 4h-16h-10q-4 0 -12 -4l-8 -4q-4 0 -7 4t-7 4h-6q-10 0 -15 -2t-5 -16q-4 12 -21 18t-38 10t-42 7t-33 9q-140 78 -284 118t-306 82q-4 0 -21 4t-23 4h-26q0 -90 13 -174t13 -174v-54q-8 -26 -15 -34t-16 -10t-18 -2t-19 -12 q-16 -16 -24 -31t-18 -26t-25 -18t-45 -7h-8q-4 0 -11 12t-9 16h-4zM396 -200q-10 0 -10 -10t10 -10q6 0 6 10t-6 10zM800 598q2 2 8 9t8 9v10v2zM836 648h8l56 76v6zM816 664q-8 0 -8 -8t8 -8q6 0 6 8t-6 8zM920 750q4 0 6 4t6 4v8v2zM950 796q-8 0 -8 -10t8 -10t8 10 t-8 10zM996 850q-16 -2 -26 -13t-10 -23v-10l44 46h-2h-6zM1044 928q-10 0 -10 -9t10 -9q6 0 6 9t-6 9zM1202 1250l8 8h-8v-8zM1230 1284q0 6 -6 6t-6 -6q8 -4 12 0zM984 1680q-4 0 -4 -10t4 -10q8 0 8 10t-8 10zM1004 1728q-8 0 -8 -10t8 -10t8 10t-8 10zM1210 1740 q-6 0 -6 -10t6 -10t6 10t-6 10zM1022 1764q-6 0 -6 -8t6 -8t6 8t-6 8zM1264 1832q-4 0 -4 -10t4 -10q10 0 10 10t-10 10z" />
<glyph unicode="L" d="M32 1698q-16 52 12 93t74 69t101 42t97 14q28 0 66 -5t60 -33q32 -40 34 -94t10 -106q6 -32 15 -94t17 -138t16 -160t15 -161t12 -140t9 -95q2 -14 3 -58t3 -101t6 -121t10 -118t17 -91t29 -39q14 0 26 6t23 13t21 14t22 7h12l-12 -20h12h8l12 12q6 4 37 12t75 17t94 18 t92 18t71 15t31 8q22 10 55 22t55 12h4q4 -2 7 -8t3 -8q-4 -8 -6 -14q-2 -4 -2 -10q0 -2 -2 -4v-6v-2l58 26v-26q22 0 36 15t40 15v-12l-76 -66q4 -10 0 -20t-12 -20q16 10 33 18t35 10l4 -8q0 -2 -1 -4t-1 -4q-2 -2 -2 -4l-28 -14q-2 -4 -5 -16t-7 -14q-10 -28 -48 -59 t-109 -66t-178 -75t-253 -86h-18v38q-4 -2 -13 -12t-9 -12q0 -4 3 -12t5 -8q-32 -14 -74 -23t-74 -25v20h-28v-26q-24 0 -42 2t-33 7t-30 11l-35 14q-22 8 -56 17t-68 21t-62 25t-40 29q-30 38 -43 89t-18 106t-5 109t-2 98q0 10 -1 41t-3 71t-4 86t-4 87t-4 71t-2 40 q0 6 -5 65t-13 144t-17 183t-18 182t-18 140t-13 58zM514 34q-4 0 -4 -7t4 -7q6 0 6 7t-6 7zM702 74q-6 0 -6 -10t6 -10q10 0 10 10t-10 10zM762 82q-10 0 -10 -7t10 -7q6 0 6 7t-6 7zM1270 284q-8 0 -8 -6t8 -2q2 0 2 4t-2 4zM1296 302l8 10h-8v-10zM1322 340q-6 0 -6 -9 t6 -9q10 0 10 9t-10 9zM1342 356q-6 0 -6 -8t6 -8t6 8t-6 8zM1304 464q-6 0 -6 -10t6 -10q8 0 8 10t-8 10z" />
<glyph unicode="M" horiz-adv-x="2488" d="M390 40l-4 -4q-2 -2 -4 -2l-14 -6h-8q-30 0 -49 21t-29 51t-15 62t-5 52q-4 96 -18 201t-10 203l-94 686q4 34 -6 72t-14 68l-8 8q-6 6 -29 21t-29 19q6 0 17 11t11 17q2 2 -1 20t-7 28l-4 8q-2 4 -2 8l-6 6l6 8t13 18t13 20t8 16q6 20 8 42l4 44t7 43t19 39q36 56 98 84 t124 28q20 0 29 -15t27 -15q10 0 19 11t23 11h8q0 -2 4 -10q2 -4 6 -10q4 -2 23 -4t21 -6q4 0 6 -11t6 -15q8 -34 14 -61t10 -54t5 -56t-1 -65q4 -6 18 -24t22 -24q34 -38 75 -78t83 -83t82 -88t76 -91q88 -106 172 -215t188 -205h2q12 0 29 21t34 54t35 73t32 75t25 62 t17 35q10 12 22 13t18 15q14 30 37 87t44 121t36 122t15 90h-8v28h18q0 4 1 16t1 14l-8 18q0 2 3 6t5 4l8 -10q10 2 11 9t1 13q0 10 -1 16t-11 6q28 36 35 63t14 48t22 40t61 37q14 8 42 18t34 14h12q22 0 39 -10t39 -10q10 0 18 2t4 18q0 -4 4 -8t8 -4q6 0 28 -1t28 -1v-36 q22 0 45 -4t39 -30q10 -22 17 -51t12 -61t9 -62t10 -54q8 -40 16 -98t17 -120t18 -121t19 -99q34 -132 52 -267t34 -267q10 -82 34 -168t48 -162q2 -10 5 -31l6 -42t7 -38t10 -19q-4 -4 -18 -12t-18 -8q-16 -6 -29 -5t-17 -15q-4 -4 -10 -20t-10 -16q-12 -8 -22 -9t-20 -1 t-18 -5t-14 -23q-10 6 -12 17t-12 11q-12 0 -12 -10t-16 -10q-32 0 -52 23t-48 35q-6 2 -20 -12q-8 -8 -14 -16q-2 -2 -4 -2h-6l-4 2q0 4 -8 18t-12 18q0 4 -11 10t-15 10q-6 10 -14 42t-17 74t-17 89t-14 89t-10 71t-4 37l-52 312q4 30 -3 58t-16 55l-18 54t-9 55h-14 l-12 -32q-4 -14 -8 -27t-8 -23q-6 -22 -6 -42t-14 -30q-4 -4 -9 -12t-11 -16q-8 -8 -14 -20q-4 -4 -2 -6t2 -6h12q0 -22 -17 -33t-25 -33q-6 -16 -7 -37t-9 -37q-110 -162 -274 -242l-14 -14q20 -10 40 -13t40 -3v-14q-50 0 -95 14t-91 16q-94 6 -166 30t-133 64t-116 98 t-113 132q-30 34 -59 75t-63 71q0 -4 -2 -13t-2 -13q0 -86 9 -172t20 -173t20 -174t9 -175v-2q-4 -20 -9 -47t-9 -55q-6 -32 -10 -66h-26v18q-4 0 -6 -4t-4 -6q-10 -18 -21 -27t-21 -17t-21 -16t-21 -22q-4 0 -14 1t-21 3t-20 3t-11 1q-4 0 -12 -4l-8 -4q-28 0 -43 9t-31 25 zM534 28q-10 0 -10 -10t10 -10q6 0 6 10t-6 10zM2068 148q-10 0 -10 -9t10 -9q4 0 4 9t-4 9zM1718 930q-4 -4 -11 -10t-7 -10v-6v-2q6 2 10 10t8 18zM1694 1140q0 -24 -8 -47t-19 -46t-19 -46t-8 -49v-34q2 8 8 23t15 30t20 26t25 15q0 2 -4 5t-4 5v6v2q2 4 13 16t15 12v10 v2l-10 8q0 4 5 6t5 6q2 -2 4 -2q4 0 6 2q20 22 41 67t21 77v37t-2 56t-7 51t-15 22q-2 0 -8 -1t-10 -1l-56 -198v38q-12 -4 -15 -11t-4 -16t-2 -17t-9 -12q8 -2 8 -18q0 -18 -14 -20t-14 -20v-6q16 2 24 12t18 10zM1764 964q-8 0 -8 -7t8 -7q6 0 6 7t-6 7zM1744 994 q-6 -6 -6 -10h4h2l4 4l6 6h-4h-6zM1772 1022q-2 0 -2 -5t2 -5q6 2 6 5t-6 5zM1764 1050q-8 0 -8 -10t8 -10q6 0 6 10t-6 10zM1632 1070v-2v-10q8 6 8 12l4 4l-4 4zM1792 1090q0 2 -6 2t-2 -2q0 -6 4 -6t4 6zM1812 1144q-4 4 -9 -1t-3 -5q6 -4 9 -1t3 7zM1530 1238 q-8 0 -8 -10t8 -10t8 10t-8 10zM1722 1384v14h-10zM1732 1424q-8 0 -8 -10t8 -10t8 10t-8 10zM1776 1444q-8 -4 -8 -20v-12zM1788 1444q-10 0 -10 -10t10 -10q6 0 6 10t-6 10zM1748 1452q0 6 -5 6t-1 -6q0 -4 3 -4t3 4zM1644 1480q-6 0 -6 -10t6 -10q10 0 10 10t-10 10z M1748 1500q-4 0 -4 -10t4 -10q8 0 8 10t-8 10zM112 1484q-8 0 -8 -10t8 -10q6 0 6 10t-6 10zM1684 1724q-6 0 -6 -10t6 -10q10 0 10 10t-10 10zM1676 1732q-10 0 -10 -10t10 -10q6 0 6 10t-6 10z" />
<glyph unicode="N" horiz-adv-x="1846" d="M288 100q0 -4 3 -16t3 -14t-6 -8q-2 -2 -4 -2h-2q-4 0 -6 2h-2q2 4 -2 10t-4 10q-4 8 -10 8l-18 -2q-2 0 -6 4l-4 4q-4 4 -12 6t-10 2q0 6 -4 24t-10 39t-12 41t-8 32q-8 84 -13 200t-6 237t2 237t13 202q8 84 26 168t26 170q0 8 1 17t3 19t2 22l-202 270q-14 16 -14 41 t2 47q18 -4 23 5t11 20t21 18t57 1q4 26 23 24t49 -6q10 -2 16 -10t16 -10q6 -4 29 -6t29 -4q42 -12 77 -41t65 -66t57 -75t51 -66l16 -16l10 -10q2 0 11 1t9 3v-6q10 -14 35 -48t52 -71t52 -71t35 -48q6 -10 16 -26t8 -18l-8 -6q-2 0 5 -12t9 -18q0 -2 5 -9t11 -14l12 -14 t8 -9q4 -4 13 -18t19 -29t20 -29t14 -20q-4 -4 8 -18t28 -32t30 -37t16 -31q30 -38 65 -91t70 -108t71 -106t70 -83q0 4 4 7t8 1h2q12 -2 20 -9t14 -15t13 -14t17 -8q18 -4 38 12t37 39t28 47t13 36q4 46 0 119t-15 158t-25 178t-30 178t-31 157t-25 116q-10 28 -31 61 t-17 63q2 2 6 8t6 8l-28 4q-4 22 -20 42t-16 26l20 -2q4 22 3 37t-11 33h4l4 -2q6 0 16 -10t12 -14l34 56q16 -10 31 -25t17 -31q10 8 22 4q26 -4 16 -32l22 6q-4 -8 -2 -23t14 -17h8h4q0 6 6 27t8 27v8v4q-4 6 -8 10l-10 10v8q0 2 2 4q68 -12 118 -61t81 -115t44 -138 t7 -132q12 -2 19 -15t11 -30t6 -35t4 -28q0 -4 5 -38t13 -84t18 -108t18 -108t14 -86t8 -40l8 -8q-16 -18 -20 -28t-6 -32l-2 -12q0 -2 4 -10q2 -4 6 -10q0 -4 1 -21t2 -37t2 -37t3 -21q0 -6 2 -10q0 -8 4 -12l6 -10v-2q-2 -20 -6 -32t-6 -28l22 -4q-14 -132 -78 -227 t-166 -165q-14 -4 -41 -13t-39 -7l-8 8q4 -2 15 3t15 7q0 4 -3 11t-3 9q-22 4 -43 2t-41 -6t-41 -6t-45 2q-84 14 -157 62t-139 117t-125 152t-115 167t-110 162t-108 138q-2 -6 -4 -24t-5 -39t-5 -39t-2 -26v-35t1 -64t2 -76t2 -74t2 -58t1 -25v-90v-137t1 -138t3 -91 q0 -2 -1 -3t-1 -5v-6q-4 -22 -23 -39t-33 -33q-22 6 -28 34q-20 -18 -46 -20t-52 -14v8h-2q-4 0 -6 2q-4 0 -13 8t-13 8q-10 2 -29 -2t-29 -8l10 -2q0 4 -2 26t-18 26h-4zM260 124q-4 2 -4 -5t4 -9q12 6 0 14zM206 148q-4 0 -5 -7t3 -7q6 -2 7 5t-5 9zM436 122q-10 2 -11 -7 t9 -11q6 -2 7 7t-5 11zM426 152q-6 0 -7 -9t5 -9q10 -2 11 7t-9 11zM466 136v8l-12 2zM1258 658q-8 2 -9 -6t7 -10q6 0 7 8t-5 8zM1798 688q-6 2 -7 -8t5 -12q4 -2 5 8t-3 12zM1772 924q-6 0 -7 -10t5 -10q6 -2 7 8t-5 12zM1774 938q-6 0 -7 -7t5 -7q6 -2 7 5t-5 9z M1770 972q-6 2 -8 -11t6 -9q2 2 2 9v11zM1676 1002q-8 2 -8 -5t8 -9q4 -2 4 5t-4 9zM764 1360q-6 0 -7 -10t5 -10q10 -2 11 8t-9 12zM1758 988l12 -2q0 2 -5 31t-12 72t-17 92t-18 91t-15 70t-9 30zM756 1368q-8 2 -9 -8t7 -12q6 0 7 10t-5 10zM740 1372l6 -2l-4 12z M1688 1384l8 8l-6 10zM734 1400q-8 2 -9 -7t7 -11q8 0 9 9t-7 9zM724 1412q-6 2 -7 -7t5 -11q8 -2 9 7t-7 11zM716 1414l2 8l-12 2zM1680 1422l12 -2l-12 14v-12zM692 1446v-4q0 -6 6 -6l2 4v4q0 2 -4 6q-2 2 -4 2l-4 -2zM1684 1462q-6 0 -7 -10t5 -10q10 -2 11 8t-9 12z M682 1474q-6 2 -7 -8t5 -12q10 -2 11 8t-9 12zM664 1492q-2 0 -3 -7t1 -7q10 4 2 14zM1546 1504q-6 2 -7 -8t5 -12q10 -2 11 8t-9 12zM638 1530q-6 0 -7 -10t5 -10q10 -2 11 8t-9 12zM632 1542q-10 2 -11 -8t9 -12q6 0 7 10t-5 10zM1654 1542q-8 0 -9 -10t7 -10q6 -2 7 8 t-5 12zM1286 1850q-8 2 -9 -8t7 -12t9 8t-7 12zM1436 1826q-6 2 -7 -8t5 -12q8 -2 9 8t-7 12zM1428 1834q-10 2 -11 -6t9 -10q6 -2 7 6t-5 10zM1290 1896q-8 2 -9 -8t7 -12t9 8t-7 12zM202 1916q0 4 -5 5t-1 -5q0 -4 3 -4t3 4zM1274 1914q-8 2 -9 -6t7 -10q6 0 7 8t-5 8z M1472 1916q-6 0 -7 -10t5 -10q8 -2 9 8t-7 12zM1306 1950q-8 2 -9 -8t7 -12t9 8t-7 12zM1466 1932q-8 2 -9 -6t7 -10q6 0 7 8t-5 8z" />
<glyph unicode="O" d="M1332 768l5 -8t11 -20t10 -28t-2 -32v-2l-5 -11q-5 -11 -10 -25t-10 -26t-7 -18q-2 -2 -6 -2v-10q-6 -10 -12 -21t-12 -23v-30q4 8 8 15t10 15v-2l-4 -14l2 4q-4 -8 -4 -14q-4 -10 -7 -19t-5 -19l22 -12h-8q-2 -32 -44 -100t-105 -140t-135 -129t-134 -67h40l-12 -10 q-26 -2 -50 -4q-22 -2 -43 -4t-35 -4h-12l-12 -4q-12 -4 -16 -4h-8q-4 0 -16 4l-12 4q-4 0 -16 -4t-16 -4h-8q-16 0 -58 11t-90 28t-89 34t-55 29q-8 6 -27 26t-42 43l-43 43l-28 28q-10 36 -38 68t-44 64q-44 90 -75 185t-31 199q0 90 10 200t33 224t60 226t93 206t132 163 t176 99q58 16 123 18t125 2h100q4 0 16 -1t25 -2t26 -3t19 -2q2 0 11 -3t21 -6t24 -7t18 -4q16 -4 47 -14t39 -26h-40q142 -120 208 -288t66 -352l20 -108q-4 -4 -16 -9t-12 -11l-6 -280q-10 -6 -6 -17t10 -21t10 -20t-4 -14h20q-4 -16 -19 -21t-23 -15q4 14 6 23t-2 5z M1042 554q2 2 5 6t9 10q2 46 9 78t19 32l4 -2v4q-2 16 -2 30t4 18q0 10 2 22t12 18l-6 8q8 2 12 46t6 98t2 101v55q0 6 -3 20t-3 20q-10 -22 -15 -29t-25 -7q0 2 1 19t0 36t-4 35t-11 20q6 4 13 12t7 14q0 4 -1 15t-4 22t-7 20t-8 11v84q-22 10 -27 42t-13 54q-4 12 -17 28 t-26 31t-24 27t-11 16h6v16q-2 -4 -9 -5t-11 -1l-8 8h-20q-30 0 -43 -24t-21 -53t-18 -55t-36 -32q-6 0 -19 5t-28 12t-26 14t-11 9l-50 -42h-34q0 -14 -10 -17t-18 -1q-30 -46 -51 -123t-33 -161t-17 -165t-5 -135q0 -22 9 -70t26 -107t41 -121t52 -113t59 -84t65 -33 q38 0 66 21t52 51t45 62t45 54l20 -18q14 32 25 49t29 53q4 8 8 23t9 30t10 27t11 12v-6q0 -22 -4 -42t-4 -38v-14zM1326 482q4 22 0 42t4 46q6 10 14 26t15 32t12 26t5 8q0 -18 -6 -39t-12 -44l-12 -46t-6 -43q-2 0 -6 -3t-8 -5zM1344 432q-16 -10 -19 4t1 42q12 -4 9 -11 t-3 -15q10 0 13 2t7 -12q0 -6 -8 -10zM1330 570q-2 -6 -10 -18q-8 -16 -10 -22q0 4 1 5t1 5l2 4l-2 -2q6 20 6 44l6 12q2 2 6 12t9 22t10 22l7 14q-2 -6 -5 -20t-7 -29t-8 -29t-6 -20zM1118 602h-8q0 -6 3 -20t7 -28t5 -23t-1 -3l-12 22q4 8 8 14q0 20 5 37t13 31h-10 q-2 -10 -10 -30zM1124 770q4 -6 7 -20t7 -20v48h-14v-8zM1318 1062l6 -30q0 2 4 10q2 2 4 6q0 4 -4 12t-8 8zM1358 1380q-8 0 -8 -10t8 -10t8 10t-8 10zM1368 1306q-8 0 -8 -10t8 -10t8 10t-8 10zM1362 808q-8 0 -8 -10t8 -10t8 10t-8 10zM1352 788q-6 0 -6 -10t6 -10 q8 0 8 10t-8 10zM1190 1258q-8 0 -8 -10t8 -10q6 0 6 10t-6 10zM1360 1096q-8 0 -8 -8t8 -8q6 0 6 8t-6 8zM1180 1152q-8 0 -8 -7t8 -7t8 7t-8 7zM1152 1030q-4 2 -4 -30t2 -71t5 -72t7 -33h2q2 2 1 34t-4 70t-5 70t-4 32zM1086 1192q-6 0 -6 -10t6 -10q4 0 4 10t-4 10z M1300 1230q4 4 -7 4t-7 -4q0 -6 7 -6t7 6zM694 20q0 2 -11 2t-9 -2q4 -6 11 -6t9 6zM1198 1106q-6 0 -6 -7t4 -9l6 12q0 4 -4 4zM834 28h28v6zM1170 1040q-4 0 -3 -37t3 -82t5 -83t7 -38q2 2 1 40t-3 82t-5 81t-5 37zM1378 1096q-6 4 -6 -4t6 -4q4 0 4 4t-4 4zM1112 640 q-4 0 -8 4q0 -8 2 -12q2 2 3 4t3 4zM1152 736q-4 -12 -6 -16h6v16zM1278 486q0 2 1 3t1 3h-2v-6zM1326 478l-2 2q2 0 2 2v-4zM1294 498v-2l2 4z" />
<glyph unicode="P" horiz-adv-x="1370" d="M472 28h-12v26q-22 -10 -35 -15t-35 -5q-34 0 -66 16t-56 42t-40 58t-20 64q-2 2 -3 32t-1 66v66t2 32v100q0 116 -13 233t-33 231q-4 12 -9 34t-11 46t-9 47t1 39q-22 126 -38 241t-28 239q0 4 -3 14t-3 14q-4 0 -9 4t-5 8l14 16v14v16l-14 18q0 2 5 11t9 9q14 44 18 77 t16 53t41 30t91 10q50 0 93 -20t95 -30q6 0 32 -4t34 -4q92 -10 171 -35t165 -53l-16 -8q6 -12 17 -17t24 -5h27t26 -4q72 -22 148 -70t139 -112t103 -141t40 -157v-56q-18 -32 -30 -67t-38 -65q-44 -58 -96 -101t-110 -76t-121 -57t-129 -46q-24 -8 -49 -10t-51 -3t-50 -4 t-48 -11v-28q0 -70 5 -138t5 -136q0 -6 1 -48t2 -92t2 -93t1 -49q0 -2 -3 -11t-6 -19t-5 -20t-2 -12q-4 -18 -16 -31t-24 -25t-24 -25t-16 -31q-14 4 -20 12t-9 17t-7 19t-14 20v-40zM460 174q-8 0 -8 -7t8 -7q6 0 6 7t-6 7zM782 806q-10 0 -10 -10t10 -10q6 0 6 10t-6 10z M486 1536q0 -8 4 -43t9 -84t13 -104t17 -102t17 -78t16 -31h12q6 4 23 6t25 6q8 0 29 7t45 14t45 15t29 12q18 14 48 34t57 44t47 51t20 53q0 10 -5 23t-15 17q2 0 5 4t3 6q0 28 -37 58t-84 56t-92 44t-61 22q-34 6 -64 7t-66 1h-26l-14 -8v-30zM970 1668q-10 0 -10 -10 t10 -10q4 0 4 10t-4 10zM910 1676q-6 0 -6 -8t6 -8q10 0 10 8t-10 8zM902 1688q-6 0 -6 -10t6 -10t6 10t-6 10zM942 1676h8v12h-8v-12zM882 1716h12l-12 8v-8zM694 1788q-6 0 -6 -10t6 -10q10 0 10 10t-10 10zM646 1800q-4 0 -4 -10t4 -10q8 0 8 10t-8 10zM574 1816 q-10 0 -10 -8t10 -8q6 0 6 8t-6 8zM480 1828q-8 0 -8 -10t8 -10q4 0 4 10t-4 10zM506 1828q-4 0 -4 -10t4 -10q6 0 6 10t-6 10zM470 1836q-8 0 -8 -10t8 -10t8 10t-8 10z" />
<glyph unicode="Q" horiz-adv-x="1672" d="M750 62q-154 -6 -289 61t-233 181t-151 258t-43 290q-12 202 23 380t104 319t170 235t221 128l12 4q212 52 389 8t312 -156t225 -276t128 -353t22 -388t-94 -379l2 22l-10 -10q-4 -6 -5 -16t15 -16q-22 -22 -38 -45t-28 -45l-8 4l-24 -42q42 -46 60 -62t30 -28t25 -33 t43 -75q0 -4 12 -18t10 -18q-4 -32 -8 -58q-4 -22 -5 -41t-1 -23l-4 4h-2q-4 4 -9 11t-3 11q0 2 -2 2q-4 0 -4 2l-4 2l-56 -68l-8 4q-16 10 -37 31t-37 35l-4 8q0 -2 -9 -8t-13 -8l-4 2l-4 2q-4 2 -8 14l-6 18q-4 2 -4 5t-4 5l-14 8q-24 22 -42 51t-36 52t-40 34t-54 -1 q-20 12 -50 10t-62 -8t-61 -15t-47 -13q-44 -10 -100 -12t-100 4q14 24 1 35t-31 13t-31 -6t5 -22q4 -2 9 -5t9 -5zM560 104l-8 -12zM588 104q-2 2 -6 -4t0 -8q10 0 6 12zM810 72q2 8 -1 8t-6 -3t-2 -6t9 1zM992 88q-8 0 -14 -6h22l-4 2zM976 120q-6 4 -11 -5t1 -13 q8 -4 13 5t-3 13zM1030 98q-6 4 -11 -5t1 -13t11 5t-1 13zM1048 108q-8 4 -12 -4t2 -12q8 -4 12 4t-2 12zM458 1390q-48 -86 -68 -184t-20 -195t17 -188t40 -163t49 -120t46 -60q78 -46 164 -69t172 -7l8 4q8 4 8 6l2 4l2 4q-42 38 -82 80t-92 70q6 10 1 25t-11 32t-8 31 t10 20q-8 4 -19 18t-15 20q-4 4 -6 8t0 8q6 2 10 4q8 4 10 6v8q0 4 -4 8l28 -14q-6 12 -8 18t0 10t6 8t10 14q8 -6 12 -4t6 6l5 10t9 8q22 14 59 1t63 -27q58 -32 106 -73t98 -87q24 -24 51 -63t59 -57q8 -6 27 11t38 41t35 46t20 28q62 112 62 223t-35 212t-92 189 t-111 152t-92 102t-32 40l-12 6q-68 38 -147 37t-153 -29t-134 -76t-92 -102zM1066 120q-6 4 -11 -4t1 -12t11 4t-1 12zM1086 98q4 6 -2 9t-10 -1q4 -16 12 -8zM1112 104q-10 6 -15 -2t5 -14q4 -2 9 6t1 10zM1122 134q-10 6 -21 -2t-19 -12q6 -2 8 -4q12 -6 18 4t16 6 q-2 2 -2 6v2zM1134 102q4 -2 0 -10t-8 -4q-10 4 -6 12t14 2zM1600 -20q-4 4 -9 -5t-1 -13q8 -4 13 5t-3 13zM1594 6q-6 4 -11 -5t1 -13q8 -4 13 5t-3 13zM1152 134q-10 6 -15 -3t5 -15q4 -2 9 7t1 11zM1614 2q-6 4 -11 -5t1 -13q8 -4 13 5t-3 13zM1080 1518q-16 10 -39 14 t-33 -10q6 -2 19 -5t27 -6t26 -5t16 -4q-4 4 -9 10t-7 6zM1374 1422l10 -6l6 12l-10 4zM1408 1404q4 4 -2 7t-10 -3q6 -10 12 -4z" />
<glyph unicode="R" horiz-adv-x="1520" d="M260 -172q-2 0 -9 -7t-11 -7q-44 0 -60 25t-32 53h-8q-4 0 -8 4l-4 4l4 770q-16 114 -25 235t-23 233q-12 100 -19 197t-17 197q-4 52 -10 97t-6 97v80q16 34 29 64t51 46q26 12 45 18t36 9t36 4t43 1q10 0 9 -3t3 -3q22 -16 50 -28t56 -12q18 0 41 5t47 11t47 13t39 11 q40 6 84 7t82 1q52 0 99 -12t95 -28q74 -18 138 -50t112 -90q6 0 10 -8l4 -8q10 -46 28 -105t18 -117q0 -22 -3 -35t-7 -24t-8 -25t-8 -34q-22 -92 -69 -168t-111 -152q-2 -2 -10 -9t-17 -16t-18 -17t-11 -12q-4 -4 -17 -15t-27 -23t-26 -24l-14 -14q-14 -10 -31 -19 t-17 -29q12 -38 50 -97t92 -124t121 -131t136 -119t138 -86t127 -31q6 -12 15 -16t18 -9t15 -12t6 -25v-4q0 -4 -4 -12l-4 -8q-2 0 -2 -2q-2 -2 -2 -6h4q0 -2 8 -5t8 -5q4 -4 12 -15t8 -13q-4 -10 -17 -14t-19 -6q16 -6 18 -16t2 -24q0 -16 -15 -26t-35 -15t-41 -7t-33 -2 v-20h38l-10 -12h-64q-4 -8 -11 -9t-13 -1q-106 8 -202 55t-182 115t-160 147t-136 152t-111 130t-83 79l-4 -828q0 -20 -7 -25t-16 -7l-18 -4t-11 -16v24q-4 -12 -8 -14t-9 -4t-11 -9t-14 -31q-4 -10 -11 -8t-13 2q-12 0 -19 1t-15 5q-20 -10 -44 -20t-52 -14q14 10 10 32 t-10 22zM280 -198q-4 0 -4 -10t4 -10q6 0 6 10t-6 10zM168 -108q-10 0 -10 -10t10 -10q4 0 4 10t-4 10zM444 1472q0 -90 14 -184t26 -184h4h4q22 6 43 27l29 29q44 42 88 87t80 96t58 109t22 122q0 70 -40 91t-100 21q-26 0 -42 -2t-28 -6t-24 -14t-30 -24q-26 -20 -45 -36 t-32 -33t-20 -40t-7 -59zM1168 1742q-6 0 -6 -10t6 -10q4 0 4 10t-4 10z" />
<glyph unicode="S" horiz-adv-x="1306" d="M188 112q0 4 3 15t3 13q-4 0 -22 6t-18 18l6 4l8 6h-24q0 2 -1 5t-1 5q-2 2 -2 4q-2 0 -9 3t-11 3v6v8q4 2 14 12l14 14q-4 0 -14 4t-14 4v2v10l54 30h-44q6 16 20 22t30 8t30 3t18 11q8 2 31 6t50 8t51 8t34 4q34 6 92 14t118 21t112 34t74 55v34q0 30 -23 75t-54 91 t-63 85t-50 57q-18 4 -48 32t-61 59t-60 56t-45 25l-2 -4l-8 -8l4 -4q0 -2 1 -2t1 -2t2 -2v-4v-6q-4 2 -19 12t-31 23t-28 24t-10 17q-32 30 -48 59t-44 65q-26 34 -59 68t-61 71t-48 78t-20 89q0 36 15 71t39 66t55 55t65 38q22 8 41 7t31 27l8 -8l19 19t21 17q0 4 3 4 t3 -4q104 52 209 79t215 53q20 -4 46 -1t54 8t55 9t51 4q32 0 58 -3t51 -9t51 -13t58 -13q-4 -8 12 -19t36 -24t37 -28t17 -29v-2q0 -4 -3 -6t-3 -6q10 -6 10 -22t16 -26l-20 -8q6 -16 2 -36t-14 -37t-26 -28t-36 -11h-188l8 -8q-2 -4 -13 -8t-15 -4t-20 1t-35 1h-36t-21 -2 q-4 0 -14 -2t-14 -6q-2 -2 -9 -19t-11 -21q-2 0 -18 2t-20 -2q-62 -8 -123 -39t-119 -53q-26 -10 -41 -22t-41 -12q0 -34 31 -76t72 -83t83 -77t64 -58q6 -6 21 -20t31 -31t31 -31t21 -20q4 -2 11 -7t17 -5l48 -46l-12 -6q6 -4 18 -9t23 -13t18 -17t1 -21q0 6 2 8l4 4h4h6 l4 -4q6 -6 6 -8q-10 0 -10 -8q0 -4 13 -27t33 -56t43 -71t44 -70t35 -53t16 -21q0 -22 13 -58t19 -62q2 0 5 -4t5 -4v-38q0 -76 -35 -133t-87 -97t-112 -67t-112 -43t-87 -24t-35 -12l-272 -28q-10 2 -51 18t-86 34t-81 34t-36 18v8zM160 262q-10 0 -10 -10t10 -10q6 0 6 10 t-6 10zM852 960q-6 0 -6 -9t6 -9q10 0 10 9t-10 9zM364 1000h12l-12 8v-8zM330 1020h26q-4 0 -10 8t-10 8l-4 4l-2 -4v-16zM316 1056q-4 0 -4 -10t4 -10q10 0 10 10t-10 10zM296 1076q-4 0 -4 -10t4 -10q10 0 10 10t-10 10zM816 1536q0 4 -6 4t-6 -4q8 -12 12 0zM770 1556 q-8 0 -8 -10t8 -10t8 10t-8 10zM796 1562q-8 0 -8 -10t8 -10q6 0 6 10t-6 10z" />
<glyph unicode="T" horiz-adv-x="1736" d="M818 112q-4 -2 -9 -13t-5 -17l4 -4q4 -4 10 -4h-20q-40 0 -50 33t-10 65q0 22 1 37t11 33q2 14 4 51t5 79t6 81t5 55v4v2q-12 72 -13 142t-7 142q0 8 -4 40t-9 76t-12 95t-13 95t-10 76t-6 40q-6 52 -7 98t-13 90h-2q-30 0 -58 -8t-56 -19t-55 -19t-53 -8h-10l10 6h-10 q-28 0 -52 -8t-34 -36h-22q-16 0 -39 4t-23 26h44q0 10 -5 19t17 9q4 0 20 -8t20 -12q0 4 4 10t4 10q4 12 11 15t13 3t13 2t11 14v8v4q-4 -4 -11 -6t-9 -6q-8 0 -14 -2q-14 -4 -14 -6q-4 -6 -8 -10q-6 -10 -12 -10q-2 0 -16 7t-18 7t-16 -7t-14 -7h-26q-26 0 -58 13t-60 15 q0 4 -4 12q-2 4 -2 8q-4 4 -12 13t-17 18t-17 16t-10 11v20q-2 -2 -13 -6t-17 -4q-16 0 -25 18t-9 26q2 8 8 10t12 5t10 8t4 17l-4 8q-4 8 -4 12q2 8 13 15t25 13t28 10t20 8l522 142q4 2 6 6t3 5t3 5q0 4 4 15t4 15q16 34 46 61t56 49q16 4 42 12t36 8q6 -2 14 -4 q16 -4 22 -4q30 -10 52 -15t40 -12t35 -20t39 -43q6 0 28 7t28 7q-6 -10 37 -12t113 -2t158 -1t169 -9t146 -26t91 -52t1 -87t-121 -131q-28 0 -75 9t-99 21t-101 21t-79 9q-4 0 -9 -1t-9 -1q-6 -2 -10 -2q-16 -2 -53 -4t-75 -8t-66 -17t-28 -29q6 0 18 3t16 -7 q-10 -4 -22 -7t-18 -13h16q46 0 87 10t85 10h20q-36 -18 -75 -22t-75 -12l-18 -14q-4 2 -6 4q-2 0 -2 1t-2 1t-2 2q-12 0 -18 -7t-8 -17t-2 -19v-15q0 -82 10 -182t23 -203t23 -201t10 -178q0 -136 -11 -268t-29 -264q-10 -22 -13 -55t-7 -51q-4 4 -9 0t-9 -8q-6 -6 -8 -12 h-4q-12 0 -16 12t-18 12q-10 0 -15 -8t-9 -17t-10 -17t-18 -8h-4q4 4 6 13t4 13v8v6q-12 -6 -21 -14t-18 -15t-20 -13t-25 -6q-18 0 -25 4t-9 10t-2 15t-4 19q-6 14 -13 18t-15 8t-14 12t-10 26zM336 1326q4 4 -2 4t-6 -4q8 -10 8 0zM404 1374q2 4 -5 4t-3 -4q0 -6 4 -6t4 6 zM508 1380q0 6 -6 6t-6 -6q8 -2 12 0zM656 1486q-8 0 -44 -8t-75 -21t-71 -28t-32 -29h24q38 0 73 9t81 19q2 -8 16 -8h10q-12 4 -8 11t4 17h14l-10 -8q4 0 6 -2t4 -2q10 0 19 8t9 20q0 10 -3 16t-17 6zM564 1400q2 6 -5 6t-3 -6q0 -4 4 -4t4 4zM604 1420q-10 0 -10 -10 t10 -10q6 0 6 10t-6 10zM1496 1560q40 0 69 -3t61 -17l-4 -4q-2 -2 -8 -2h-2q-42 0 -87 12t-87 14h58zM1286 1628q10 0 10 -10t-10 -10q-6 0 -6 10t6 10z" />
<glyph unicode="U" horiz-adv-x="1632" d="M348 68q-42 8 -64 34t-36 56t-28 59t-40 45q-34 84 -57 218t-37 280t-20 284t-6 228q0 126 8 237t36 243q10 50 27 92t44 74t68 50t101 18q44 0 86 -11t74 -34t51 -59t19 -88q0 -50 -14 -107t-26 -109l-8 -6q-8 -18 -9 -26t0 -14t2 -16t1 -30q-6 -38 -10 -99t-7 -134 t-5 -152t-3 -153t-1 -136v-102v-36q2 -6 8 -34t14 -63t15 -71t11 -56q4 -16 11 -41t17 -49t24 -42t36 -18q44 0 102 34t114 82t101 101t67 93q16 28 25 65t31 67q14 18 26 31t19 25t11 26t4 38t-1 72t-4 109t-7 128t-10 127t-12 108t-14 72l-4 4q-4 4 -8 4q4 62 -6 114 t-10 112q0 56 44 85t96 29q30 0 65 -10t65 -10q2 0 5 4t5 4h6q24 0 36 -23t20 -39q14 -16 32 -17t28 -17q10 -14 22 -85t24 -172t22 -218t18 -221t12 -182t4 -102q0 -64 2 -132t-20 -128v-264q2 -4 8 -26t10 -28v-8v-4q-4 -4 -16 -14t-12 -14q-8 -16 -9 -26t-3 -16t-9 -8 t-25 -2v-20q-10 0 -30 -6t-16 -22q-4 0 -12 -3t-12 -3q-18 0 -23 7t-17 7q-10 0 -12 -7t-10 -7l-10 6q-2 0 -18 7t-20 7t-14 -3t-12 -3h-14q-20 0 -41 16t-39 38t-30 46t-16 40h-20l-18 -12t-25 -17t-26 -17t-19 -10l-10 -5l-22 -11t-23 -13t-17 -9q-22 -10 -57 -28t-59 -18 l-8 6q-10 0 -23 -5t-13 -21l-8 12l-12 -12l-44 -4q-18 -2 -36 -3t-30 -1h-84h-70q-2 0 -30 7t-42 13q-10 0 -32 7t-28 7q-4 4 -20 12q-8 4 -14 8v14zM1472 92q-6 0 -6 -9t6 -9q10 0 10 9t-10 9zM994 140q-4 0 -4 -5t4 -5q4 2 4 6t-4 4zM1118 742q-6 0 -6 -10t6 -10q4 0 4 10 t-4 10z" />
<glyph unicode="V" horiz-adv-x="1324" d="M690 -6q-20 0 -49 7t-58 19t-54 26t-37 28q-38 40 -66 87t-52 97t-45 102t-41 100q-24 54 -54 153t-62 220t-61 255t-50 260t-32 232t-3 172q2 30 16 59t35 53t49 37t62 11q20 -2 59 -10t79 -22t73 -31t43 -37q14 -28 21 -67t10 -83l6 -88t9 -82q8 -38 19 -105t24 -149 t28 -171t30 -170t29 -147t28 -104q20 -12 22 -37t18 -39q12 22 28 70t33 110t33 131t28 131t19 112t7 76q6 0 11 11t9 24t6 25t2 14q4 20 14 71t20 108t20 108t14 73v12q2 0 6 3t6 3l6 -8l2 8q0 14 -6 20l10 104q2 6 7 13t15 7l-2 -20q20 4 27 22t13 41t18 47t42 40 q4 -4 8 -15t2 -15q0 -2 -5 -5t-9 -1q4 -6 13 -14t13 -10q0 2 2 2t4 2t6 4q-8 4 -9 9t-1 11q2 16 7 35t21 25q0 -4 3 -7t5 -7v-6l-2 -2q-2 -2 -6 -14q-2 -6 -6 -12q0 -16 14 -38t24 -32l-20 -16l16 -22q4 2 8 5t6 3h4q8 0 10 -5t12 -7q4 0 10 1t12 9q-22 6 -32 20q0 4 2 19 t2 17t1 13t4 23t7 21t12 9h2q4 0 7 -4t7 -8q4 10 14 11t14 1q-4 -22 -14 -29t-14 -41q0 -2 2 -17t2 -19h8h4q10 4 10 18q2 0 4 -5t6 -5h4h4q2 0 10 7t12 11l8 -10q2 -6 -1 -28t-3 -30q-8 -62 -24 -118t-22 -114q0 -8 -2 -14l1 -9t1 -20t1 -22t1 -13q0 -4 -3 -16t-6 -26 t-6 -26t-3 -14q-2 -4 -2 -10q-2 -4 -2 -9v-7t-1 -10t-1 -12l20 20q0 -6 -2 -29t-2 -29q-4 -32 -18 -61t-18 -61v-20l4 -8q4 -8 4 -12l-10 -8v-2q-2 -10 -12 -66t-21 -122t-21 -122t-10 -64q0 -4 -1 -9t-1 -9v-10l-90 -372q-12 -24 -31 -81t-44 -117t-56 -106t-69 -48 q-4 0 -28 2t-26 2q-20 -4 -51 -13t-41 -9h-6zM720 12q-4 -2 -6 -4l-4 -4q4 -4 8 0t2 8zM1050 1522q-4 0 -5 -10t3 -10q6 -2 7 8t-5 12zM948 1536q-4 4 -5 -1t5 -5q4 -2 4 1t-4 5zM1152 1588q-6 0 -7 -10t5 -10q4 0 5 10t-3 10zM1068 1614q-6 2 -7 -8t5 -12q10 0 11 10t-9 10 zM1174 1606q-10 2 -11 -8t9 -12q4 0 5 10t-3 10zM966 1690q-6 0 -7 -5t5 -3q4 -2 5 2t-3 6zM956 1710q-6 0 -7 -10t5 -10q10 0 11 10t-9 10zM1184 1692q-10 2 -11 -8t9 -12q4 0 5 10t-3 10zM1246 1762q-4 2 -5 -4t3 -4q6 0 7 4t-5 4zM1106 1782q-6 0 -7 -8t5 -8q8 -2 9 6 t-7 10zM1230 1812q-6 0 -7 -10t5 -10q10 0 11 10t-9 10zM1030 1846q-10 0 -11 -9t9 -9q6 0 7 9t-5 9zM1092 1840q-6 2 -7 -7t5 -11q10 0 11 9t-9 9zM1220 1842q-6 2 -7 -9t5 -11q6 6 2 20zM1032 1866q-2 0 -4 -2t-2 -6l6 -2l4 4q4 4 4 6l2 4v2zM1208 1858q-4 0 -5 -8t3 -8 q10 0 11 8t-9 8zM1062 1878q-10 0 -11 -7t9 -7q4 0 5 7t-3 7z" />
<glyph unicode="W" horiz-adv-x="2146" d="M740 44q-18 -4 -72 1t-134 36t-179 98t-203 189q-4 8 -12 27t-19 41t-20 41t-15 27q-16 8 -19 23t-7 29q-12 32 -19 123t-9 213t-2 259t2 260t4 217t2 130t2 62t12 64q16 2 43 13t29 33q36 6 57 7t53 1h22q2 0 12 -1t21 -3t20 -3l9 -1q14 -2 28 -12t27 -21t26 -18t27 -3 q2 -52 -1 -140t-7 -197t-5 -231t6 -241t27 -226t57 -187t95 -124t144 -36l8 -6h4h8q0 4 6 18t10 16q28 44 44 98t25 111t12 114t3 107q0 72 -10 140t-10 136q0 46 21 74t55 58q4 0 10 -4t10 -4h4q22 0 44 5t44 5q46 0 97 -12t83 -46q0 -2 4 -14l4 -12q4 -6 10 -18t10 -16 q-4 -114 1 -233t25 -233q6 -22 23 -50t17 -54q0 -2 -4 -10q-2 -4 -2 -10q0 -10 4 -25t10 -33t11 -35t9 -27v-4v-8l-8 -8q0 -2 4 -9t4 -11v-16q12 0 24 -15t25 -36t27 -42t30 -31h22q26 0 39 8t41 32q40 36 79 79t69 92t48 102t18 111q-18 50 -35 132t-37 178t-44 196 t-54 187t-67 153t-83 94q-2 0 -5 4t-7 6l12 10q-28 -8 -48 4t-36 34h28q0 18 -17 33t-39 15v14h28q-4 6 -12 14t-8 18h30l-38 16q2 0 13 1t15 1q28 0 55 -12t55 -12q0 12 -16 17t-34 9t-34 11t-16 25q0 10 16 10h16q30 0 57 -10t55 -10h6q2 0 9 5t11 5q6 0 7 -4t2 -10t5 -10 t14 -4v18q16 0 21 -3t6 -8t1 -12t8 -15q6 -4 14 -8q6 -4 12 -7l10 -5q2 0 13 -4l22 -8t21 -9t12 -7l4 -4q2 -2 8 -2l14 6q24 -4 43 -19t33 -34t26 -40t24 -39v-8h10q0 -12 -10 -20q0 -4 5 -8t9 -4q10 -10 29 -59t42 -119t47 -150t45 -153t36 -129t21 -76q0 -2 -1 -5t-1 -7 v-10q0 6 -3 23t-11 21l-4 -8q-2 -4 -2 -8q0 -18 7 -34t14 -29t14 -22t7 -11h-12v-78h12q0 -40 -1 -87t-5 -96t-15 -95t-29 -84q-10 -20 -20 -31t-20 -20t-21 -19t-21 -24q-16 -22 -24 -43t-24 -43q-8 -14 -17 -12t-19 -8q-40 -26 -72 -61t-72 -61q-10 -8 -47 -19t-80 -22 t-83 -18t-54 -7q-66 0 -115 11t-91 32t-82 52t-88 73q0 4 -8 8q-4 2 -6 4q-36 -12 -63 -35t-53 -46t-57 -44t-77 -31l20 -6q-22 -4 -59 -16t-59 -12h-2zM720 64h26l-16 8h-8h-2v-8zM1832 234q-10 0 -10 -10t10 -10q6 0 6 10t-6 10zM1924 290l-6 -6l-4 -4v-2v-8q4 2 6 5t4 5 v4v6zM1914 354q-8 0 -8 -10t8 -10t8 10t-8 10zM1952 382l8 20h-8v-20zM2020 414q-10 0 -10 -10t10 -10q6 0 6 10t-6 10zM2028 430q-6 0 -6 -8t6 -8q4 0 4 8t-4 8zM1972 442q-10 0 -10 -10t10 -10q6 0 6 10t-6 10zM2034 450q0 6 -5 -1t-1 -7q2 -4 6 0t0 8zM2000 460 q-6 0 -6 -5t6 -5q10 4 0 10zM2048 488q-10 0 -10 -10t10 -10q4 0 4 10t-4 10zM2034 494q-4 0 -4 -8t4 -8q10 0 10 8t-10 8zM2020 508h8v6zM2008 522q-6 0 -6 -7t6 -7q10 0 10 7t-10 7zM1718 618q-8 0 -8 -8t8 -8t8 8t-8 8zM1988 694q-2 2 -3 -3t-1 -11t1 -12t3 -4q4 4 4 16 t-4 14zM1284 710q-4 0 -4 -8t4 -8q10 0 10 8t-10 8zM1988 722q-6 0 -6 -10t6 -10q10 0 10 10t-10 10zM1988 742q-6 0 -6 -10t6 -10q10 0 10 10t-10 10zM1988 842q-6 0 -6 -9t6 -9q10 0 10 9t-10 9zM1980 882q-6 0 -6 -10t6 -10t6 10t-6 10zM1980 910q-2 0 -2 -6t2 -2 q6 0 0 8zM1754 930q-8 0 -8 -10t8 -10t8 10t-8 10zM1888 930q-4 0 -4 -6t4 -6q2 4 0 12zM1914 950q-8 0 -8 -10t8 -10t8 10t-8 10zM1662 1604q-4 8 -9 2t-3 -10q6 -2 9 1t3 7zM1782 1718h8l-8 10v-10zM1772 1746q-8 0 -8 -9t8 -9t8 9t-8 9zM1744 1756q4 -10 18 -10 q0 14 -8 18zM1408 1764q-8 0 -8 -9t8 -9q4 0 4 9t-4 9zM1388 1804q-8 0 -8 -10t8 -10t8 10t-8 10zM1718 1804q-6 0 -6 -10t6 -10q4 0 4 10t-4 10zM1388 1824q0 2 -5 2t-5 -2q2 -6 6 -6t4 6zM1650 1838q-6 0 -6 -7t6 -7q10 0 10 7t-10 7zM1388 1858q-6 4 -6 -2t6 -6q4 0 4 4 t-4 4zM1490 1870q-6 0 -6 -10t6 -10q10 0 10 10t-10 10zM370 204q-6 0 -6 -9t6 -9q10 0 10 9t-10 9zM362 244q-6 0 -6 -10t6 -10t6 10t-6 10zM362 272q-2 0 -2 -6t2 -2q6 0 0 8zM270 292q-4 0 -4 -6t4 -6q2 4 0 12zM296 312q-8 0 -8 -10t8 -10t8 10t-8 10z" />
<glyph unicode="X" horiz-adv-x="1450" d="M362 -82q-4 4 3 16t9 16v6q4 22 -2 45t-34 27q-8 0 -11 -1t-17 -7q-4 0 -12 -4l-8 -4l-14 -100q-10 6 -29 13t-17 25q4 12 15 9t15 -3l6 42l-6 8q-4 -2 -10 -12t-6 -16q12 30 -10 30q-16 2 -25 -8t-23 -10q0 6 -3 18t-8 25t-11 23t-10 14l-22 -18q-10 26 -28 28q2 8 8 9 t8 11l-12 2q30 216 92 416t150 400l2 8q2 10 -16 45t-46 83t-62 102t-66 104t-58 89t-36 57q-4 4 -12 18t-18 31t-18 32t-10 21v12q4 28 24 54t47 45t58 28t57 5q4 -4 23 -14t23 -10q40 -22 83 -36t75 -46q4 -6 15 -19t23 -28t21 -29t13 -20l98 -166q6 0 26 26t48 67t60 91 t62 94t54 77t36 43q26 24 51 52t50 55t54 52t63 43q14 6 17 14t6 15t9 13t24 8q2 -4 6 -6q6 -6 12 -6q2 0 17 3t19 3t9 -1t7 -1q36 -4 68 -17t60 -32t57 -40t59 -37q-2 -6 -3 -20t-3 -20q-6 -36 -19 -62t-32 -45t-42 -37t-49 -38q-42 -38 -91 -103t-99 -136t-94 -139 t-74 -112l-4 -4q-2 -2 -8 -2q-26 -46 -57 -92t-39 -98q-2 -12 9 -28t23 -31t20 -29t0 -22q6 -6 15 -17t20 -24t20 -25t15 -16q-2 -2 1 -10t1 -12q4 -16 27 -43t49 -56t46 -58t18 -47q-2 -10 -6 -23t-14 -19q0 -4 5 -6t9 -2q2 -2 11 0t9 6q2 -2 5 -11t3 -11q0 -4 -5 -10 t-7 -8q2 -6 12 -19t22 -27t23 -27t17 -17q6 -8 13 -11t13 -5t9 -5t3 -13q30 -4 42 -25t34 -23q-2 -4 -5 -18t-13 -18l8 -8v-4v-8l-12 -8l42 -24l-4 -26q2 -4 14 -5t25 -4t21 -9t6 -16l-104 10q-4 4 -14 8t-19 8t-13 10t2 16l-22 -16q-10 8 -13 14l-6 12t-10 9t-23 5h-10 q28 -36 58 -53t66 -39q0 -2 -6 -8q-4 -2 -6 -4h-2q-4 0 -4 1t-2 1h-2q-4 0 -23 8t-23 8q-4 -4 -8 -6q-8 -4 -14 -4h-4q-6 0 -8 2q-8 0 -16 3t-4 19q-4 -4 -10 -6t-10 -2l-8 4q-4 2 -7 3t-5 3l-6 10q-16 12 -26 22l-16 12l-22 -8l-38 48q-6 -4 -13 -14t-15 -10h-4 q-14 10 -28 28t-32 24l-242 312q-20 -32 -35 -73t-26 -86t-21 -88t-22 -79q0 2 -6 8l-4 4v2l-6 -2q-34 -52 -48 -108t-30 -112q-6 -10 -12 -14t-10 -8t-6 -11t0 -23q-4 4 -9 10t-9 6q-2 0 -3 -1t-3 -1l-2 -2l-8 -50q-10 0 -26 18t-14 28zM382 -50q-6 0 -8 -10t4 -10 q10 0 12 10t-8 10zM424 -40q-2 0 -6 -4q-2 -2 -4 -2l4 -2h4l10 8l-2 2zM368 50v6l-6 2zM350 108q-2 0 -6 -8q-2 -4 -4 -6t-2 -4v-4v-6q0 4 5 10t5 10v4zM374 90q-4 2 -6 -8t2 -12q10 0 12 10t-8 10zM1174 88q-4 2 -6 -7t2 -11q6 0 8 9t-4 9zM1134 92v10l-14 2zM1280 98 q8 0 7 -10t-9 -10q-6 2 -5 12t7 8zM974 156q10 -2 9 -12t-11 -8q-6 0 -5 10t7 10zM554 216q-2 0 -3 -7t1 -7q6 6 2 14zM1138 166q-6 2 -7 -8t5 -12q4 0 5 10t-3 10zM1000 188q-6 0 -7 -7t5 -7q4 0 5 7t-3 7zM1066 518q-10 2 -11 -8t9 -12q4 0 5 10t-3 10zM992 622 q10 0 9 -10t-11 -10q-6 2 -5 12t7 8z" />
<glyph unicode="Y" horiz-adv-x="1408" d="M708 -78q0 12 -16 21t-30 13v10h-10q-2 -6 -10 -23t-18 -21q0 -4 5 -7t5 -7v-4q0 -8 -16 -19t-18 -11v8v6q0 6 4 25t4 23v8q-16 0 -17 -9t-11 -13l-12 14l-28 -14q-12 16 -14 32t-2 38q-20 0 -34 -4t-36 -4q0 28 7 58t23 54l-20 12q0 4 5 18t5 18v18q2 12 7 37t9 52t8 50 t6 31q8 40 19 104t25 133t27 132t23 103q4 4 6 12t6 8l-12 60l-60 26l-382 386q-52 36 -96 87t-44 115q0 12 13 30t31 36t37 30t31 12h158q16 -16 32 -12t32 0q4 0 11 -3t9 -5q38 -24 73 -45t67 -51q18 -16 46 -48t58 -66t58 -60t46 -30q38 68 64 151t52 168t56 165t76 144 q10 4 25 12t23 8q2 0 6 -4t4 -6q6 2 28 9t26 9h6h8q8 0 31 -4t50 -9t51 -9t34 -6q22 -34 40 -35t29 2t15 -6t2 -61q0 -36 -14 -74t-33 -76t-39 -75t-32 -71q-4 -16 -17 -60t-28 -95t-28 -96t-17 -59q-4 -2 -9 -16t-9 -32t-8 -34t-6 -20q0 -10 -6 -35t-14 -54t-14 -54t-8 -35 q-14 -58 -28 -139t-29 -166t-32 -165t-35 -136q-4 -14 -3 -33l2 -38l2 -38t-5 -31q-2 -10 -5 -24t-8 -30t-10 -30t-11 -22q-4 0 -12 -2t-8 -6q-22 -38 -31 -83t-37 -83q-8 -14 -38 -28t-46 -20q-2 0 -4 2q-4 4 -4 6q0 4 2 27t2 33h-16zM720 -54q-10 0 -10 -9t10 -9q6 0 6 9 t-6 9zM720 42q-10 0 -10 -10t10 -10q6 0 6 10t-6 10zM888 88l12 8h-12v-8zM900 134q-6 4 -6 -9t6 -9q2 2 2 9t-2 9zM908 182q10 4 11 9t1 11l-6 6zM934 256q10 0 10 -10t-10 -10q-4 0 -4 10t4 10z" />
<glyph unicode="Z" horiz-adv-x="1392" d="M240 248q0 20 8 44t20 48t25 47t23 41q16 30 40 79t52 108t58 123t59 123t54 107t43 78q22 34 67 103t90 144t78 142t33 99q0 4 -2 10t-2 10q-28 10 -67 8t-67 -2q-58 0 -115 -7t-114 -16t-114 -16t-113 -7q-22 0 -50 11t-28 41l12 -6q2 0 9 -3t9 -3h4h6h2q2 0 4 2l4 4 q-6 -4 -18 8q-6 6 -10 12q-12 8 -17 9t-8 1t-7 -2t-12 0q-24 4 -54 22t-57 40t-45 47t-18 43q0 44 30 77t64 51l24 6t34 7t34 5t22 2q64 6 130 8t130 12q6 0 26 3t43 7t41 7t22 3h38q32 0 96 -5t143 -16t162 -28t150 -40t111 -53t44 -68q0 -32 -16 -62v38q-10 -22 -11 -36 t-1 -34v-36l4 -8q2 -4 4 -7t2 -5l-10 -8q-14 -22 -22 -48t-14 -53l-12 -54t-18 -51q-4 -4 -10 -14t-10 -14l-10 -20t-17 -35t-17 -36t-10 -21q-6 -10 -21 -22t-17 -14q-28 -40 -44 -86t-44 -86l-336 -654l-8 -26h28q46 0 95 13t83 13q4 0 8 -6t8 -6q18 0 70 6t112 13t112 14 t70 9l6 -12q-4 -8 -8 -8h-7t-6 -3t-5 -17h20q0 -12 -8 -16h34q0 8 2 10t-8 6q20 14 30 14q0 -30 -8 -45t-36 -23q-2 -2 -12 -5t-10 -5v-56q-6 0 -21 -4t-19 -16h12q34 0 65 17t63 17q0 -10 -6 -17t-14 -13t-15 -13t-9 -17h6v-8q-4 -4 -23 -12t-23 -18l-140 -56q-4 0 -29 -1 t-60 -5t-76 -10t-75 -14t-58 -16t-26 -18q0 6 -9 7t-15 1q-52 0 -106 -16t-112 -12q-60 2 -125 14t-119 40t-89 76t-35 120zM1238 138q-8 0 -8 -9t8 -9t8 9t-8 9zM1266 148q-6 0 -6 -10t6 -10t6 10t-6 10zM1286 156q-10 0 -10 -9t10 -9q6 0 6 9t-6 9zM1314 168q-6 0 -6 -10 t6 -10q4 0 4 10t-4 10zM1200 196q-4 0 -4 -10t4 -10q6 0 6 10t-6 10zM1334 196q-6 0 -6 -7t6 -7q4 14 0 14zM1228 202q-6 0 -6 -10t6 -10q8 0 8 10t-8 10zM1258 336q-8 0 -8 -10t8 -10q6 0 6 10t-6 10zM926 1514q-6 0 -6 -10t6 -10q4 0 4 10t-4 10zM766 1588q-6 0 -6 -10 t6 -10q8 0 8 10t-8 10z" />
<glyph unicode="[" horiz-adv-x="1136" d="M860 -412v-8q-4 -2 -14 -16t-14 -20l-4 -8t-9 -16t-10 -15t-7 -7h-28q-34 0 -63 12t-61 14q-8 0 -31 5t-29 5q-66 20 -128 51t-126 55q-10 2 -29 6t-19 2l-12 -8q-14 22 -30 23t-36 11q-28 18 -57 37t-52 41t-38 51t-15 67q0 40 7 93t29 87q6 12 14 43t16 67t14 68t6 44 v88q0 50 1 98t-9 96v572q12 90 14 183t2 183q0 34 -8 67t-17 66t-16 65t-7 62q0 68 11 123t38 92t74 57t121 20h48q2 0 19 -3t36 -6t35 -6t20 -3q18 -2 38 2t43 9l46 10t45 5q24 0 45 -8t41 -19t41 -22t45 -17v-20q20 -6 41 -24t41 -37t37 -35t33 -16q0 -10 5 -23t13 -24 t18 -17t22 2q-2 -4 -7 -16t-5 -16q4 -4 11 -10t9 -6l-21 -21t-37 -38t-34 -39t-10 -24q-70 -22 -139 -24t-139 -24h-4q-16 0 -28 6t-34 6h-22q0 -6 -4 -28t-4 -30t-1 -30t-1 -47t-1 -48t-1 -31v-30q-16 -192 -36 -381t-20 -381q0 -78 7 -157t7 -161q0 -76 -20 -152t-20 -152 q0 -30 20 -46t49 -27t58 -19t47 -20q32 -24 65 -52t61 -61t46 -69t18 -76zM134 866q-6 0 -6 -10t6 -10t6 10t-6 10zM1030 1752q-4 0 -4 -9t4 -9q6 0 6 9t-6 9zM104 1760q-8 0 -8 -8t8 -8t8 8t-8 8zM1024 1772q-10 0 -10 -10t10 -10q4 0 4 10t-4 10z" />
<glyph unicode="\" horiz-adv-x="1048" d="M606 -78v-26q-16 0 -33 28t-30 63t-23 67t-12 42q-4 22 -7 35l-9 39q-2 2 -7 15t-9 28t-8 27t-4 16q-4 6 -10 28t-13 47t-13 47t-8 28q-2 2 -2 4t-1 4t-1 6l-4 12q-4 12 -16 56t-26 95t-27 94t-15 53q-4 22 -14 50t-38 36l-16 -8q-10 0 -11 9t-1 17v10q2 2 6 4q6 6 6 8 q0 8 -5 12t-12 8t-12 10t-5 18h14q0 20 10 35t10 37v8q-28 122 -64 241t-70 239q-6 22 -15 43t-13 37q-14 76 -33 140t-41 146v22q0 40 31 62t63 42q0 -2 4 -9t4 -11q2 0 4 2q4 4 10 4v8q6 38 10 46t9 6t11 -4t18 18q10 0 44 4t44 4h8q10 0 17 -6t17 -6l10 4q-14 6 -14 18 q64 0 108 -36t48 -88q0 -4 4 -22t4 -24q6 -18 20 -63t29 -96t28 -96t19 -65v-8q2 -2 8 -18t10 -20v-6l222 -808q6 -16 16 -38t19 -46t14 -48t3 -42q4 -16 17 -55t27 -83t27 -83t17 -53q12 -34 20 -46t12 -21t6 -23t2 -50q0 -42 -13 -56t-49 -36q-30 -20 -51 -37t-42 -30 t-48 -20t-65 -7q-28 0 -48 2t-42 24q0 -4 -6 -9t-10 -5q-4 -4 -6 -2t-8 2zM606 -50q-6 0 -6 -10t6 -10q10 0 10 10t-10 10z" />
<glyph unicode="]" horiz-adv-x="1078" d="M144 -444q0 40 18 76t45 69t61 62t64 53q18 12 47 20t57 19t48 27t20 46q0 76 -20 152t-20 152q0 82 7 162t7 158q0 192 -20 381t-36 383v30q0 8 -1 31t-1 48t-1 47t-1 30t-4 30t-4 28h-22q-20 0 -32 -6t-28 -6h-4q-68 22 -137 24t-137 24q4 6 -10 25t-33 40t-37 38 t-20 21q2 0 9 6t11 10q0 4 -5 16t-7 16q12 -8 22 -2t17 17t12 24t5 23q14 0 32 16t38 35t40 37t40 24v20q24 6 45 17t41 22t40 19t44 8q20 0 43 -5l46 -10t43 -9t38 -2q2 0 19 3t35 6t34 6t20 3h46q72 0 119 -20t74 -57t37 -92t10 -123q0 -30 -7 -63t-16 -66t-16 -66t-7 -67 q0 -90 2 -183t14 -183v-574q-10 -48 -9 -97t1 -99v-88q0 -12 6 -44t13 -68t15 -67t14 -43q22 -34 29 -87t7 -93t-14 -69t-37 -51t-52 -41t-57 -37q-20 -10 -35 -11t-29 -23l-12 8q0 2 -19 -2t-29 -6q-62 -24 -123 -55t-127 -51q-6 0 -28 -5t-30 -5q-32 -2 -61 -14t-61 -12 h-28q-4 0 -8 7t-9 15t-9 16l-4 8q-4 6 -14 20t-14 16v8zM860 838q-6 0 -6 -10t6 -10t6 10t-6 10zM-22 1728q-6 0 -6 -10t6 -10q4 0 4 10t-4 10zM888 1736q-6 0 -6 -8t6 -8q8 0 8 8t-8 8zM-16 1748q-4 0 -4 -10t4 -10q10 0 10 10t-10 10z" />
<glyph unicode="^" horiz-adv-x="1346" d="M146 710q-6 46 15 97t53 102t68 96t58 79q8 10 24 36t34 54t33 54t21 36q32 22 71 44t81 39t84 28t82 11q28 0 70 -29t89 -75t95 -103t86 -113t62 -105t24 -79q0 -16 -7 -25t-16 -15t-18 -11t-15 -15q-12 -20 -11 -30t2 -13t-5 -2t-36 1q0 -6 1 -18t1 -18q0 -4 -28 -8 t-63 -8t-66 -7t-39 -3q-28 0 -56 28t-54 66t-49 78t-41 62q-10 -126 -66 -229t-184 -153h-174q-8 12 -21 18t-27 10t-26 9t-18 17q-4 10 -11 26t-11 32q-8 18 -12 36z" />
<glyph unicode="_" horiz-adv-x="1176" d="M160 -42q-52 12 -93 38t-41 78q0 48 61 79t156 50t210 27t223 10t196 1t128 -1q26 0 47 -25t37 -60t25 -70t9 -53v-48q-10 -8 -28 -29t-32 -37z" />
<glyph unicode="`" horiz-adv-x="644" d="M38 1804q0 38 22 68t54 49t69 29t69 10q30 -2 70 -25t79 -54t73 -64t54 -53l4 4q30 -16 56 -67t35 -109t-6 -108t-65 -64q-34 0 -77 3t-71 19q-42 30 -79 70t-77 74q-28 24 -57 46t-57 44q-44 30 -70 52t-26 76z" />
<glyph unicode="a" horiz-adv-x="1392" d="M894 74q-28 0 -49 35t-33 67q-8 -4 -23 -15t-31 -23t-29 -24t-19 -14q-8 -4 -27 -15t-42 -22t-43 -22t-28 -15h-48q-28 0 -49 10t-47 10h-4q-4 0 -10 -5t-10 -9v14q-4 -4 -10 -9t-10 -5q-68 0 -118 35t-85 91t-58 126t-36 142t-18 138t-5 112q0 2 5 22t9 22 q24 140 59 254t100 196t169 127t264 45q8 0 31 -3t49 -8t46 -11t22 -10l82 -14q4 -4 8 -10t4 -10q0 -2 -2 -5t-4 -7q-4 -4 -6 -8q0 -6 30 -7t67 -8t67 -27t30 -64h20q4 0 10 -21t10 -33q30 -72 37 -154t6 -167l-2 -170t12 -160t47 -139t106 -108q-2 -4 -14 -12l-12 -8 q-14 0 -14 -14l4 -4q2 -2 10 -2q4 0 26 -2t28 -2v-4q0 -4 -15 -10l-25 -10q-10 -6 -19 -5t-9 -15t19 -19t29 -19q-22 -6 -35 -17t-39 -11q-22 0 -44 15t-50 15q-4 0 -10 -1t-10 -1l76 -34q0 -10 -10 -20t-24 -17t-27 -10t-21 -1q-24 2 -39 7t-29 10t-29 8t-41 3h-2 q2 -6 6 -15t4 -19q-10 0 -31 9t-43 21t-41 25t-21 19l4 8zM468 656q2 -78 10 -138q6 -52 18 -95t32 -43q22 0 27 21t15 39q16 28 35 42t33 40q8 28 13 60t21 54l-16 -8l-4 8q0 10 5 17t15 3q20 24 33 64t20 85t9 89t2 74q0 16 -3 47t-3 35l-20 46h-8q-66 0 -110 -51 t-72 -122t-40 -146t-12 -121zM610 468q-10 0 -10 -10t10 -10q6 0 6 10t-6 10zM1264 130q-8 0 -8 -10t8 -10q6 0 6 10t-6 10zM992 24q-10 0 -10 -7t10 -7q4 0 4 7t-4 7zM870 220q-2 -4 -2 -8t-4 -10q18 0 14 10zM850 212q-8 -2 -16 -8q4 0 8 -1t8 -1v10zM870 240q0 6 -5 6 t-3 -6q0 -2 3 -2t5 2zM1172 120h6l-6 10v-10z" />
<glyph unicode="b" horiz-adv-x="1370" d="M500 22q-8 0 -10 1l-4 2t-6 0t-12 -5q4 8 -6 13t-26 7l-32 4t-22 4l-8 -20q-16 26 -34 26q-12 0 -19 -3t-17 -3t-19 9t-18 20t-17 21t-16 14q-4 0 -14 -1t-12 1q-22 4 -38 27t-27 53t-16 60t-7 48q0 26 -3 95t-6 147t-6 149t-3 99v194q-22 44 -23 98t-5 100q-2 10 -3 33 t-2 47t-1 44v26v126v126q0 8 1 36t2 59t2 59t1 34q0 12 3 38t11 53t22 48t34 21h4q4 0 8 -4l4 -4q10 6 24 15t24 21h42h40q2 -2 4 -2t3 -1t3 -1l8 -4q4 0 12 4l8 4q10 0 32 -3t44 -9t41 -14t23 -20q4 -10 11 -34t13 -51t11 -51t5 -34q0 -64 -10 -130t-10 -134q0 -76 4 -154 t16 -154h12q44 0 88 14t86 14q82 0 166 -10t162 -37t145 -73t117 -116q18 -20 29 -44t11 -50v-15t-12 -13q4 0 12 -7t8 -11v-4q0 -120 -49 -212t-139 -166q-46 -40 -90 -84t-96 -78h-6h-2q-4 0 -6 5t-6 5q-6 -16 -9 -20t-8 -4t-12 1t-19 -5q-2 0 -13 -12t-15 -16 q-6 -4 -26 -20t-28 -20l10 -6q0 -2 -29 -24t-64 -48t-65 -47l-30 -21q-4 -4 -19 -7t-21 -7q-22 -4 -32 -19t-30 -15q-16 0 -22 7t-6 15zM554 48q-10 0 -10 -10t10 -10q6 0 6 10t-6 10zM528 54q-10 0 -10 -10t10 -10q4 0 4 10t-4 10zM784 180q-4 0 -4 -4l-2 -2l-8 -6h2h6h2 q2 0 4 2t6 4zM918 280q0 4 -6 -2t-2 -8q12 0 8 10zM674 910q-4 -4 -14 -10t-22 -14t-23 -15t-13 -9q-10 -8 -22 -20t-24 -23t-20 -20l-8 -9v-360q22 10 41 25t41 33q36 28 93 68t110 88t91 101t38 107q0 26 -12 42t-31 24t-42 10t-45 2q-12 0 -31 -4t-38 -9t-38 -8t-31 1z M958 804q-6 0 -6 -7t6 -7q8 0 8 7t-8 7zM1312 882q-4 0 -4 -6t4 -6q16 8 0 12zM654 1182q-4 0 -4 -9t4 -9q10 0 10 9t-10 9zM682 1192q-6 0 -6 -10t6 -10q10 0 10 10t-10 10z" />
<glyph unicode="c" horiz-adv-x="1244" d="M668 22q0 12 -19 22t-44 18t-49 13t-34 7q-72 20 -154 81t-152 141t-116 170t-46 170q0 12 7 20t7 18q0 22 -10 46t-10 50q0 4 1 26t5 30q2 8 9 26t14 39t14 39t11 26q-4 12 10 37t34 52t40 51t28 34q2 2 10 11t17 19t17 19t12 13q-6 26 15 32t39 6q0 24 18 45t52 21v-6 q14 0 27 8t27 19t30 19t36 8h256l10 -2t22 -5t23 -7t17 -6q12 -4 34 -10t44 -15t39 -22t19 -27q8 -4 24 -9t31 -14t26 -22t11 -31q0 -10 -3 -20t-17 -18l8 -6q8 -6 14 -18t6 -16q-2 -8 -13 -22t-27 -27t-32 -23t-26 -10h-2q-6 0 -23 3t-36 6t-36 7t-21 4q-70 2 -138 -20 t-121 -64t-86 -102t-33 -134q0 -108 43 -216t127 -178q22 4 44 -4l44 -16h2q32 0 82 12t102 30t100 38t78 36q2 2 10 8t17 13t17 12t10 7h12q0 -18 -12 -32h10q18 0 50 12t54 20h2v-32l18 12v-4q0 -18 -12 -23t-25 -8t-25 -7t-12 -20v-4q2 0 9 3t11 3h2h4q-4 -2 -14 -12 t-12 -14v-4v-4q10 16 21 22t29 6h14q-10 -2 -28 -17t-39 -33t-40 -35t-33 -21h36l-28 -28l8 -6q-34 4 -44 -6t-10 -38q10 0 15 5l10 10t14 10t27 5v-14h-20v-20q4 0 14 4t14 4h12v-28q10 0 14 1t7 1t8 -2t19 -8q-4 0 -13 -2t-20 -5t-19 -6t-8 -7q0 -12 3 -15t8 -3h9t6 -6 q-8 -18 -48 -37t-88 -35t-91 -27t-57 -11h-4q-4 2 -8 6q-4 2 -7 4t-5 2l-16 -12h-12h-8q-2 0 -9 6t-11 6q-2 -4 -8 -12t-10 -8h-20q-38 0 -70 11t-66 11zM918 34q-6 0 -6 -7t6 -7q10 0 10 7t-10 7zM964 34q-4 0 -4 -7t4 -7q10 0 10 7t-10 7zM958 48h6l102 56h-6zM1144 124 q-10 0 -22 -4t-12 -16q16 0 23 8t19 12h-8zM1086 124q-4 0 -4 -5t4 -1q12 0 0 6zM1096 152q-12 -4 -34 -11t-22 -9v-12q22 0 37 11t37 21h-8h-10zM542 102q-6 0 -6 -10t6 -10q10 0 10 10t-10 10zM1160 152q-4 0 -4 -5t4 -5q8 0 8 5t-8 5zM508 120q-10 0 -10 -9t10 -9 q4 0 4 9t-4 9zM964 170q-8 0 -8 -9t8 -9q6 0 6 9t-6 9zM460 120v10h-10zM842 130q-6 0 -6 -9t6 -9q8 0 8 9t-8 9zM992 180q-6 0 -6 -9t6 -9t6 9t-6 9zM1132 198q-6 0 -6 -9t6 -9q10 0 10 9t-10 9zM1200 358q-6 0 -6 -9t6 -9q4 0 4 9t-4 9zM1144 432q-10 0 -10 -10t10 -10 q6 0 6 10t-6 10zM1058 1118q-6 0 -6 -10t6 -10q10 0 10 10t-10 10zM300 1238q6 0 6 -10t-6 -10q-8 0 -8 10t8 10zM334 1264q-4 0 -4 -10t4 -10q10 0 10 10t-10 10z" />
<glyph unicode="d" horiz-adv-x="1488" d="M504 -30q-8 4 -21 10t-17 6l-10 -10q-2 0 -5 -1t-7 -1h-8l2 18q-4 2 -13 0t-13 2q-4 0 -8 4q-2 2 -4 6l-6 2l-78 56l-8 2q-46 20 -90 49t-76 69q-2 4 -2 8t-1 7t1 7l-15 15l-15 15l14 6q-16 -4 -24 17t-13 49t-7 55t-4 35q-8 44 -14 97t-2 105t21 98t57 76q8 18 25 38 t33 39t29 36t15 31q2 4 -3 8t-9 6q40 14 64 39t56 47l-22 2q2 10 16 23t32 25t35 19t25 5l6 -14h8h4q4 -2 15 5t15 11q0 -2 4 2q2 2 4 2l-12 16q4 4 18 7t20 7h8h4l-16 -20q28 28 57 31t63 7q10 2 30 5t40 7t36 7t20 3h6q4 0 5 -1t5 -1q34 -4 70 -13t70 -19q8 -2 20 -13 t22 -13t12 6t4 14q6 36 2 90t-10 112t-13 111t-7 87q-2 16 -3 54t-2 81t-2 81t-1 56v12q0 4 1 7t1 5q4 30 16 51l28 49q28 -2 44 3t31 11t35 10t60 -2q10 -2 35 -5t31 -5q12 -18 30 -27t36 -16t34 -16t22 -25q22 -100 20 -205t2 -207q4 -2 8 -13t2 -15q0 -16 3 -58t7 -90 t8 -91t6 -61q12 -18 13 -40t0 -46t-3 -47t2 -43v-588q-8 -28 1 -53t5 -53q-4 -16 -10 -20t-8 -20t4 -39t14 -44t15 -36t7 -17q-2 -16 -10 -21t-22 -15q4 -2 12 -18l10 -20v-6q-10 0 -15 -6t-9 -15t-6 -18t-2 -13q-12 2 -17 8t-10 13t-10 13t-15 8h-6q-2 -2 -4 -6t-4 -7 t-2 -5q0 12 -8 22t-17 21t-14 20t3 19l-20 -10v-18q0 -20 2 -28q2 -2 2 -4q0 -4 2 -6l4 -8q-20 -30 -46 -24q-34 6 -44 44q-4 0 -11 -4t-11 0q-4 0 -8 14t-8 16q0 4 -2 6t-4 2q-2 2 -16 -1t-16 -1h-6q-6 0 -14 13t-14 30t-10 32t-4 21q-20 2 -34 31t-21 66t-7 73t6 54 q-24 -12 -45 -34t-42 -46t-43 -47t-48 -39q0 -4 3 -8t7 -4l8 4q4 2 7 2t7 2q2 4 18 16t20 16l-2 -20q-2 -4 -26 -21t-36 -27q-18 -10 -38 -15t-41 -11t-39 -15t-32 -23q10 4 22 6t28 6l-2 -8q-2 -14 -14 -18t-26 -6t-27 -6t-15 -18l16 -2q6 0 30 6t50 13t49 15t29 10l-26 4 q0 4 4 5t4 5q8 4 37 21t61 37t57 35t27 15q-2 -12 -12 -26t-22 -28t-24 -25t-16 -15q-22 0 -34 -9t-20 -20t-15 -20t-17 -7l2 10q-16 2 -25 -6t-15 -17t-13 -17t-19 -6q-4 0 -9 1t-9 9q-6 -12 -17 -15t-22 -5t-20 -6t-11 -18q0 2 -7 12t-11 10q-8 2 -15 -4t-16 -13t-20 -12 t-29 -1q0 10 -7 12t-13 4q-10 2 -19 1t-7 -17l-10 8q-12 -8 -16 -4h-12zM420 8q-4 0 -5 -7t3 -7q6 -2 7 5t-5 9zM636 46q-4 0 -7 -5t-7 -3l22 6h-2zM758 46q8 -2 6 -11t-8 -7t-5 11t7 7zM1254 -4q-6 0 -8 -10t4 -10q10 -2 12 8t-8 12zM1118 36q-4 0 -5 -6t3 -6q14 -4 2 12z M1136 40q-6 2 -7 -8t5 -12q10 -2 11 8t-9 12zM1380 6q-10 2 -11 -8t9 -12q6 -2 7 8t-5 12zM1300 38q-8 0 -9 -10t5 -10q6 -2 8 8t-4 12zM1390 24q-6 2 -7 -8t5 -12q10 -2 11 8t-9 12zM906 120q-10 2 -12 -8t8 -12q4 0 6 10t-2 10zM472 304q26 -32 42 -53t50 -25q12 -4 22 -4 l130 40h8q14 12 28 22q12 10 24 18t20 16q4 2 16 11t25 20t23 20t14 11l10 10q4 2 7 7t7 7l6 -8v-4v-6q-4 -4 -10 -8q-10 -6 -14 -6v-8q4 0 23 -4t23 -4q2 -2 18 -10t20 -4q14 4 23 28t13 40q0 6 3 15t-7 13l14 96l-6 284q0 40 -4 59t-38 25q-140 28 -255 -17t-186 -135 t-88 -209t39 -237zM852 232q-4 6 -10 1t-2 -9t10 0t2 8zM96 394q-6 0 -7 -7t5 -7q6 4 2 14zM866 268q-6 0 -7 -10t5 -10q8 -2 10 8t-8 12zM886 272q-6 2 -7 -5t5 -9q10 -2 11 5t-9 9zM1314 212q-8 0 -9 -7t7 -7q8 -2 9 5t-7 9zM90 428q-4 4 -5 -4t3 -4q6 0 7 3t-5 5z M900 282l10 8h-8zM872 306q-6 2 -8 -8t4 -12q10 0 12 9t-8 11zM932 306q-10 2 -11 -8t9 -12q4 0 5 10t-3 10zM86 470q-8 0 -9 -10t7 -10q6 -2 8 8t-6 12zM978 320q6 -2 5 -12t-7 -8q-8 2 -7 12t9 8zM1386 270q-4 -16 10 -18v4v4q0 2 -2 9t0 11q-2 -4 -5 -6t-3 -4zM868 344 q-4 2 -5 -5t5 -3q4 -2 4 2t-4 6zM896 340q-6 0 -7 -8t5 -8q10 -2 11 6t-9 10zM942 332q-4 2 -5 -6t3 -8q8 -2 9 6t-7 8zM82 516q-2 2 -4 -10t2 -8q6 2 7 8t-5 10zM78 538q-4 0 -5 -5t3 -5q6 0 2 10zM80 592q-10 2 -12 -8t8 -12q4 -2 6 8t-2 12zM404 1064q-8 2 -9 -7t5 -11 q4 0 6 9t-2 9zM924 1074q6 -16 23 -21t33 -7q4 20 -8 21t-22 3q-12 4 -26 4zM978 1116q-6 0 -7 -10t5 -10q6 -2 7 8t-5 12z" />
<glyph unicode="e" horiz-adv-x="1280" d="M208 308q-10 24 -24 50t-40 36q-44 68 -73 131t-41 126t-8 129t26 138q14 50 25 102t37 98q40 60 97 110t125 86t141 56t145 20q4 0 16 -3t25 -7t24 -7t15 -3q14 -4 18 -8t6 -10t5 -11t17 -9q4 0 23 -4t23 -4q10 -2 29 -9t40 -17t38 -21t23 -19q4 -4 6 -16t4 -12l6 -2 l4 2q4 0 6 6t2 8l13 -3t26 -7t23 -11t4 -13l60 -58q-4 0 -4 -4t4 -4q2 -4 22 -12t22 -8q14 -40 31 -79t17 -85q0 -28 -11 -54t-17 -54q-2 -4 -5 -23t-5 -25q-4 0 -6 -2l-4 -4q-2 -4 -18 -15t-20 -13q-2 -4 -10 -12l-18 -18t-18 -19t-8 -11q-44 -30 -98 -44t-112 -20t-116 -6 t-110 -2q-10 0 -23 -1t-27 -3q-16 -2 -34 -4v-20q10 -16 18 -30q8 -12 16 -25t14 -21q40 -58 95 -103t111 -83q6 -6 26 -14t41 -17t38 -16t21 -11h38q24 0 52 12t57 25t54 23t41 4q2 0 6 -8t4 -12q4 4 17 12t19 8q4 0 14 -7t12 -13l-26 -26q4 0 6 -4t6 -4v-8v-2 q-6 -4 -21 -15t-19 -13l-4 -4l-4 -4q2 -4 4 -6q0 -2 1 -2t1 -2t2 -2q0 -4 -4 -10t-4 -10q4 6 23 13t25 7q4 0 10 -2q4 -2 9 -3t9 -3q2 -4 9 -6t11 -6v-4v-4l-60 -54h12l74 48h8q-6 -6 -19 -23t-13 -33l-20 -11t-44 -25t-44 -27t-20 -15q8 4 18 1t12 -7q-16 -8 -45 -19 t-60 -22t-58 -19t-39 -8q-36 0 -68 4t-64 4h-6q-2 0 -9 -4t-11 -4h12q-16 12 -38 18t-47 10t-50 9t-45 11q-12 2 -31 8t-39 12t-34 10t-16 4q-64 28 -122 73t-104 99q-8 8 -21 27t-27 27h-8zM1118 234q-8 0 -8 -10t8 -10t8 10t-8 10zM1054 750q0 4 -7 4t-7 -4q6 -8 14 0z M1118 824q-8 0 -8 -10t8 -10t8 10t-8 10zM506 922q26 0 51 -6t47 -6q32 0 57 2t65 6q16 10 22 38t6 44q0 22 -11 42t-35 20q-16 0 -50 -14t-68 -35t-59 -46t-25 -45zM526 1004q32 28 65 54t75 32q0 10 -9 9t-13 -1h-14q-16 -4 -36 -14t-20 -14v-20zM986 1210q-2 0 -2 -5 t2 -5q4 2 4 6t-4 4zM948 1230q-6 0 -6 -10t6 -10q8 0 8 10t-8 10zM894 1258q-6 0 -6 -10t6 -10q4 0 4 10t-4 10zM914 1258q-10 0 -10 -10t10 -10q4 0 4 10t-4 10z" />
<glyph unicode="f" horiz-adv-x="1136" d="M576 48q-12 0 -13 -7t-17 -7v28q-16 0 -20 -12t-20 -22q-16 20 -36 29t-20 35h14q0 2 -8 15t-18 30t-20 33t-12 24q-4 6 -6 20t-3 28t-3 26t-8 12q-14 54 -24 108t-4 106l-20 14q-6 40 -12 76q-4 32 -9 64t-7 54q-4 4 -2 15t2 13h-12q-6 0 -23 -8t-21 -12q8 -16 -10 -30 t-45 -27t-52 -24t-29 -19q-10 16 -6 17t4 17q-30 0 -49 -13t-47 -13q-42 0 -81 17t-85 17q0 2 -6 12t-14 20t-17 18t-13 8l34 20q-10 0 -14 5t-5 13l-2 16t-7 14q6 4 19 13t26 19t25 19t16 13q24 20 86 55t128 70t117 64t53 39q4 4 -3 24t-7 24q-2 56 -6 114t-4 116 q0 10 -2 26t-2 28q18 0 17 3t-1 11q6 82 14 153t25 137t46 129t75 129q24 34 68 57t94 37t100 20t88 6q36 0 67 -6t60 -18t59 -28t64 -34l8 -6q2 -2 14 -9t25 -15t25 -15t16 -9q6 -4 14 -13t18 -19l20 -24v-20h-14q0 -12 9 -26t19 -30v-6v-2l-10 -10l-10 -10 q-12 -10 -34 -25t-24 -15l-20 12q0 -2 -4 -13t-4 -15v-6v-4l10 -10l10 -10l-4 -4q-2 -2 -8 -2h-2h-6q-2 0 -9 5t-15 9t-15 8t-9 4l-2 4q-14 0 -19 -7t-25 -7q-28 0 -57 3t-57 7q-22 4 -42 17t-48 13q-2 0 -11 -2t-11 -2q-34 -46 -48 -99t-18 -109t-2 -112t2 -106v-6 q0 -4 1 -17t3 -28t4 -29t4 -20h28q28 0 55 6t57 6q16 0 27 -1t27 -11l-6 -8q22 -8 43 -22t49 -16q12 -2 28 0t31 0t25 -11t10 -29q0 -10 -10 -14t-10 -16v-4q0 -4 8 -10t12 -10q-12 -6 -22 -18t-21 -25t-26 -22t-41 -9q0 -10 3 -15t3 -8t-4 -7t-16 -10q-66 -4 -119 -13 t-117 -33v-24q0 -92 12 -189t28 -191q0 -2 4 -14l4 -12l7 -21t5 -17q4 -26 12 -69t15 -83t13 -71t6 -33v-54h12q0 -16 -23 -27t-35 -11q-10 0 -14 5t-10 5q-18 0 -25 -18t-13 -39t-15 -38t-33 -17q-4 0 -24 15t-28 19q-2 2 -12 2q-6 0 -12 -2q-4 0 -7 7t-7 7h-4zM534 92 q-6 0 -6 -9t6 -9q10 0 10 9t-10 9zM720 160q-2 0 -2 -11t2 -9q16 8 0 20zM386 348q-10 0 -10 -10t10 -10q6 0 6 10t-6 10zM130 664q-10 0 -10 -8t10 -8q6 0 6 8t-6 8zM226 694q-4 -2 -11 -9t-9 -11l28 20h-6h-2zM1048 1090q-6 0 -6 -10t6 -10q10 0 10 10t-10 10zM270 1340 q-4 0 -4 -8t4 -8q8 0 8 8t-8 8z" />
<glyph unicode="g" horiz-adv-x="1472" d="M1404 -126q-4 0 -4 -7t4 -7h2v-88q0 -2 3 -9t3 -11q6 -6 6 -4v-2h-26q0 -8 -5 -36t-13 -60t-15 -57t-11 -27l10 -10q-8 -6 -21 -27t-27 -42t-25 -38t-13 -17q4 -8 13 -9t15 3q-16 -16 -21 -30t-12 -28t-21 -26t-48 -22l8 -8q-34 -20 -73 -47t-83 -27q-2 -2 -2 -4 q0 -6 2 -8q0 -4 6 -10t10 -8q-18 4 -33 -3t-29 -17t-27 -19t-31 -9q-10 0 -17 6t-17 6q-16 0 -16 -12t-6 -14q-4 -4 -17 -7t-23 -7h-8q-8 -2 -33 -7t-53 -11t-53 -11t-33 -5q-8 -4 -29 -8t-23 -4q-4 0 -15 4t-13 8l100 14l-8 14q-44 -4 -94 -1t-101 14t-97 30t-82 47h28 l-4 4q-6 6 -10 6q-4 8 -25 18t-29 14l10 8l-10 6h10q16 0 31 -3t31 -3q0 2 -9 11t-22 18t-27 17t-22 8q2 2 3 17t1 32t-1 31t-1 18q0 16 -6 23t-20 15l8 8h2q26 0 39 -15t37 -15l8 -16q4 2 10 9t10 11v2q0 12 -7 25t-7 23v16q2 -2 32 -8t66 -13t69 -13t41 -6q48 0 112 17 t125 47t112 71t73 91q16 30 40 61t24 61v28l-12 16q0 18 3 27t7 16t7 14t3 19q0 6 1 16t-9 12q2 36 2 38t-2 -2t-6 -3t-10 35q-4 24 -9 70t-14 96t-22 95t-31 65l-36 -36l-12 10q-6 6 8 20t26 28q-46 -38 -80 -70t-74 -72v-12q-4 -12 -15 -17t-23 -8t-21 -10t-9 -23v-4 q4 0 15 4t13 4q24 4 41 20t32 37t29 41t30 34l8 -10q12 -10 -15 -38t-61 -61t-62 -66t-18 -51q-12 -4 -36 -9t-49 -11t-46 -14t-29 -18h56q-14 -14 -38 -21t-44 -7l-14 6q-2 0 -26 7t-28 7q-2 0 -10 -4q-4 -2 -8 -2h-18q-32 0 -56 15t-46 33t-47 33t-57 15q-24 24 -46 48 q-18 22 -36 45t-24 45q-2 6 -4 25t-16 23q-16 70 -20 136t-4 142v106q0 6 2 10q4 8 4 10q6 34 12 74t13 80t19 77t30 67q8 10 31 36t49 54t48 54t32 36q26 30 51 48t51 32t56 25t68 27l8 20q42 -4 89 2t87 6q98 0 180 -23t172 -65q12 -6 29 -16t33 -21t32 -21t28 -14h10 q20 -30 28 -72t8 -86t-2 -87t2 -75q10 -94 31 -184t44 -181t45 -182t32 -185h-10q-4 6 -6 10q-4 8 -4 10l-8 -2q0 -4 1 -12t4 -16t9 -12t14 4q10 -40 16 -82t-2 -88q4 0 4 2q0 -16 -1 -30t-1 -30h-2zM480 348q0 -14 8 -14h6q6 6 16 17t24 22t28 20t28 9q4 4 14 16t20 25 t19 26t11 19q4 4 15 23t13 23q12 14 23 22t20 15t15 15t10 24q6 18 18 41t26 46t24 44t10 39q0 2 -1 3t-1 3q-2 2 -2 4t-2 4l-4 4q4 2 10 12t6 14q0 2 -1 14t-3 25t-3 23t-3 12q0 30 1 70t-17 62h-36q-90 0 -151 -55t-97 -135t-51 -170t-15 -158v-45t2 -37t7 -38t13 -44z M742 242q8 8 37 32t61 51t57 48t25 25q0 10 -1 17t-11 11q8 0 12 2l8 4v6q0 10 5 11t-5 1zM1160 -650q-4 0 -6 -5t2 -9q-8 -4 -7 -9t-7 -15q-6 -8 -16 -14t-21 -11t-19 -9t-8 -6h48q8 6 26 25t18 23v16h-4q4 14 -6 14zM1072 -590q-4 0 -6 -15t0 -34t5 -34t7 -15q2 0 3 15 t0 34t-4 34t-5 15zM694 214q-2 -4 2 -12t6 -8l28 28l-8 12q-4 4 -14 -5t-14 -15zM282 -562q-8 0 -8 -10t8 -10l2 2q0 -10 6 -10q10 0 10 9t-10 9h-2q0 10 -6 10zM680 84q-22 0 -32 -16q10 0 21 3t11 13zM450 48q-4 0 -11 -5t-9 -9h30q0 4 -4 9t-6 5zM796 -820q-8 0 -8 -10 t8 -10t8 10t-8 10zM102 354q-8 0 -8 -10t8 -10t8 10t-8 10zM992 -782q-8 0 -8 -10t8 -10t8 10t-8 10zM1098 -668q-10 0 -10 -10t10 -10q6 0 6 10t-6 10zM364 -562q-6 0 -6 -10t6 -10q10 0 10 10t-10 10zM682 188q-6 0 -6 -10t6 -10q10 0 10 10t-10 10zM668 168 q-10 0 -10 -10t10 -10q4 0 4 10t-4 10zM1266 -452q-10 0 -10 -10t10 -10q4 0 4 10t-4 10zM1286 8q-10 0 -10 -10t10 -10q4 0 4 10t-4 10zM1412 10q0 6 1 -3t1 -24t-1 -29t-5 -20q2 20 3 38t1 38zM394 92q-10 0 -10 -9t10 -9q6 0 6 9t-6 9zM1360 168q-6 0 -6 -10t6 -10 q8 0 8 10t-8 10zM1284 -78q-4 0 -4 -9t4 -9q10 0 10 9t-10 9zM1390 -58q-8 0 -8 -10t8 -10q6 0 6 10t-6 10zM656 -792q-10 0 -10 -9t10 -9q4 0 4 9t-4 9zM1142 -650q-8 0 -8 -9t8 -9t8 9t-8 9zM1226 -52q-6 0 -6 -8t6 -8q10 0 10 8t-10 8zM140 374q-6 0 -6 -10t6 -10t6 10 t-6 10zM870 -840q-10 0 -10 -7t10 -7q6 0 6 7t-6 7zM1132 -632q-4 0 -4 -9t4 -9q8 0 8 9t-8 9zM1252 -588q-4 0 -4 -7t4 -7q10 0 10 7t-10 7zM770 618q-6 0 -6 -8t6 -8t6 8t-6 8zM1286 -40q-6 4 -6 -9t6 -11q4 14 0 20zM1390 -96q-6 0 -6 -10t6 -6q4 2 4 8t-4 8zM1348 -340 q-4 0 -4 -6t4 -6q12 6 0 12zM1406 -140v14q8 0 8 -6t-8 -8zM1298 -132q-6 2 -6 -5t6 -3q2 0 2 4t-2 4zM1126 -688v8h-14zM362 -782q4 4 -3 4t-3 -4q0 -6 3 -6t3 6zM308 82v10h-8zM1156 -664q0 -4 4 -4q2 0 6 4h-10zM288 -572q-4 -2 -4 -8q4 0 4 8z" />
<glyph unicode="h" horiz-adv-x="1358" d="M44 1508q0 2 1 11t1 20t1 21l1 10q0 12 -2 57t-3 96t-3 95t-4 54q0 4 2 11t2 14t-3 11t-13 4q2 14 9 7t17 -1q24 18 36 31t23 20t29 9t58 0q32 0 47 -6t24 -15t18 -19t27 -18q4 -4 20 -3t20 1q22 -8 33 -25t15 -38t7 -43t9 -38l4 -256q12 -38 15 -81t1 -87t-5 -88t-3 -86 q2 -42 10 -89t4 -93q-2 -6 -2 -13v-11l-10 -8q-2 -16 5 -37t9 -37q0 -8 -2 -26t-5 -38t-5 -38t-2 -24h12l-2 -28q4 2 15 9t22 16t20 18t11 13v12q0 4 1 8t1 8q6 16 15 16t15 10q8 12 12 22t7 19t9 17t20 14q12 12 14 28q16 0 16 14l2 4q0 4 -4 8t-8 4q4 4 14 23t22 23l6 -20 q2 0 9 3t11 3h2h4q4 0 7 -3t7 -5l6 6q2 16 -11 27t-25 15q16 16 43 39t57 44t61 35t55 14q10 0 13 -6t13 -8q6 0 10 2t6 4q6 0 10 2q8 4 10 4q14 -2 35 -12t37 -12q4 2 10 6q8 8 12 8q78 -4 130 -45t85 -106t50 -145t23 -162t4 -157t-6 -129t-17 -105t-29 -100t-32 -99 t-26 -102q-16 10 -29 0t-17 -26l8 76q-2 -4 -7 -7t-5 -7h-8q-16 0 -18 14t-1 32t0 33t-15 19l-10 -16h12q-2 -32 -16 -66l-8 22q-4 -10 -12 -36t-14 -32q0 -2 -4 -11t-8 -9h-2h-6q-2 6 -4 10t-2 10l2 4v4q0 4 4 20t6 20q0 16 -12 24t-22 24q-4 -2 -6 -4q-4 -4 -4 -8l4 -12 q4 -12 4 -16v-2q-2 -14 -10 -16t-18 0q-10 0 -13 5t-4 11t-2 13t-7 11l20 20q-8 0 -24 5t-22 5l-4 4l-8 8h-8q-2 28 -5 43t1 43q2 16 4 27t12 27q0 6 2 20t3 30t3 30t2 20q0 10 2 27t3 34t2 30t1 17v19t1 35t2 34t1 20q0 2 -1 34t-4 70t-9 68t-18 30t-17 -3t-9 -6t-12 -6 t-26 -3q0 -14 -5 -20t-13 -11t-16 -9t-14 -14v-10q-2 -2 -9 -12t-14 -22t-13 -24t-6 -14q-4 -4 -3 -24t-1 -24q-8 -22 -15 -34t-15 -22t-17 -19t-21 -23q-4 -4 -10 -19t-13 -33t-14 -35t-11 -25q-10 -20 -38 -69t-59 -103t-60 -102t-41 -66q-4 -8 -15 -27t-25 -38t-31 -33 t-31 -10q-6 0 -24 8t-22 14q-8 -14 -22 -21t-26 -7q-16 2 -15 20t1 24q-14 0 -23 -4t-19 -2h-8q-4 0 -14 5t-14 9t-13 15t-20 23t-21 23t-14 15q-2 4 -12 10t-14 12h-10q-10 2 -13 14t-3 25t1 23t1 12q2 156 7 311t-1 309zM1192 52q-8 0 -9 -7t7 -7q4 -2 5 5t-3 9zM966 156 q-10 2 -11 -6t9 -10q6 0 7 8t-5 8zM536 460q0 4 -4 4t-4 -4t4 -4t4 4zM718 562q-10 0 -11 -8t9 -8q6 0 7 8t-5 8zM728 592q-6 0 -7 -10t5 -10t7 10t-5 10zM736 600h12l-10 8zM666 630l-2 -2v-6q0 -4 -3 -6t-3 -6zM760 638q-6 2 -7 -8t5 -12q10 0 11 10t-9 10zM572 654 q-6 0 -6 -10t6 -10t6 10t-6 10zM668 670q0 -4 -3 -10l-5 -10v-6v-2l16 16zM628 672q0 2 -3 0t-7 -6t-7 -9t1 -5q2 0 11 7t5 13zM648 672q-4 0 -5 -10t3 -10q10 -2 11 8t-9 12zM698 678q-8 0 -9 -10t7 -10t9 10t-7 10zM670 698q0 -4 -3 -11t-3 -9q4 4 20 17t26 13q0 10 -1 19 t-7 15q-8 -2 -19 -9t-17 -15q0 -4 2 -6l4 -8v-4zM584 702q-6 0 -6 -10t6 -10q10 0 10 10t-10 10zM458 728q-6 0 -6 -7t6 -7q2 6 0 14zM618 720q2 -10 12 -12t16 -2v14h-28zM740 740q-8 -2 -9 -9t-3 -13v-6q0 -4 1 -6t1 -4q10 18 10 30v8zM758 716q0 -4 4 -8t4 -8 q34 28 38 66q-16 0 -33 -19t-19 -29zM506 770q-4 0 -4 -5t4 -5q4 2 4 5t-4 5zM670 762q-10 2 -11 -8t9 -12q4 0 5 10t-3 10zM734 750q0 6 -6 6t-6 -6q0 -4 5 -4t7 4zM564 788q-6 0 -7 -10t5 -10q10 -2 11 8t-9 12zM652 784q-10 0 -11 -10t9 -10q4 0 5 10t-3 10zM760 828 q-16 0 -31 -22t-15 -36q10 -2 22 10l8 -12q14 34 16 60zM578 814q-6 0 -8 -2l-4 -4v-8l-2 -4q4 0 7 4t7 6v2v6zM696 790q2 6 -3 6t-7 -6q2 -2 6 -2t4 2zM804 846q-22 -12 -24 -36l6 -12q4 12 8 23t10 25zM532 824q-8 2 -9 -6t7 -10q6 0 7 8t-5 8zM550 836q-4 0 -4 -6t4 -6 q10 4 0 12zM850 824q-6 0 -7 -10t5 -10q10 0 11 10t-9 10zM728 836q-6 2 -6 -8t6 -12q10 0 10 10t-10 10zM580 842h8l2 12zM692 850q-6 0 -7 -10t5 -10q8 0 9 10t-7 10zM758 848q4 0 4 -3t2 -3l6 6h4q4 0 4 6v2l2 4zM702 858l12 6h-10zM826 858q-4 2 -5 -5t3 -9q10 0 11 7 t-9 7zM732 876q-6 2 -7 -8t5 -12q10 0 11 10t-9 10zM586 898q-10 2 -11 -6t9 -10q6 0 7 8t-5 8zM794 890q-10 0 -11 -8t9 -8q6 0 7 8t-5 8zM574 910q10 -2 9 -12t-11 -8q-6 0 -5 10t7 10zM754 902q-6 0 -7 -10t5 -10t7 10t-5 10zM848 898q-4 0 -5 -10t3 -10q6 0 7 10t-5 10z M684 930q-4 2 -7 -2t-7 -4v-2v-8zM736 920q-6 2 -7 -7t5 -11q10 0 11 9t-9 9zM858 906q2 6 -8 6t-6 -6q-2 -4 5 -4t9 4zM688 958q-10 2 -11 -6t9 -10q4 0 5 8t-3 8zM702 978q-6 0 -6 -10t6 -10q8 0 8 10t-8 10zM720 1072q-2 0 -12 -9t-12 -11h6q8 0 14 3t14 17h-4h-6z M744 1100q-8 0 -9 -9t7 -9q6 -2 7 7t-5 11zM794 1128q-10 0 -11 -10t9 -10q6 -2 7 8t-5 12z" />
<glyph unicode="i" horiz-adv-x="662" d="M294 48q-4 0 -10 -5t-10 -9q-2 2 -10 11t-18 19t-18 21t-10 17l-6 318q-18 26 -19 39t-9 45q-8 66 -13 142t-12 151t-19 146t-34 125v148q-20 20 2 43t66 42t101 30t106 9t81 -22t26 -62q50 -134 79 -272t41 -279t12 -283t-6 -284v-18q0 -8 -4 -32t-4 -34q-6 0 -21 -3 t-19 -3h-8q-16 0 -25 7t-21 7v-8q0 -4 3 -18t3 -16q0 -4 -4 -12q-2 -4 -2 -8q-6 16 -16 24t-14 24q-10 -6 -14 -15t-9 -16t-12 -12t-21 -5h-18t-24 1t-22 2t-10 5v26q0 4 -21 9t-37 5zM378 48q-4 0 -4 -7t4 -7q6 6 0 14zM324 74q-8 0 -8 -10t8 -10q6 0 6 10t-6 10zM324 102 q-8 0 -8 -10t8 -10q6 0 6 10t-6 10zM300 1632q-20 6 -56 20t-71 33t-61 43t-26 50v6q0 8 2 14q4 12 4 14t-4 6l-2 2q16 24 41 41t55 29t61 18t57 6q2 0 19 -3t19 -3q2 -2 17 -5t32 -6t33 -6t20 -3q20 -8 40 -28q6 -10 27 -34t25 -34v-8q0 -14 -6 -20v-64q-4 -4 -14 -13 t-20 -20t-20 -21t-12 -14h-160z" />
<glyph unicode="j" horiz-adv-x="690" d="M158 596q-8 0 -8 -4q-4 36 -12 109t-19 152t-21 152t-18 109q-10 52 -11 95t-1 99q112 32 177 32t107 -28t73 -85t75 -139v-14q22 -136 51 -272t54 -273t42 -276t17 -281v-126q-12 -28 -13 -58t-7 -62q-6 -24 -25 -46t-23 -48q-2 -28 1 -43t-11 -41q-46 -84 -95 -150 t-119 -134q-34 -12 -73 -33t-81 -42t-84 -37t-80 -16q-10 0 -16 2t-4 18q-30 -4 -48 -3t-33 6t-31 11t-40 14q-4 0 -25 1t-43 4t-38 10t-8 19q-24 28 -49 52t-53 42v6q0 16 13 22t13 34q0 -2 2 -2l11 -11l9 -9v36h14q0 34 -22 63t-22 63q0 4 1 9t1 9l8 -14v86q4 -4 13 -15 t18 -24t14 -26t3 -21q4 6 13 10t13 4q10 -6 13 -13t5 -13t6 -10t16 -4q4 0 6 2t2 4q0 10 -3 26t-8 32t-10 29t-7 19h4q12 0 16 -11t7 -24t10 -24t27 -11q0 36 -9 60t-17 58h10q2 -6 12 -28t14 -28q4 -8 18 -17t29 -18t28 -16t19 -13q2 -4 10 -17t17 -27t20 -25t21 -11 q20 0 38 14t34 33t28 38t20 29q74 100 98 221t26 241q-2 6 -5 31t-5 54t-4 55t-2 34v62q0 2 -14 15t-14 15q-14 16 -26 52t-19 77t-11 80t-2 59q-4 -6 -14 -6q0 6 -1 11t-1 11q2 -2 8 -2t6 10t-6 10zM304 1694q4 2 8 13t4 15q0 10 -13 20t-25 10l-10 -2q-2 0 -8 -5t-8 -5 q-4 0 -11 10t-9 10q-16 6 -48 13t-65 17t-58 26t-25 40q0 26 6 29t22 17q12 6 14 18l4 24t9 21t25 9q8 0 18 -4t14 -4q-8 28 24 28q2 0 14 -5t28 -9q18 -8 38 -14h17t21 4t15 11t-1 21q14 -10 27 -11t21 -1v-16h32v-20h8q4 0 8 -8t8 -19t6 -22t4 -15q6 -6 17 -25t13 -23v-8 q0 -24 -17 -36t-33 -32q-4 -6 -5 -19t-2 -27t-7 -24t-20 -10h-12q-4 0 -22 2t-26 6zM164 1946q12 -4 22 -8t20 -7t18 -5h8q2 -2 12 -13t14 -11h10q20 0 20 10q0 4 -8 11t-18 14t-19 12t-11 5q0 4 -8 -2t-12 -6h-8q-4 0 -15 4t-13 4t-4 2q-4 4 -8 4v-14zM68 -836q-8 0 -15 -5 t-7 -15h16q4 0 14 4t12 8q-2 0 -9 4t-11 4zM344 1740q0 -2 4 -6q2 -2 4 -2q4 0 8 4l4 4v10q0 2 -4 6t-8 4q0 -4 -4 -10t-4 -10zM652 -2q-6 0 -6 -10t6 -10q10 0 10 10t-10 10zM214 410q-6 0 -6 -10t6 -10q8 0 8 10t-8 10zM-298 -688q-6 0 -6 -8t6 -8q10 0 10 8t-10 8z M108 -828q-10 0 -10 -8t10 -8q6 0 6 8t-6 8zM-126 -792q-10 0 -10 -8t10 -8q6 0 6 8t-6 8zM-306 -656q-6 0 -6 -10t6 -10t6 10t-6 10zM-258 -488q-6 0 -6 -10t6 -10q4 0 4 10t-4 10zM-258 -716q-6 0 -6 -10t6 -10q4 0 4 10t-4 10zM-212 -772q-4 0 -4 -10t4 -10q6 0 6 10 t-6 10zM194 462q-4 0 -4 -5t4 -3q6 0 6 4t-6 4zM-258 -628q0 2 -6 2t-2 -2q0 -8 4 -8t4 8zM-184 -528h10l-10 12v-12zM-266 -688l8 12h-8v-12zM-298 -676h12l8 8zM-184 -792q0 4 -4 4t-4 -4q0 -2 4 -2t4 2zM644 -142l8 8h-8v-8zM186 490q-4 0 -4 -4t4 -4q2 0 2 4t-2 4z M150 592v-14q-4 6 0 14z" />
<glyph unicode="k" horiz-adv-x="1232" d="M74 748l-36 594q4 20 2 52t-5 67t-6 68t-3 57q-2 42 -5 62t-5 35t-3 35t3 60q0 6 2 29t2 33q2 2 8 15t14 28t16 28t14 17q22 12 61 21t61 7q4 0 8 -1t8 -1q6 -2 10 -2q6 0 14 -4l8 -4q6 0 17 6t11 12q0 -16 15 -23t25 -9h6q0 2 2 2t4 2l6 6h4l6 -2q20 -24 39 -39t33 -32 t22 -40t6 -63q-2 -6 -6 -29t-6 -29q-4 -50 -1 -79t7 -53t9 -52t7 -76q2 -34 3 -75t3 -85l4 -88t6 -82h6q8 0 16 7t15 16t15 15t16 2l222 202q10 26 34 46t53 32t61 18t56 4q12 0 15 -6t4 -12t2 -11t9 -5l2 4q2 -2 6 0t8 6t8 6l4 4q2 0 4 2l-2 -32q2 0 4 -1t4 -1h4l8 -8 q4 0 20 3t20 1q2 0 9 3t11 3l-2 -36h23t23 -2l6 -6q-8 -32 -4 -65t24 -61q-24 -30 -37 -58t-43 -58q-4 -2 -12 -8t-17 -13t-16 -14t-7 -9q-6 -4 1 -2t-1 -2q-22 -22 -48 -39t-52 -43q-6 -8 -25 -29t-42 -44t-44 -40t-31 -17l-148 -132h-2v-4l2 -2q0 -4 3 -8t5 -8 q72 -54 139 -116t133 -124t134 -116t140 -90l6 -6l16 -2l-4 -12q-2 -4 -2 -14q0 -4 -2 -8q-8 -10 -16 -6q22 -12 14 -26l-20 12l-12 -18l16 -8q4 -2 0 -17t-8 -25h-6h-8q-2 0 -15 8t-17 8q0 -8 5 -14t9 -14q-10 2 -19 -6t-20 -17t-23 -17t-26 -4q-6 2 -18 7t-27 9t-30 4 t-25 -8q-32 10 -41 17t-13 15t-11 19t-37 27q-2 2 -11 -3t-19 -11t-16 -11t-2 -3q-20 42 -54 70t-74 48l4 6q-4 2 -8 7t-7 8t-7 1t-10 -14l-12 16q-8 6 -26 24l-39 39t-41 38t-30 17q-6 0 -23 6t-23 10l-10 -12q2 -8 14 -18t10 -18q0 -2 -2 -9t-5 -15t-5 -15l-2 -7 q0 -4 5 -21t5 -21q-2 -6 -2 -12v-22q-4 -52 -18 -107t-18 -107q0 -2 4 -6l4 -4q4 -4 4 -6v-4h-12q4 -20 -6 -29t-25 -13t-32 -7t-25 -9q-2 -4 -6 -16l-4 -12l-6 2q-8 0 -10 4t-3 10t-5 11t-14 5q-16 0 -26 -14t-26 -12h-6l-44 52q-6 -2 -27 4t-43 15t-39 19t-19 14t-3 19 t-1 19q-4 2 -13 5t-7 5l-4 8h20q0 2 2 4l4 8q-4 0 -7 7t-7 9zM346 -2q-10 2 -10 -8t10 -12q6 0 6 9t-6 11zM320 6h2l6 -2l8 10zM160 34q-10 0 -11 -9t9 -9q6 0 7 9t-5 9zM358 48q-4 2 -4 -3t4 -5q4 2 4 6t-4 2zM718 270q-8 4 -12 -5t0 -11q8 -4 13 4t-1 12zM906 174q8 0 2 3 t-8 -1q0 -4 3 -5t3 3zM828 168q-4 0 15 -3t42 -5t43 -3t18 1q0 2 -18 5t-41 4t-41 2t-18 -1zM846 164q6 -4 2 -11t-8 -3q-10 4 -5 11t11 3zM872 150q4 -4 0 -11t-8 -3q-10 4 -5 11t13 3zM1160 170h12l-10 8zM1074 1356q0 4 -6 4t-2 -4q0 -6 4 -6t4 6z" />
<glyph unicode="l" horiz-adv-x="592" d="M288 4q-2 0 -5 -1t-7 -1q-6 -2 -10 -2l-4 -6q-30 2 -27 17t5 27q-18 0 -25 -3t-12 -7t-11 -7t-24 -3h-10q-2 0 -4 2q-2 4 -8 12t-10 8q-2 0 -8 -1t-8 -3q2 26 -6 50t-4 48q0 6 2 13t10 9q-8 4 -11 18t-3 24l-10 414q-4 2 -8 9t-2 11q0 2 2 13t4 24t3 24t-1 11q0 8 -1 33 t-2 54t-3 54t-4 33v8l-2 204q2 4 -2 18t-4 18v4q0 2 1 3t1 3q0 10 -1 50t-3 86t-4 86t-2 50q0 18 1 56t2 79t2 75t3 46q4 52 27 96t58 75t81 47t98 12q84 -6 120 -40t46 -85t3 -114t-9 -123q0 -18 -2 -54t-3 -72t-1 -64t2 -34q0 -22 1 -76t3 -115t5 -115t3 -74l-2 -12 l16 -458q-6 -42 -7 -83t1 -82t2 -83t-4 -84v-4q0 -6 -3 -19l-6 -26t-6 -25t-3 -16q-4 -4 -10 -4h-10h-2h-8q-4 0 -6 2q-4 4 -4 6q-36 2 -48 -8t-18 -24t-14 -25t-34 -9q-20 2 -30 15t-26 15zM386 38q-10 0 -11 -10t9 -10q6 0 7 10t-5 10zM292 50q-8 0 -9 -10t7 -10q4 0 5 10 t-3 10zM132 68q-8 2 -8 -5t8 -9q4 0 4 7t-4 7zM374 52q4 2 7 5t7 5v6l2 4zM392 100q-10 0 -11 -9t9 -9q6 0 7 9t-5 9z" />
<glyph unicode="m" horiz-adv-x="2188" d="M468 28q-12 -4 -35 -12t-35 -8q-22 0 -46 17t-44 23q-34 8 -55 14t-39 50q-8 20 -11 51t-4 62t-2 61t-3 48q-22 188 -55 372t-55 372q-4 40 -10 82t-6 82v2q0 10 7 36t9 32q6 -4 18 5t24 20t21 22t13 11q10 8 32 9t38 1q12 0 20 -6t14 -14t14 -14t20 -6q8 0 16 6t18 13 t22 11t28 0q32 -12 45 -49t23 -63q4 -6 6 -14t6 -16t6 -18h12q30 36 56 55t66 39l8 8l-8 12q50 28 118 51t122 23q64 0 115 -29t89 -73t67 -95t51 -95t38 -73t32 -29h4q4 8 23 32t23 34q12 16 31 35t27 39q0 4 -1 16t1 12q8 18 35 36t61 34t68 26t56 10q32 0 64 -8t66 -12 h80q4 0 20 -14t20 -14q6 -6 24 -17t24 -13l-12 -8q36 -26 72 -64t64 -83t46 -92t18 -91h-8q-4 12 -10 24q-4 10 -11 19t-11 13v-4v-4q2 -8 5 -22t6 -27t6 -24t3 -13q10 -20 26 -33t20 -33q10 -28 19 -76t15 -100t10 -100t4 -78q0 -2 5 -18t5 -18t1 -13t1 -26v-29v-22v-35 t-2 -25l-10 -10q4 0 9 -17t9 -39t7 -42t3 -26h-80q-6 0 -12 8t-10 18t-6 20t-4 14q24 -8 33 1t13 25q-4 -2 -14 -5t-12 -5h-6h-2q-4 2 -12 9t-8 11v-82q-14 -14 -20 -34q-14 34 -8 60q-4 -4 -6 -10t-6 -10h-2h-6l-4 4l-4 4q-16 -10 -31 -25t-15 -37h-4l-26 54q-26 -12 -43 3 t-28 41t-15 52t-4 38h-14v26q-10 70 -21 158t-27 177t-41 172t-61 147q-4 4 -6 12t-6 8h-2q-22 0 -42 -32t-39 -70t-35 -66t-30 -20q-30 -44 -45 -97t-15 -105v-14q2 6 7 17t10 25t10 25t7 17v24t3 32t10 28t23 12q4 0 5 -2t5 -2q-28 -32 -33 -75t-13 -81q-6 -20 -16 -54 t-19 -67t-16 -58t-9 -27q0 -4 -5 -31t-11 -63t-12 -74t-10 -60q-4 -34 -18 -43t-58 -9q-4 0 -8 2q-8 4 -12 4q-2 0 -12 -10t-14 -10q-6 2 -12 6q-12 8 -16 8q-4 -4 -8 -6q-4 -4 -7 -5t-3 -3q-6 -4 -10 -8l-7 -7t-3 -5l-18 14q-4 0 -15 3t-15 3q-72 10 -123 52t-51 132 q0 34 4 68t4 68q0 162 -40 324t-110 306l-6 6q-2 2 -4 2l-56 -18q2 -6 -5 -28t-18 -49t-22 -53t-15 -40q-6 -46 -8 -93t-6 -93q-12 -4 -16 -17t-4 -19q4 -108 -5 -213t-5 -215l-8 -14q-4 -28 -7 -59t-13 -53q-8 -16 -22 -18t-29 -3t-26 -6t-11 -27q-22 0 -33 6t-21 28z M1924 98q-4 0 -4 -10t4 -10q8 0 8 10t-8 10zM2078 98v6h-8zM1878 124q-6 0 -6 -10t6 -10q10 0 10 10t-10 10zM2098 160q-10 0 -10 -8t10 -8q4 0 4 8t-4 8zM2122 170q-6 0 -6 -9t6 -9q8 0 8 9t-8 9zM2058 180q10 0 10 -10t-10 -10q-6 0 -6 10t6 10zM2030 198h12q0 14 -12 20 v-20zM2078 208q0 4 -6 4t-2 -4q0 -4 4 -4t4 4zM2114 332q-8 0 -8 -10t8 -10q6 0 6 10t-6 10zM1398 450q-4 2 -4 -5t4 -3q4 0 4 4t-4 4zM1418 508q-10 -4 -12 -11t-2 -13v-16q4 4 9 14t5 12v6v8zM2114 398q-8 0 -8 -10t8 -10q6 0 6 10t-6 10zM1324 702q-10 0 -10 -10t10 -10 q6 0 6 10t-6 10zM1360 702q-6 0 -6 -10t6 -10q8 0 8 10t-8 10zM1370 722q-6 0 -6 -6t6 -6q6 6 0 12zM1444 742q-4 0 -4 -10t4 -10q10 0 10 10t-10 10zM1418 750q-6 4 -6 -4t6 -4q4 0 4 4t-4 4zM1380 758q-4 4 -4 -2t4 -6q16 8 0 8zM1324 770q-10 0 -10 -10t10 -10q6 0 6 10 t-6 10zM1464 778q-4 0 -4 -10t4 -10q6 0 6 10t-6 10zM1492 778q-4 2 -4 -5t4 -3q6 0 6 4t-6 4zM1324 790q-10 0 -10 -10t10 -10q6 0 6 10t-6 10zM1390 790q-6 0 -6 -6t6 -6q6 2 0 12zM1360 804q-6 0 -6 -7t6 -7q8 0 8 7t-8 7zM1504 804q-10 0 -10 -7t10 -7q6 0 6 7t-6 7z M1332 824q-6 0 -6 -10t6 -10q8 0 8 10t-8 10zM1380 824q0 6 -8 1t-2 -7q4 -4 8 -1t2 7zM1404 834q-4 0 -4 -8t4 -8q10 0 10 8t-10 8zM542 842q-6 0 -6 -9t6 -9q10 0 10 9t-10 9zM1342 842q-8 0 -8 -9t8 -9t8 9t-8 9zM534 852q-4 0 -4 -9t4 -9q6 0 6 9t-6 9zM582 862 q-4 0 -4 -5t4 -5q4 4 0 10zM1422 894q-16 0 -22 -11t-10 -21l-2 -2q0 -4 1 -5t1 -3q10 8 21 17t11 25zM542 862q12 12 12 20v8h-12v-28zM1390 918q-10 2 -17 -6t-12 -18t-7 -20t-2 -12q8 6 23 24t15 28v4zM1418 870q-10 0 -10 -9t10 -9q4 0 4 9t-4 9zM1520 870q-6 0 -6 -9 t6 -9q8 0 8 9t-8 9zM1464 882q-4 0 -4 -10t4 -10q6 0 6 10t-6 10zM590 890q-6 0 -6 -10t6 -10q10 0 10 10t-10 10zM1484 910q-10 0 -10 -10t10 -10q6 0 6 10t-6 10zM554 938q-4 -4 -8 -14t-4 -14h8h4q4 0 10 8t10 12q-4 0 -6 4t-6 4h-4h-4zM1370 930q-2 2 -8 -3t-2 -9 q16 0 10 12zM1540 930q-8 0 -8 -10t8 -10t8 10t-8 10zM1444 930q0 2 -5 2t-1 -2q0 -6 3 -6t3 6zM590 950q-6 0 -6 -10t6 -10q10 0 10 10t-10 10zM1398 950q-4 0 -4 -6t4 -6q8 4 0 12zM582 978q-4 0 -6 -5t-2 -9l-4 -4l4 -2zM770 1030l-8 -8h2h6l4 4l4 4h-6h-2zM674 1050 q-4 0 -4 -10t4 -10q6 0 6 10t-6 10zM610 1058q-6 0 -6 -8t6 -8q8 0 8 8t-8 8zM694 1070q-2 4 -8 -2t-4 -10q20 0 12 12zM630 1070q0 4 -6 4t-4 -4q0 -14 10 0zM1312 1078q-6 0 -6 -10t6 -10q10 0 10 10t-10 10zM648 1098q-8 0 -8 -10t8 -10q4 0 4 10t-4 10zM1324 1104 q-10 0 -10 -7t10 -7q6 0 6 7t-6 7zM1360 1172q-4 2 -4 -5t4 -3q6 0 6 4t-6 4zM1380 1192h2h8l8 8zM630 1324h8v8zM742 1360q-10 0 -10 -10t10 -10q6 0 6 10t-6 10z" />
<glyph unicode="n" horiz-adv-x="1490" d="M188 12q-8 12 -25 11t-32 -4t-24 -1t-3 18l-58 62q4 22 -2 43t-4 43q0 24 3 62t7 80t8 81t4 63q0 10 1 30t1 24l-46 694l4 148q16 4 27 18t25 24q8 6 27 11t40 9t39 4t28 -2q14 0 35 -5t42 -12t40 -16t29 -19l5 -7t10 -16t9 -17t4 -10q2 -2 5 -6t5 -4q6 -24 6 -58t-1 -64 t-2 -52t5 -22q4 0 8 2t6 2t6 2q18 14 34 23t29 18t22 22t13 37h20v8l22 22q10 10 20 17t16 11q18 16 55 32t79 28t82 19t64 5q2 0 8 -1t12 -1q8 -2 14 -2t28 -8t47 -18t47 -19t28 -9q6 -2 32 -5t32 -7q38 -16 76 -54l68 -68q22 -14 33 -30t-1 -44l20 6q-6 -10 1 -29t17 -41 t20 -43t14 -35v-13t2 -19t3 -19t1 -11q2 0 5 -4t5 -4q-4 -16 0 -69t13 -114t21 -113t22 -66l-12 -276q8 -10 9 -19t1 -17q0 -20 -9 -27t-13 -33q-4 -28 -6 -52t-8 -45t-19 -40t-37 -39q-10 -6 -12 -10t-5 -6t-7 -2h-16q-28 2 -28 40q0 14 5 27t5 25q-4 2 -6 4q-4 2 -5 4 t-3 2q-6 -6 -11 -18t-9 -25t-7 -24t-3 -17t8 -10q-4 -4 -10 -7t-8 -3h-10v6q-2 0 -4 2q-2 0 -2 1t-2 1t-2 2q-4 -4 -18 -9t-18 -9q6 16 8 27t2 27q0 10 -4 15t-20 7h-4q-4 0 -11 -8t-11 -12q-2 2 -11 20t-20 39t-22 38t-17 21l28 24q-6 2 -15 7t-13 9q-4 50 -1 119t5 148 t1 161t-12 155t-36 133t-67 96q-106 6 -192 -53t-154 -158t-115 -227t-75 -262q-10 -20 -18 -63t-18 -88t-24 -82t-38 -43zM1362 2q0 6 -6 6t-6 -6q0 -2 4 -2t8 2zM1278 92q-10 0 -10 -9t10 -9q4 0 4 9t-4 9zM1098 110q-6 2 -6 -8t6 -12q10 0 10 10t-10 10zM1300 110 q-10 2 -11 -8t9 -12q4 0 5 10t-3 10zM1300 118q-4 10 -10 2t-4 -8q14 -4 14 6zM1368 846q-6 0 -6 -10t6 -10q6 -2 6 8t-6 12zM1370 886q-6 0 -7 -10t5 -10q6 -2 7 8t-5 12zM818 988q-16 2 -30 -18q6 2 19 5t21 13h-10zM1352 962q-6 0 -7 -10t5 -10q10 0 11 10t-9 10z M900 1028q-16 2 -32 -12t-24 -22h10q16 -2 30 8t26 16q-2 0 -2 2t-1 2t-1 2l-4 4h-2zM1332 998q-4 2 -4 -4t4 -6q14 6 0 10zM930 1028q-6 0 -6 -10t6 -10q6 -2 6 8t-6 12zM958 1026q-4 4 -9 -2t1 -8q2 0 7 2t1 8zM1324 1028q-4 0 -4 -11t4 -9q4 4 4 11t-4 9zM790 1054 q-10 0 -10 -10t10 -10q6 0 6 10t-6 10zM622 1070q-10 2 -10 -8t10 -12q6 0 6 10t-6 10zM984 1044q4 4 -3 5t-3 -5q0 -6 3 -6t3 6zM696 1096q-8 0 -8 -8t8 -8q6 -2 6 6t-6 10zM640 1098q2 4 11 5t9 5v2v6zM1306 1076h14l-14 8v-8zM452 1140q-6 0 -6 -10t6 -10q10 -2 10 8 t-10 12zM1282 1160q-10 0 -10 -9t10 -9q4 0 4 9t-4 9zM580 1254q-4 4 -15 -8t-7 -12t12 7t10 13zM700 1302q0 6 -5 6t-5 -6q6 -6 10 0z" />
<glyph unicode="o" horiz-adv-x="1300" d="M348 28v20l-12 6l-28 14t-30 14t-16 10q-14 8 -20 26t-14 30q-22 24 -46 48t-42 46q-16 22 -20 39t-18 37l-10 -10h-2h-8q-10 30 -16 51t-9 40t-3 38v43v84t1 114t5 113t12 81q16 4 12 19t-2 21q10 42 31 91t37 85q0 4 4 6t4 6q4 2 14 26t12 28q2 2 22 17t42 31t43 28 t27 10q4 0 7 -8t-1 -12q10 10 25 17t29 7q0 -12 4 -30t22 -22q6 0 14 6t18 13t21 14t21 7v-28q12 0 41 -7t41 -15q4 0 6 -9t6 -9q2 -2 11 -4t11 -2q-72 -152 -108 -298t-18 -320q0 -18 3 -53t10 -70t21 -62t38 -27h14l140 86q2 -2 17 14t34 37t40 41t33 28q20 44 35 108 t21 132t3 132t-17 106q-18 42 -39 69t-45 47t-52 36t-60 36q-4 2 2 8l4 4q-22 0 -38 13t-31 28t-32 28t-37 13q6 16 15 26t21 10q0 10 3 17t-19 15q-4 0 -8 -2q-8 -4 -12 -8q0 -2 3 -5t3 -5h6q0 -4 -3 -12t-9 -8q-10 0 -33 7t-31 13l10 10q-16 10 -35 14t-31 4q24 6 39 18 t29 26t30 24t42 10v-20q4 10 14 11t16 1q0 -16 -10 -25t-20 -15q74 -10 153 -29t147 -37q20 -8 37 -20t33 -12q2 0 6 2q8 4 12 4q-22 6 -40 17t-36 21t-37 18t-45 8q0 12 -17 15t-17 21h60v-10q12 0 45 -12t66 -30t59 -37t26 -31q0 -18 -10 -28q4 0 10 4t8 4h6q14 0 28 -15 t25 -36t17 -42t6 -33q6 0 17 -8t22 -19t18 -23t3 -20l46 -98q0 -2 2 -13t5 -24t6 -24t7 -13l8 12q-2 12 -4 22t-3 18t-1 16q-6 32 -28 67t-22 65h22q4 -12 10 -22q4 -10 9 -20l9 -18q22 -46 35 -102t13 -108v-22q0 -4 -10 -15t-10 -13q2 -10 2 -54t-5 -98t-15 -107t-28 -79 q-38 -68 -90 -128t-115 -109t-133 -88t-142 -63q-26 -8 -44 -16t-36 -15t-38 -11t-46 -4q-28 0 -50 1t-48 11l-10 -20q-6 4 -12 11t-8 17l-36 -28q-8 -6 -14 -2t-9 11t-4 15t1 10zM382 34q-6 0 -6 -7t6 -7q10 0 10 7t-10 7zM414 34q-10 0 -10 -7t10 -7q6 0 6 7t-6 7z M862 140q-6 0 -6 -10t6 -10t6 10t-6 10zM882 148q-10 0 -10 -9t10 -9q6 0 6 9t-6 9zM910 174q-6 0 -6 -7t6 -7t6 7t-6 7zM92 348q-6 0 -6 -7t6 -7q6 6 0 14zM1012 402q-6 0 -6 -10t6 -10q8 0 8 10t-8 10zM1228 892q-6 0 -6 -10t6 -10q10 0 10 10t-10 10zM158 1072 q-6 0 -6 -10t6 -10q4 0 4 10t-4 10zM468 1120q-8 0 -8 -10t8 -10t8 10t-8 10zM504 1174q-4 0 -4 -10t4 -10q6 0 6 10t-6 10zM468 1200q-8 0 -8 -9t8 -9t8 9t-8 9zM1048 1200q-6 0 -6 -9t6 -9q10 0 10 9t-10 9zM880 1212q-6 0 -6 -10t6 -10q10 0 10 10t-10 10zM1032 1212 q-10 0 -10 -10t10 -10q6 0 6 10t-6 10zM1020 1228q-6 0 -6 -8t6 -8q10 0 10 8t-10 8zM1012 1248q-8 0 -8 -10t8 -10q6 0 6 10t-6 10zM1002 1260q-6 0 -6 -10t6 -10q8 0 8 10t-8 10zM984 1274q-8 0 -8 -7t8 -7t8 7t-8 7zM974 1288q-4 0 -4 -10t4 -10q8 0 8 10t-8 10z M968 1314q-10 0 -10 -10t10 -10q4 0 4 10t-4 10zM592 1334q-10 0 -10 -10t10 -10q6 0 6 10t-6 10zM720 1342q-2 2 -2 -5t2 -3q6 0 6 4t-6 4zM498 1388q0 8 -12 8t-8 -8q4 -4 10 -4t10 4zM532 1408q4 4 -4 4t-4 -4q0 -4 4 -4t4 4zM504 1414q4 8 -3 8t-3 -8q0 -2 3 -2t3 2z " />
<glyph unicode="p" horiz-adv-x="1324" d="M398 -828q-8 0 -21 -6t-9 16q-4 0 -10 -4t-10 -4h-6q-8 0 -12 11t-10 17l-20 -20q0 20 -20 20q-2 0 -12 -6t-14 -14q-4 8 -10 21t-12 27t-12 25t-12 15q8 148 -3 297t-30 299t-42 299t-41 295q-4 26 -5 68t-2 86t-4 84t-11 62v270q0 4 3 10l5 10q14 22 23 57t25 55 q20 20 49 38t62 31t67 20t62 7h14q4 0 16 -4l12 -4q2 0 11 2t9 6v-8q0 -4 21 -7t37 -5h12h16q-10 12 -20 15t-19 3t-19 1t-20 9q2 0 15 1t15 1q22 0 37 -15t31 -15q8 0 15 9t11 19q50 -18 92 -34q34 -14 66 -26t38 -16l7 -4t15 -9t16 -9t10 -6h10l214 -104q12 -16 34 -24 t42 -24q8 -4 19 -11t21 -15q12 -8 24 -18l20 10q6 -12 10 -23t10 -25l16 10v-28h12q4 -12 10 -22q10 -20 18 -32q0 -4 3 -20t3 -20v-4v-4q0 -4 -4 -8q-2 -2 -2 -4v-4v-4q0 -6 2 -10t4 -10q2 -8 6 -25t7 -33t5 -29l2 -13q2 -68 -9 -146t-36 -153t-64 -138t-91 -99 q-24 -16 -49 -28t-61 -12h-2q0 4 -9 8t-11 4l-8 -2v-18q-12 -4 -22 -8t-20 -6t-18 -2h-8v16h-148q-12 -8 -24 -9t-22 -1q-36 0 -69 4t-71 4q0 -40 6 -82q2 -12 8 -57t12 -97t12 -97t6 -57q10 -102 6 -202t12 -200q0 -4 4 -12q2 -4 6 -8q0 -4 -3 -8t-7 -8l-8 -12 q-8 -34 -3 -44t5 -12t-14 0t-56 -4l-6 -8h-6h-8q-4 6 -8 10q-6 6 -6 10q-10 2 -20 -8t-20 -22t-22 -23t-28 -11q-10 0 -13 5t-3 12t2 14t2 11zM450 -756q0 -10 13 -19t5 -23l12 8v68q-2 -4 -15 -14t-15 -14v-6zM394 -778q-4 0 -4 -10t4 -10q6 0 6 10t-6 10zM460 -696 q-8 0 -8 -7t8 -7q6 0 6 7t-6 7zM654 58q10 -4 36 -4t32 4q4 0 12 4q4 2 8 6h2h6q6 0 25 -5t23 -5l-18 -10h-112zM688 92q-10 0 -10 -7t10 -7q4 0 4 7t-4 7zM910 104q-6 0 -6 -10t6 -10q10 0 10 10t-10 10zM1154 218q-8 0 -8 -9t8 -9t8 9t-8 9zM514 388q28 -22 52 -45t64 -23 q44 0 99 29t103 74t82 98t38 103q2 44 -17 91t-51 89t-72 75t-76 49q8 12 -21 30t-70 36t-80 30t-51 12q-4 0 -10 -3t-10 -3q-4 -10 -6 -37t-2 -37q-2 -18 -4 -49l-4 -62t-3 -56t-1 -29q0 -8 2 -37t6 -67t8 -82t8 -82t6 -67t4 -37h6zM1188 910q12 -28 20 -54v54h-20z M1236 862q-10 0 -10 -10t10 -10q6 0 6 10t-6 10zM1140 918q-8 0 -8 -8t8 -8t8 8t-8 8zM1104 996q-6 0 -6 -10t6 -10q10 0 10 10t-10 10zM1084 1010q-6 0 -6 -7t6 -7q10 0 10 7t-10 7zM1068 1022q-10 0 -10 -10t10 -10q6 0 6 10t-6 10zM876 1156q4 6 24 6h16q6 -2 21 -10 t31 -17t31 -17t21 -12l15 -10t19 -12q10 -8 22 -14v-12q-14 0 -39 13t-55 30t-58 33t-48 22zM138 1142q-10 0 -10 -8t10 -8q6 0 6 8t-6 8zM248 1190h10q6 0 12 1t8 11zM266 1222q-12 0 -26 -12h16q6 0 13 -1t9 9q-2 0 -5 2t-7 2zM374 1230q-10 0 -10 -10t10 -10q4 0 4 10 t-4 10zM400 1218q0 6 -6 6t-6 -6q4 -4 12 0zM314 1230q0 2 -4 2t-4 -2q0 -6 4 -6t4 6zM374 1258q4 0 4 -10t-4 -10q-10 0 -10 10t10 10z" />
<glyph unicode="q" horiz-adv-x="1528" d="M1258 -782v32h-56t-50 22q0 4 1 16t-1 16q-6 12 -17 18t-11 30q-2 246 -4 420t-4 291t-5 184t-5 103t-5 46t-3 14t2 8t2 6q-10 0 -17 -5t-13 -12t-13 -12t-17 -5q-4 0 -6 2q-2 0 -6 2q2 12 8 24q4 10 9 19t11 13l12 -20q0 2 4 13t4 15v10h-10l2 10q0 2 4 8t4 8h-8v40h-8 q0 34 -12 64q-22 -16 -33 -29t-17 -26t-9 -29t-7 -36q0 -4 -2 -6l-4 -4q16 -10 16 -36v-10l-84 -88v-2v-4q0 -4 4 -6t4 -4q-4 16 9 19t23 3l14 -6q4 -4 7 -21t7 -23l6 -10q-4 -6 -22 -24t-18 -28h2q4 0 4 -6q12 2 18 6t9 10t6 14t11 18l10 -8q4 10 18 10l8 -2 q-12 -40 -46 -68l-6 12q-24 -44 -86 -75t-128 -52t-118 -35t-56 -24h-96l14 6q-16 -2 -36 0t-39 8t-32 18t-13 30q-6 0 -27 -4t-27 -4q-40 12 -76 40t-65 65t-50 79t-31 82l-20 6l10 8v4q0 2 1 2t1 2q0 16 -13 35t-17 37q-2 4 -5 18t-6 30t-5 31t-4 21v8q0 168 55 316 t181 258q14 12 29 30t35 18h14l-14 -8l6 -4q20 0 22 17t12 23q0 2 8 1t12 -1q22 10 47 28t47 30q34 16 81 29t97 23t98 16t86 6q30 0 63 -2t61 -18q-6 -2 -19 -5t-28 -8t-26 -10t-11 -9q0 -20 24 -41t44 -21h6q4 4 14 15t14 11q28 14 71 14h69q38 0 83 -9t69 -39 q10 -14 20 -35t19 -44t16 -44t11 -37l150 -1806q-6 4 -14 10t-14 10q-6 -8 -18 -15t-22 -11v66q-8 -30 -30 -59t-52 -35q-16 -6 -24 -1t-22 -9v18h-66zM488 62h26l-26 12v-12zM460 82q-8 0 -8 -10t8 -10q6 0 6 10t-6 10zM300 130q-8 0 -8 -10t8 -10q6 0 6 10t-6 10zM272 148 q-8 0 -8 -9t8 -9q6 0 6 9t-6 9zM952 320q-12 0 -23 -9t-19 -22t-15 -26t-13 -21l18 9t18 11q20 12 27 34t13 22zM862 290q-2 6 -7 -2t-1 -8q4 -2 8 2t0 8zM458 612q0 -24 7 -75t24 -102t44 -89t69 -38q26 0 70 43t90 95t86 95t62 43v46l20 -20q2 6 11 15t9 15v4q-4 4 -6 7 t-6 3q4 4 10 11t10 9l6 -2v-34q30 0 36 17t22 27q-4 54 -17 106t-28 104t-27 104t-12 106q-16 0 -39 -4t-47 -10t-46 -14t-36 -16q-58 -24 -113 -73t-100 -110t-72 -130t-27 -133zM978 542q-22 -10 -34 -32t-14 -42q16 12 32 29t16 37v8zM964 504q-4 0 -4 -8t4 -8q10 0 10 8 t-10 8zM964 562q-4 0 -4 -10t4 -10q10 0 10 10t-10 10zM938 562q4 4 -4 4t-4 -4q0 -6 4 -6t4 6zM1030 664q-22 -12 -34 -46t-12 -60q14 0 23 12t14 28t7 32t2 24v10zM978 610q-4 0 -7 -4t-7 -8v-6v-2zM334 1152q-4 0 -4 -10t4 -10q10 0 10 10t-10 10z" />
<glyph unicode="r" horiz-adv-x="1352" d="M154 66q-4 28 -15 49t-11 47q14 66 26 164t7 226t-35 282t-98 328q0 24 6 55t20 47q2 2 2 6t2 8q0 4 2 8q10 44 46 58t70 14h8q2 0 4 2q72 0 100 -31t42 -80t28 -109t56 -118h6q30 48 79 99t109 98t128 86t133 63t125 29t106 -15q16 2 25 0t9 -18q18 0 35 7t37 7 q0 -30 15 -45t33 -22t34 -12t16 -15q-16 -4 -20 -12l18 -10l-12 -10q14 2 16 -3t2 -17q0 -10 -3 -12t-1 -10v-4q0 -4 10 -10t14 -10v-4v-4q-4 -2 -17 -10t-19 -12q-18 -16 -54 -29t-78 -20t-86 -8t-78 5q-2 -6 -9 -12t-7 -10v-2v-6q0 -2 3 -6t5 -8q-44 -8 -100 -50 t-113 -105t-108 -141t-83 -158l-86 -506q-8 -24 -10 -44t-6 -35t-14 -24t-34 -9q-2 0 -16 -1t-18 15q-10 -8 -12 -17t-3 -16t-6 -13t-21 -6q-2 0 -4 2t-2 6q-12 18 -24 23t-24 6t-25 2t-29 9q-2 0 -4 2q-4 0 -8 4q0 2 -2 6l-4 8q-4 6 -6 12q-10 6 -37 20t-35 16zM606 692 q-8 0 -8 -9t8 -9q6 0 6 9t-6 9zM614 712q-6 0 -6 -10t6 -10q6 2 6 12t-6 8zM662 770q0 8 -5 8t-5 -8q6 -4 10 0zM890 986q8 -12 6 -16t-7 -3t-7 6t8 13zM838 1010q0 6 -4 1t0 -7q0 -4 4 -1t0 7zM862 1048q0 -12 10 -20l-2 20h-8zM938 1052l12 8l6 -18h-6q-12 4 -12 10z M974 1060q-10 0 -10 -9t10 -9q4 0 4 9t-4 9zM788 1076q0 6 -5 6t-1 -6q0 -4 6 0zM814 1098q-6 -2 -6 -12t6 -8q6 0 6 10t-6 10zM830 1118q-8 0 -7 -10t9 -10q4 0 3 10t-5 10zM996 1132q2 0 -1 -17t-9 -37t-12 -37t-8 -17q-4 0 -1 16t9 36t12 38t10 18zM812 1136q-6 0 -6 -10 t6 -8q6 0 6 10t-6 8zM978 1130q4 4 -3 4t-3 -4q0 -4 3 -4t3 4zM1000 1180q-4 -4 -7 -12t-7 -18q8 8 10 17t4 13zM1002 1160q-4 0 -4 -8t4 -8q8 0 8 8t-8 8zM842 1184q-6 0 -6 -8t8 -8q4 0 4 8t-6 8zM310 1040q-4 -2 -4 -12t4 -8q8 0 8 10t-8 10zM910 1186q0 4 -5 4t-3 -4 q0 -4 4 -4t4 4zM934 1246l-6 -12l16 12h-8h-2zM1016 1248q-6 0 -5 -11t7 -11q8 0 7 11t-9 11zM1264 1146q-2 4 -8 4t-4 -4q8 -16 12 0zM1280 1164q-10 0 -10 -9t10 -9q4 0 4 9t-4 9zM1118 1204l18 2l-2 14zM1284 1230q-4 0 -3 -10t5 -10t3 10t-5 10zM806 1328q-4 0 -4 -10 t4 -10q8 2 8 12t-8 8zM1160 1248q-10 0 -10 -11t10 -11q4 0 4 11t-4 11zM1190 1242h18v8zM1242 1252q-2 2 -7 -4t-1 -6q4 -4 8 1t0 9zM1260 1246h18l-10 6zM1168 1314q0 -2 4 -13t4 -15q-4 -6 -14 -17t-14 -13h22q16 2 42 13t36 31q-40 -10 -50 -1t-10 51q-14 -2 -27 -7 t-21 -21q16 -12 15 -10t13 2zM1226 1270q-6 0 -6 -10t6 -10t6 10t-6 10zM1250 1272h18v8zM1102 1362q0 -4 -2 -10t-2 -10h2h4q2 0 10 4l8 4q-2 2 -2 4t-2 4l-4 4h-2h-10z" />
<glyph unicode="s" horiz-adv-x="846" d="M82 82q-4 8 -7 16t-7 14l14 8q-10 4 -21 16t-13 24q8 2 7 9t-1 14t4 10t24 1q-4 6 -14 28t-14 32v4q0 12 13 18t31 9t36 4t26 1q0 8 -2 10t10 8q28 -2 63 -1t65 11t51 31t21 61q0 54 -26 114t-66 121t-86 124t-86 126t-66 125t-26 120v44q16 10 25 39t21 45q12 14 24 11 t22 7q-4 8 -14 11t-20 -1q34 40 83 63t103 34t109 14t103 3q8 0 54 -6t97 -16t92 -25t41 -33q0 -2 -5 -16t-3 -18q4 -22 21 -32t27 -26q0 -2 1 -11t3 -21t3 -23t1 -15q0 -26 -25 -39t-47 -13h-14q-4 0 -18 5t-16 7q0 -16 -5 -18t-15 -2q-36 0 -69 14t-69 14h-10 q-10 -2 -40 -9t-40 -11q0 -2 -7 -17t-7 -19v-6q0 -24 11 -50t26 -50t31 -46t26 -38q22 -36 66 -102t89 -140t78 -144t33 -114q0 -78 -12 -135t-40 -100t-75 -73t-117 -54l8 -8q-32 -10 -70 -15t-70 -5q-8 0 -51 8t-92 19t-89 24t-40 23v8h-48zM652 1136q0 4 -12 4t-8 -4 q12 -4 20 0zM574 1156q-8 0 -8 -10t8 -10t8 10t-8 10zM124 1304q0 8 -5 8t-1 -8q0 -4 3 -4t3 4z" />
<glyph unicode="t" horiz-adv-x="1080" d="M584 30q-4 -2 -12 -2q-10 2 -17 15t-13 30t-10 34t-6 27l-28 -30q-26 22 -41 63t-24 88t-13 93t-6 76q-2 14 -5 55t-6 86t-6 84t-5 53q-6 70 -8 140t-8 140h-6q-28 0 -54 -8t-51 -19t-50 -19t-53 -8q-16 0 -25 4t-25 14l20 20q-56 -6 -94 5t-67 32t-52 53t-49 68 q46 42 100 68t112 44t118 33t120 35q10 8 15 41t5 79t-2 99t-4 101t-3 83t3 45q14 74 64 107t111 38t121 -15t98 -50q4 -12 8 -45t9 -76t12 -90t14 -88t16 -69t21 -32q10 0 34 2t51 3t51 3t34 2h8q28 0 60 -1t60 -9q8 -4 20 -6t22 -6q12 -4 26 -6v-12h16l96 -48v-8h-22 q0 -16 10 -18t26 -2q0 -10 9 -18t21 -16t23 -15t17 -15h-14q-16 0 -31 2t-27 8q-6 0 -12 10q-4 4 -8 10q-6 0 -21 -8t-19 -12l-8 10l-56 -10l84 -30q-4 -8 -13 -10t-17 -3t-15 -5t-9 -18q-10 0 -35 -4t-31 -8q-4 0 -8 -4t-4 -8h-102l-10 -22h-84v6q-34 -10 -70 -21t-70 -33 q4 -28 -4 -54t-8 -54q0 -120 -1 -231t21 -231v-374q-6 -10 -7 -26t-1 -30t-3 -24t-15 -10q0 -18 5 -24t5 -26q-8 0 -20 4t-23 12t-16 18t3 20q-34 0 -48 -28q-6 12 -11 10t-17 -2q0 -4 6 -14t2 -14q-2 -4 -17 -17t-21 -17q-8 4 -14 19t-14 15zM686 102q-4 2 -4 -9t4 -11 q4 2 4 9t-4 11zM890 1180q-4 0 -4 -10t4 -10q10 0 10 10t-10 10zM1250 1326q-10 0 -10 -10t10 -10q6 0 6 10t-6 10zM1238 1346q-6 0 -6 -10t6 -10q10 0 10 10t-10 10z" />
<glyph unicode="u" horiz-adv-x="1504" d="M1008 192q-10 0 -34 -20t-51 -42t-53 -39t-40 -11l-120 -48l-8 -8h66q-20 -8 -42 -10t-44 -2t-44 -3t-40 -15h-76q-100 -22 -178 25t-133 143t-91 229t-54 285t-21 313t9 309q8 12 32 29t51 33t52 27t33 11q16 0 31 -13t23 -13q4 0 17 6t17 6h14q62 0 97 -46t35 -114 q0 -40 -13 -84t-13 -88q0 -36 -3 -95t-7 -128t-5 -142t3 -137t16 -115t34 -73q10 -10 23 -25t27 -29q16 -16 32 -34h20l8 6t19 14t21 17t16 15q26 18 43 42t33 52q6 10 21 26t19 20q6 0 12 2q12 4 16 6q14 18 27 46t23 59t16 61t6 52v89t-3 132t-9 128t-16 81v198 q0 10 19 25t43 28t48 23t36 10h12q2 -4 15 -9t15 -5q8 2 14 4q10 4 14 10h4q16 0 41 -4t49 -12t44 -21t30 -31q12 -22 19 -53t10 -64t5 -64t6 -51q10 -82 10 -186t2 -212t12 -209t42 -179q12 -28 34 -46t49 -29t56 -17t57 -8q4 -4 4 -8v-8q0 -18 -15 -23t-25 -21 q20 -16 43 -10t41 -4q-22 -4 -34 -11t-22 -29h-64q4 -2 25 -13t31 -15l4 -4q0 -2 1 -2t1 -2t2 -2l-20 -8l12 -6q-4 -4 -10 -9t-10 -5q-6 -2 -22 -3t-34 -2t-34 -1h-22v-6v-8l8 -6q0 -4 -6 -6t-10 -2q-20 0 -34 10t-32 10q-4 0 -6 -3t-4 -3q2 0 9 -6t7 -8v-8q0 -10 -14 -11 t-22 -1q-42 22 -79 37t-67 33t-53 45t-39 73q0 2 -4 9t-4 9h-2zM972 192q-6 0 -6 -9t6 -9q8 0 8 9t-8 9zM898 286q4 4 -4 4t-4 -4q0 -4 4 -4t4 4z" />
<glyph unicode="v" horiz-adv-x="1272" d="M616 24q-2 2 -17 9t-19 11l-8 10q-4 0 -24 -1t-24 1q-16 0 -17 23t-5 29q-2 0 -5 10t-7 21t-8 21l-4 10l-10 6q-28 44 -50 94t-44 101t-47 98t-57 85q-6 10 -22 51t-38 97t-46 120t-46 120t-38 97t-20 51q-22 44 -43 97t-21 105q0 28 17 51t43 39t54 25t52 11q20 0 49 -5 t56 -15t50 -24t33 -32q0 -4 7 -17t15 -27t16 -26t10 -14q0 -4 4 -6t6 -2q8 -18 22 -63t31 -104t37 -125t41 -124t41 -101t38 -57l30 28q54 92 92 187t64 173t40 132t20 64q2 -4 7 5t10 22t9 26t4 17l4 -4q2 0 10 -8t8 -12q4 0 8 5t4 7q0 4 -4 10t-8 10q12 8 24 22t25 27 t27 23t32 10h6q-4 -6 -12 -24t-8 -24q4 -4 10 -5t10 -1h7t9 2l12 4h10l20 40h6q0 -4 1 -7t1 -5l8 -8v-4q0 -12 -10 -28t-18 -22h12q0 -4 8 -12l8 -8q10 0 27 15t19 19l60 -26q6 -4 14 3t17 16t18 17t17 10q4 -4 6 -18t2 -16q-2 -10 -8 -27t-13 -34t-14 -31t-11 -20l8 -14 q-10 0 -18 -8t-10 -18l20 12v-8q0 -14 -12 -28t-16 -24q-4 -8 -13 -25t-18 -37t-18 -36t-11 -22q-10 -26 -35 -106t-61 -186t-78 -224t-84 -219t-79 -171t-63 -80q0 -14 -9 -25t-27 -11q-24 0 -54 8t-30 24zM1058 1288q-6 0 -6 -10t6 -10q8 0 8 10t-8 10zM1088 1316 q-6 0 -6 -6t6 -6q12 8 0 12zM1144 1336q-6 0 -6 -10t6 -10q4 0 4 10t-4 10zM1068 1350q-8 0 -8 -7t8 -7q6 0 6 7t-6 7z" />
<glyph unicode="w" horiz-adv-x="2242" d="M36 1278q4 68 52 103t112 35q92 0 143 -30t78 -80t39 -117t30 -141q6 -20 11 -60t10 -90t10 -105t10 -106t10 -91t13 -62h6q8 0 19 11t22 26t20 28t15 19q2 12 10 38t17 56t18 56t13 36q0 6 10 29t14 29q0 4 -5 20t-5 20l4 4q4 4 8 4q10 34 18 102t23 136t43 119t80 51 q12 0 17 -13t17 -13q10 0 18 13t18 13l6 -6l6 -8q4 -4 16 -12q6 -4 10 -8h58q26 -2 45 -19t34 -40t26 -47t19 -40q4 -22 17 -78t27 -117t26 -116t16 -77q6 -26 28 -92t54 -135t68 -122t70 -53q40 0 66 17t47 41t39 52t40 50q4 -2 8 -2q8 0 8 2q2 0 1 13t-2 28t-2 29l-1 14 q2 10 8 29t11 38t10 36t5 23q0 4 4 25t9 46t10 49t7 36q2 18 0 26t10 22h-12q6 6 6 10q2 6 4 10q4 8 4 10l2 6v2q0 4 -4 10t-4 10v4q2 8 6 11t4 13q2 16 -3 25t-15 21l8 134q-6 8 -7 22t2 29t6 26t3 15h-14q-4 0 -7 26t-1 42q0 10 1 38t1 38q26 0 35 -7t13 -35q6 12 10 19 t4 21v11t-10 7h20q16 0 16 -2t10 -16l10 -20t10 -22q6 -12 12 -26h18q0 12 3 18t7 9t10 7t14 14q-10 2 -10 20v8q16 -14 42 -41t46 -27q10 0 18 4t18 8q-4 -10 -1 -16t9 -11t12 -9t10 -10q0 -6 3 -17t5 -25t4 -26t2 -18q-2 -10 -4 -22t-6 -12h-20v-22t1 -32l2 -32t1 -22 q2 -2 4 -9t4 -9q0 12 1 25t9 21q8 -28 16 -68t4 -72l-8 -8v-20q0 -2 -1 -15t7 -13q4 0 12 4l8 4q-2 -14 -2 -22q0 -22 12 -24h-32l-14 -214l20 -8l-20 -12q-2 -4 -2 -8v-12q0 -2 -1 -19t11 -17l-20 -12l-12 -210h20q-22 -46 -43 -91t-49 -87t-65 -77t-89 -59 q-34 -20 -70 -22t-74 -18h-72q-168 0 -304 65t-228 207q-10 16 -21 41t-24 51t-27 50t-28 36q-16 -28 -19 -52t-17 -52q-42 -108 -110 -192t-172 -148q-32 -16 -74 -17t-76 -17q-24 30 -54 44t-62 27t-64 32t-58 57q-38 52 -58 121t-38 133q-14 40 -29 107t-31 149t-31 171 t-26 171t-16 152t-3 114zM544 34h10l-8 14zM1952 812q-4 2 -5 -5t-2 -18t0 -19t5 -6q2 6 3 24t-1 24zM1954 848q-10 0 -10 -10t10 -10q6 0 6 10t-6 10zM1888 874q-8 0 -8 -7t8 -7q6 0 6 7t-6 7zM1956 874q-10 0 -10 -7t10 -7q6 0 6 7t-6 7zM2078 912q-8 0 -8 -9t8 -9 q6 0 6 9t-6 9zM1990 960q-10 0 -11 -10t9 -10q4 0 5 10t-3 10zM2010 980q-10 0 -10 -10t10 -10q4 0 4 10t-4 10zM1884 988q-8 0 -8 -8t8 -8t8 8t-8 8zM1886 1008q-8 0 -9 -10t7 -10t9 10t-7 10zM1954 1034q-4 4 -4 -3t4 -3q4 0 4 3t-4 3zM2028 1054q-6 0 -6 -10t6 -10 q8 0 8 10t-8 10zM2060 1074q-8 0 -9 -10t7 -10q6 0 7 10t-5 10zM1798 1234q-6 0 -7 -10t5 -10t7 10t-5 10zM1962 1308q0 -8 7 -14l14 -12t11 -11t-2 -9q6 0 13 2t9 6t-7 20t-21 35t-24 35t-16 22q-14 -16 -24 -48t-12 -50q24 0 52 24zM1940 1280q-6 0 -7 -9t5 -9t7 9t-5 9z M2052 1280q-6 0 -6 -5t6 -5q4 2 4 6t-4 4zM2030 1300q-10 0 -11 -10t9 -10q4 0 5 10t-3 10zM2044 1300q-6 0 -7 -10t5 -10q8 0 9 10t-7 10zM1876 1314q10 -2 10 -14h8l12 34q-20 -4 -30 -20zM2044 1308q2 4 -3 4t-5 -4t4 -4t4 4zM1858 1334q-4 4 -5 -1t3 -5q6 0 7 3t-5 3z M2018 1348q0 -4 -3 -7t-3 -7l-2 -2v-4zM1878 1348q-8 0 -9 -10t7 -10t9 10t-7 10zM1908 1374q-4 4 -5 -10t3 -10q16 12 2 20z" />
<glyph unicode="x" horiz-adv-x="1192" d="M244 -208q-16 0 -16 -8t-14 -8q-6 0 -6 6l-20 48h-6h-8q0 -6 -8 -10q-4 -2 -6 -4q-8 0 -27 3t-38 9t-33 16t-14 22v8q2 4 18 20t16 28l-8 14v18q10 36 22 72q10 32 22 72t26 84q30 100 70 228l8 -10q16 38 23 74t17 78l8 8q26 42 42 90t16 98q0 34 -20 60q-30 38 -64 85 t-70 95t-72 95t-68 83q-18 22 -19 32t-1 40q0 2 1 20t5 22q4 8 18 22l30 30t31 29t21 19h90q22 0 37 -4t27 -9t26 -11t34 -10q12 -4 40 -45t59 -88t57 -86t30 -39l142 296q0 4 11 6t15 6q2 0 16 2t31 5t33 6t24 5h6q0 -14 14 -18q2 2 12 8t14 10q2 0 4 -2t6 -4l8 -4 q14 0 20 10h6q22 0 21 -7t-1 -23q60 0 83 -39t23 -99q0 -22 -6 -38t-15 -29t-18 -27t-17 -32t-30 -49t-45 -65t-41 -67t-18 -53q0 -18 10 -36t23 -37t27 -36t20 -31q18 -30 25 -57t27 -57q46 -84 85 -162t55 -174q0 -22 20 -22q0 -14 -4 -19t-4 -25h2q4 0 10 5t10 5 q-4 -4 -5 -15t-1 -13q0 -10 10 -27t10 -33q0 -4 -6 -16t-15 -26t-20 -23t-19 -7q-10 24 -18 46q-8 18 -13 33t-5 17l-20 -12v20q-2 -6 -6 -20t-4 -20l4 -8q2 -4 4 -7t2 -5q0 -4 1 -15t2 -23t2 -23t1 -17q-18 0 -23 -7t-21 -7v20h-12q0 -22 2 -35t-24 -13v30q-24 0 -25 14 t5 42q-10 -4 -13 -10t-5 -12t-6 -11t-16 -5q-16 0 -27 5t-11 33q6 -28 -16 -34t-38 -14q2 4 -3 15t-13 22t-15 22t-9 15q-4 -2 -10 2t-6 6q-16 60 -35 121t-59 107q-8 -4 -12 -18t-6 -18q-20 -54 -39 -114t-40 -120t-46 -118t-55 -110q-8 -12 -20 -16t-25 -7t-25 -10 t-18 -25l-28 40q2 -16 -6 -27t-22 -20t-28 -16t-24 -11q-16 4 -13 14t3 16zM354 -118v10h-6zM964 80q-4 2 -4 -9t4 -9q6 0 6 9t-6 9zM882 90q-6 4 -6 -10t6 -10q4 4 4 10t-4 10zM958 110q-6 0 -6 -10t6 -10q4 0 4 10t-4 10zM958 136q-6 4 -6 -9t6 -11q4 12 0 20zM994 136 l10 20h-10v-20zM950 156q-10 0 -10 -10t10 -10q6 0 6 10t-6 10zM1118 156q-10 0 -10 -10t10 -10q4 0 4 10t-4 10zM950 164v20h-12zM984 176q-4 0 -4 -10t4 -10q8 0 8 10t-8 10zM1104 192q-2 2 -2 -5t2 -3q6 0 6 4t-6 4zM1004 240q-8 0 -8 -9t8 -9q6 0 6 9t-6 9zM214 392 q-4 0 -4 -10t4 -10q6 0 6 10t-6 10z" />
<glyph unicode="y" horiz-adv-x="1390" d="M964 -922l-4 4q-2 0 -2 2l-6 6l-4 -4q-2 -2 -4 -2q-2 -2 -4 -2q-2 -2 -2 -4q10 -4 11 -8t1 -12q0 -6 -7 -12t-17 -10t-20 -5t-16 -1q-2 2 -4 6t-4 7t-2 7v4v4q2 4 5 15t5 11q-2 6 -16 6q-8 0 -14 -7l-12 -14t-14 -13t-16 -6q-22 2 -45 28t-23 42q0 36 17 73t17 71l-4 4 q-2 2 -2 10v2v4q6 12 13 54l15 90t13 93t5 63q-2 6 -4 10t-2 10l6 16q4 8 6 18t2 14l-8 8q0 20 2 62t5 88t8 86t13 56v222q0 4 -22 16t-32 18h-14l-6 6q-4 0 -10 -3t-10 -3q2 2 -32 34t-87 82t-116 108t-121 112t-102 95t-58 55q-10 8 -34 32l-51 51l-51 51t-32 34 q-2 2 -8 12t-12 21t-12 21t-8 14l-6 14h20q0 10 -1 25t1 30t8 26t18 15q10 4 17 10t13 13t14 13t22 8q26 14 59 14h63q44 0 92 -3t88 -37q88 -86 167 -174t169 -174q-4 -6 9 -23t30 -35t33 -33t20 -21l20 20q-4 106 -2 182t5 146t5 145t0 181q4 64 23 117t83 83h26h16t26 1 t27 3t19 4q10 -16 23 -11t31 3q16 -4 40 -14t46 -25t38 -34t16 -41v-186q-4 -4 -6 -18t-2 -16q0 -14 2 -46t6 -42q-10 -248 -18 -494t-30 -494q-2 0 -4 -12t-2 -16q-10 -108 -12 -214t-18 -216q0 -10 -7 -23t-11 -23h18q-10 -70 -25 -144t-15 -136h4q0 -22 -9 -44t-11 -42 q0 -10 -4 -37t-4 -37q-18 -4 -27 -21t-13 -27l20 -12l-40 -18l-4 4q-2 2 -2 6q-16 24 -22 43t-6 51l-20 -12l8 -8q-18 -22 -22 -43t-10 -38t-22 -28t-60 -11q0 18 8 34t12 32v4v4zM978 -882q-10 0 -10 -10t10 -10q4 0 4 10t-4 10zM770 -876q-6 0 -6 -5t6 -1q2 0 2 3t-2 3z M958 -868q-10 0 -10 -7t10 -7q4 0 4 7t-4 7zM1022 -856q-8 0 -8 -10t8 -10q6 0 6 10t-6 10zM1070 -828q-10 0 -10 -10t10 -10q6 0 6 10t-6 10zM1070 -648q-10 0 -10 -10t10 -10q6 0 6 10t-6 10zM852 -152q-8 0 -8 -10t8 -10t8 10t-8 10zM852 214q-8 0 -8 -10t8 -10t8 10 t-8 10z" />
<glyph unicode="z" horiz-adv-x="1150" d="M96 220q8 30 23 57t33 55l2 8q68 152 164 294t180 282q4 40 28 73t32 73v2q0 2 1 3t1 3q0 4 2 8q-30 -10 -50 -9t-48 1q-12 -2 -30 -2t-36 -2q-22 -2 -44 -2l-12 -10l16 -12q-18 -2 -26 -3t-15 -2t-16 0t-27 5l-14 4q6 0 27 1t25 11v4q-28 -4 -67 -1t-67 7q-2 0 -29 17 t-59 36t-58 36t-28 17l2 8q0 2 -1 3t-1 5q-2 2 -2 6l14 68l-16 18q2 0 2 2t2 4t4 6q20 6 34 13t28 13t29 12t37 12q64 12 131 9t125 5q72 8 131 13t114 6t113 -5t130 -20q14 -4 25 -9t23 -7l4 -2h28q18 -4 36 -30t30 -60t18 -68t2 -54q-22 -98 -60 -188t-86 -176t-103 -170 t-109 -168q-6 0 -18 -19t-24 -42t-22 -45t-12 -30q46 -10 96 -5t101 13t98 13t87 -3q6 -2 21 -6t29 -10t24 -12t10 -10q-16 -4 -27 -12t-27 -6q8 -4 8 -10v-12q-4 -12 -16 -20t-26 -12t-27 -6t-17 -4l-14 -64q22 4 64 7t74 -5q0 -4 -1 -8t-3 -4q-64 -40 -132 -70t-148 -46 h-20t-34 -1t-33 -4t-15 -9l-8 8q-10 -8 -29 -12t-25 -4l30 -6l-2 -14l-32 4q-14 2 -26 3t-22 5q-44 4 -90 1t-90 7q-48 10 -105 27t-104 45t-73 71t-12 107zM902 126q-4 0 -5 -6t3 -6q4 -2 5 3t-3 9zM1014 102q-6 2 -8 -8t4 -12q10 -4 12 6t-8 14zM1008 216q-2 6 -8 2t-2 -8 t9 -1t1 7zM960 226l6 -2h2q6 4 14 4t10 4l6 4l-6 4z" />
<glyph unicode="{" horiz-adv-x="930" d="M522 -264q0 -2 -2 -4t-4 -6l-4 -8q-58 48 -97 135t-63 187t-34 198t-10 164v86t10 84l4 8q4 8 6 10q0 6 8 29t8 33v2v4q-10 2 -36 8t-55 13t-54 13t-33 10q-34 6 -58 16t-34 48q2 2 4 6t10 12l4 6q0 4 -2 18t-2 18q-2 2 -4 6q-2 2 -2 8q0 12 7 25t11 25q6 6 19 20t27 29 t26 29t16 20q18 12 42 26t46 30t37 36t15 44q0 20 -19 29t-25 25q-4 8 -8 33t-4 33l-8 12q-2 4 -2 10q-2 6 -2 14q0 32 6 63t6 61v36q-10 0 -11 14t-1 18q0 40 8 81t16 81q8 84 19 150t39 122t78 103t136 91q36 20 68 36t74 16q58 0 102 -37t44 -95q0 -22 -15 -42t-15 -40 l2 -4q0 -4 13 -6t15 -6l4 -4q0 -2 2 -2q0 -4 -1 -9t-5 -9q-6 -6 -20 -18t-30 -27t-30 -27t-20 -18q-10 -10 -22 -34t-12 -34q0 -2 4 -17t4 -19l-8 -6l-12 6q-18 -24 -28 -58t-14 -70t-5 -72t-1 -64v-58q6 -20 24 -34t41 -26t45 -24t36 -30q4 -4 11 -29t17 -53t20 -50t20 -22 q0 -38 -29 -58t-65 -35t-65 -28t-29 -37q0 -6 10 -11t22 -13t24 -18t18 -24l8 -6q14 -16 24 -27t15 -22t7 -25t4 -34v-10q4 -2 12 -15t8 -17q2 -22 -11 -48t-32 -53t-38 -53t-27 -46q-22 -60 -25 -115t-3 -115v-70t4 -76t17 -75t37 -65q28 -34 72 -68t76 -66q4 -4 8 -16 t4 -16v-6q0 -14 -15 -15t-23 -11q-6 -14 -8 -24t-5 -16t-11 -7t-26 3l24 -26q-16 2 -23 -1t-12 -8t-13 -10t-22 -5q-6 0 -32 5t-32 5h-48q-20 0 -48 -11t-50 -7q-2 0 -16 7t-18 11h-2h-8z" />
<glyph unicode="|" horiz-adv-x="622" d="M392 16q0 -8 -7 -19t-15 -15q-10 0 -20 9t-19 22t-15 26t-6 21h-2h-8q0 -2 -5 -8t-5 -10q-36 28 -57 49t-33 63t-17 121t-9 223t-11 367t-21 555q0 4 -2 15t-6 13q0 4 -4 12q-2 4 -2 8v32t-1 8t-4 7t-9 29q0 2 5 11t9 9v50q0 40 -7 78t-7 76q0 56 14 92t41 55t68 26t93 7 t83 -25t61 -63h8q6 0 14 -13t16 -30t14 -32t6 -21q0 -8 -5 -12t-5 -10v-8l8 -6v-104q10 -4 11 -10t1 -12q0 -10 -1 -17t-11 -7v-100q0 -110 10 -216t10 -214v-18q0 -6 -4 -33t-4 -33t1 -28t3 -49t3 -51t1 -32v-54t-1 -81t-2 -82t-3 -53v-26q0 -18 -2 -61t-4 -91t-5 -90 t-3 -58v-14q-20 -26 -31 -62t-33 -58q-16 -12 -35 -21t-31 -25q-4 -4 -6 -10t-4 -10l-10 -8q-12 8 -4 12t18 5t15 0t-11 -1h-6zM200 1928q-8 0 -8 -9t8 -9q6 0 6 9t-6 9z" />
<glyph unicode="}" horiz-adv-x="976" d="M422 -208h-2q-4 -4 -18 -11t-16 -7q-22 -4 -50 7t-50 11h-48q-2 0 -11 -2t-20 -3t-20 -3t-13 -2q-16 0 -23 5t-13 10t-13 8t-23 1l26 26q-18 -4 -26 -3t-11 7t-5 16t-8 22q-10 10 -25 11t-15 15v6q0 4 5 16t7 16q34 32 78 66t72 66q26 30 38 66t17 75t5 76v69 q0 60 -3 114t-25 114q-10 20 -29 46t-38 53t-33 53t-12 48q0 4 9 17t13 15v10q2 20 4 33t7 24t14 22t25 27l8 6q6 14 19 24t25 18t22 13t10 11q0 24 -30 37t-66 27t-66 35t-30 57q10 0 21 22t21 50t17 53t11 29q14 18 36 30t45 24t41 26t24 34v56q0 28 -1 64t-5 72t-14 69 t-28 57l-12 -6l-6 6q0 4 3 19t3 17q0 10 -12 34t-22 34q-6 6 -20 18t-31 27t-31 27t-20 18q-4 4 -5 9t-1 9l2 2q0 4 4 4q4 4 16 6t12 6l2 4q0 20 -15 40t-15 42q0 56 45 93t103 37q44 0 76 -16t70 -36q86 -44 137 -90t79 -102t39 -122t21 -148q6 -40 14 -81t8 -81 q0 -4 -1 -18t-9 -14v-34q0 -30 5 -61t5 -63q0 -4 -1 -7t-1 -7q-2 -6 -2 -10l-6 -12q0 -8 -5 -33t-7 -33q-8 -16 -27 -25t-19 -29q0 -24 16 -43t38 -36t46 -30t42 -25q4 -6 16 -20t27 -29t28 -29t19 -20q2 -12 10 -25t8 -25q0 -4 -4 -8q-2 -2 -2 -4q0 -4 -2 -18t-2 -18l4 -6 q2 -4 5 -6t5 -6t4 -6q-10 -38 -34 -48t-58 -16q-10 -4 -35 -10t-54 -13t-56 -13t-37 -8v-4v-2q0 -10 8 -33t8 -29q0 -2 2 -4t4 -6t6 -8q8 -38 8 -84v-84q0 -66 -10 -164t-34 -197t-64 -186t-98 -133q-4 4 -6 8q-4 8 -4 10h-10z" />
<glyph unicode="~" horiz-adv-x="1672" d="M574 938q-4 0 -18 -24t-32 -54t-36 -58t-30 -38q-8 -2 -26 -12t-37 -22t-36 -23t-23 -15h-12q-28 0 -47 10t-47 18q-28 6 -56 7t-51 8t-38 25t-15 60q0 44 15 93t39 97t52 92t54 78q34 40 64 58t56 54q86 26 162 52t164 26q6 0 28 -1t26 -1q16 -12 32 -18l32 -12t32 -14 t32 -24q4 -2 21 -21t19 -25l8 -8q8 -8 12 -8q4 -10 15 -26t23 -34t23 -33t15 -21q8 -16 21 -49t29 -66t35 -59t39 -26q14 0 23 25t14 58t8 63t5 42q0 4 6 8q2 2 6 4l4 8q4 8 4 12q18 56 52 90t79 53t97 26t108 7q18 0 36 -14t31 -33t21 -41t8 -38q0 -56 -18 -110t-18 -112 v-8q2 -4 6 -10t4 -10l-10 -6v-20q-44 -58 -102 -116t-125 -105t-141 -77t-150 -30q-28 0 -60 2t-65 7t-63 14t-54 25q-48 26 -74 55t-60 71q-10 14 -26 44t-33 58t-33 50t-24 22z" />
<glyph unicode="&#xa1;" horiz-adv-x="758" d="M240 1798q0 -48 26 -94t67 -83t92 -59t99 -22q24 0 50 10t48 28t36 42t14 50v4q-22 108 -97 181t-195 73q-52 0 -96 -34t-44 -96zM204 1298q-4 -18 -10 -55t-13 -84t-15 -99t-16 -99t-14 -84t-8 -55q0 -6 -1 -20t-3 -31t-3 -33t-1 -24q0 -58 -11 -123t-13 -123 q0 -12 3 -36t4 -49t1 -47t-6 -30l12 -112q-2 -4 -11 -16t-11 -14v-6l2 -4q0 -2 3 -5t3 -5q28 -16 71 -41t90 -49t93 -39t80 -13h4q6 0 17 4t24 8t25 7t18 5q0 4 2 6q4 4 6 4q50 36 74 93t22 121q0 16 -5 37t9 31q-16 110 -27 213t-7 211q4 102 8 206t-6 204q-4 28 -20 49 t-36 40t-39 41t-27 50h-2h-6l-4 -8q-2 -2 -2 -6h-2q-2 0 -4 -2q-8 0 -10 7t-4 15t-7 14t-17 2q-2 -2 -8 -12t-10 -10q-8 -2 -30 7t-26 17q-4 -2 -10 -9t-8 -11l-4 -2q-12 0 -20 16t-28 14q-34 -4 -45 -17t-21 -49z" />
<glyph unicode="&#xa3;" horiz-adv-x="1832" d="M648 1032q0 -60 6 -116l530 20q32 4 56 -20t39 -59t22 -73t7 -60v-62q-2 -12 -52 -23t-131 -20t-183 -15t-210 -12q6 -10 4 -57t-3 -101t-1 -99t8 -51q12 -8 55 -4t92 11t92 15t55 8q42 4 109 -3t140 -17t140 -19t107 -9q20 0 40 -10t36 -10l8 4q8 4 12 4q2 4 12 6t14 6 h8q-22 -10 -30 -32t-4 -44h12q22 0 35 8t29 8h6l-18 -34h10l5 -15t3 -15q0 -22 -7 -43t-29 -33l8 -6q-24 -30 -69 -43t-101 -16t-120 2t-126 12t-116 13t-90 6q-12 0 -53 -8t-97 -18t-118 -22t-117 -21t-96 -12t-53 5q-40 24 -62 67t-34 98t-18 117t-12 123t-15 115t-29 92 l-206 4q-44 0 -90 7t-83 26t-61 52t-24 87q0 36 25 51t61 21t74 9t64 17l216 22q20 292 87 490t183 320t280 174t378 52q104 0 199 -37t168 -102t117 -155t44 -198q0 -32 -1 -72t-9 -79t-23 -75t-45 -58q-2 -2 -6 -4q-2 -2 -6 -2h-2q-48 -18 -73 -34t-48 -28t-55 -18t-92 -6 q-20 64 -18 147t-4 158t-38 127t-118 56q-94 18 -201 -17t-197 -106t-148 -167t-54 -200z" />
<glyph unicode="&#xa8;" horiz-adv-x="1384" d="M216 1366q-32 18 -57 29t-42 28t-26 43t-9 72q0 56 31 105t79 86t105 58t111 21q52 0 84 -24t52 -60t29 -78t17 -80q0 -4 3 -14t7 -22l7 -21t3 -11q0 -16 -11 -40t-17 -32q-12 -18 -29 -24t-36 -8t-39 -1t-36 -1q-26 -4 -43 -19t-39 -15h-24q-6 0 -24 1t-38 3t-36 3 t-22 1zM920 1366q-32 18 -57 29t-42 28t-26 43t-9 72q0 56 31 105t79 86t105 58t111 21q52 0 84 -24t52 -60t29 -78t17 -80q0 -4 3 -14t7 -22l7 -21t3 -11q0 -16 -11 -40t-17 -32q-12 -18 -29 -24t-36 -8t-39 -1t-36 -1q-26 -4 -43 -19t-39 -15h-24q-6 0 -24 1t-38 3t-36 3 t-22 1z" />
<glyph unicode="&#xad;" horiz-adv-x="1096" d="M272 502q-52 12 -93 38t-41 78q0 48 42 86t109 66t148 48t161 32t149 17t109 5q26 0 47 -25t37 -60t25 -70t9 -53v-48q-10 -8 -28 -29t-32 -37z" />
<glyph unicode="&#xaf;" horiz-adv-x="1064" d="M192 1350q-52 12 -93 38t-41 78q0 48 51 82t131 56t177 34t190 18t171 7t118 1q26 0 47 -25t37 -60t25 -70t9 -53v-48q-10 -8 -28 -29t-32 -37z" />
<glyph unicode="&#xb4;" horiz-adv-x="848" d="M722 1874q0 -30 -7 -50t-19 -35t-29 -29t-37 -30q-28 -26 -56 -50t-56 -52q-38 -34 -74 -80t-76 -78q-28 -20 -70 -23t-76 -3q-34 10 -50 39t-21 69t2 84t20 84t31 70t38 42l2 -2q20 22 53 58t71 71t77 61t69 28q30 0 67 -11t68 -33t52 -54t21 -76z" />
<glyph unicode="&#xb8;" horiz-adv-x="808" d="M248 -852q-4 -2 2 12t15 32t15 32t2 12l-10 12q-4 -10 -18 -22t-30 -16q-6 8 -14 6t-17 -4t-14 2t-5 24l-14 -7t-21 -11t-22 -11t-17 -7h-6q-52 6 -55 20t14 33t43 41t34 40q126 34 206 89t101 108t-25 91t-174 36q-10 6 -14 11t-6 11t-4 11t-8 11q-10 -6 -12 -16t4 -20 q-58 28 -73 74t-12 100t14 110t3 104q18 36 44 37t44 -9t23 -21t-17 1q2 14 28 22t59 6t66 -13t49 -35q30 2 28 -29t-14 -68t-20 -63t12 -14q170 -12 254 -73t102 -143t-20 -174t-115 -168t-183 -124t-222 -40zM180 -280q-10 0 -10 -5t10 -1q4 2 4 5t-4 1z" />
<glyph unicode="&#xbf;" horiz-adv-x="1264" d="M894 1776q0 -52 -21 -94t-56 -73t-79 -53t-90 -34q-12 -4 -26 -12t-30 -8q-38 0 -65 21t-55 45h-12q-2 0 -17 22t-19 36v36q0 60 22 108t60 80t89 49t107 17q32 0 66 -8t62 -25t46 -43t18 -64zM828 1154q8 -4 25 -14t36 -22t36 -22t23 -14q8 -6 20 -19t24 -27t21 -27 t9 -21q4 -38 -23 -78t-70 -83t-93 -89t-94 -98t-74 -112t-30 -128q0 -8 1 -19t5 -20t12 -14t22 -1q4 2 20 21t35 41t35 42t22 26q4 6 14 17t22 23l23 23t17 15q0 -4 7 -4t9 4q4 0 16 3t26 6t27 5t15 2h4q64 0 104 -19t78 -65v-42q0 -92 -60 -164t-145 -127t-181 -93 t-168 -60h-50q-150 0 -228 73t-78 227q6 76 29 153t59 149t83 137t97 115q-10 0 -24 16t-26 38t-20 44t-8 36q0 18 15 58t36 81t45 72t42 31q16 0 22 -4t28 -4q24 0 42 4t40 4q52 0 76 -14t50 -62z" />
<glyph unicode="&#xc0;" horiz-adv-x="1472" d="M410 2318q0 38 22 68t54 49t69 29t69 10q30 -2 70 -25t79 -54t73 -64t54 -53l4 4q30 -16 56 -67t35 -109t-6 -108t-65 -64q-34 0 -77 3t-71 19q-42 30 -79 70t-77 74q-28 24 -57 46t-57 44q-44 30 -70 52t-26 76zM320 28q-2 0 -15 -4t-15 -4q-2 -2 -11 -4t-21 -3l-24 -2 t-20 -3h-4q-12 0 -14 9t-7 20t-16 22t-41 15q-22 4 -34 13t-24 25v48q0 24 3 74t6 113t8 133t8 133t6 114t3 75q0 10 -1 39t-1 37q-4 6 -11 32t-7 36q0 2 3 13t5 15v70q0 142 -14 279t-10 279q0 44 4 102t20 111t51 90t99 37h200q14 0 35 -19t31 -29q0 -6 1 -21t2 -31l2 -32 t1 -22v-34q28 0 46 16t42 32q28 16 64 21t68 5q38 0 71 -8t65 -12q54 -6 85 -16t53 -29t41 -48t49 -73q6 -10 14 -18t16 -17t14 -19t6 -24h-10q0 -16 7 -41t19 -41q0 -4 9 -7t9 -7q16 -22 17 -46t19 -46q0 -2 -2 -4q-4 -4 -6 -4t-9 4t-9 4v-4v-4q0 -4 5 -16t11 -27t12 -29 t10 -22q10 -22 14 -43t20 -43q4 4 7 6t7 4h2q40 0 57 -14t17 -50h64q-28 -16 -56 -31t-28 -45q14 0 22 -1t14 -1t13 2t21 8l14 -20q-14 10 -25 1t-21 -25t-19 -31t-19 -15q0 -28 4 -54t4 -54q0 -8 1 -16t-11 -10l20 -10q14 -170 24 -308q4 -58 9 -115t9 -104t8 -78t6 -39 q2 -6 3 -19t4 -26t8 -23t13 -12v-106q-28 0 -28 -28l-10 28q0 -6 -8 -17t-18 -11q-8 0 -11 6l-7 14t-9 14t-15 6l-14 -12q-12 6 -17 12t-6 11t-4 8t-13 3v-8q2 -4 2 -9t2 -11q0 -8 2 -14h16q-2 -2 -2 -4v-6q-4 -4 -14 -15t-14 -13q-4 0 -4 -1t-2 -1l-2 -2q0 20 -16 34 t-16 36h-8q-6 0 -20 -8t-18 -12q-10 26 -33 58t-53 32v6h-24q0 6 -5 62t-14 136t-19 171t-20 168t-18 128t-12 51q-62 0 -124 -20t-130 -20v12q22 0 49 5t45 15h-6h-10q-8 -4 -38 -7t-40 -5l-8 -8q-12 -20 -50 -25t-80 -7t-77 -8t-43 -26q-2 -6 -3 -41t-2 -85t-2 -106 t-1 -106t-1 -85t-1 -41q-6 -20 -16 -35t-18 -31q0 -4 2 -24t-2 -24l-5 -12t-13 -27t-15 -30t-11 -23t-9 -15t-9 -15q-6 -8 -10 -18h-28v8q0 4 2 9t-14 9zM1326 48q-4 0 -4 -10t4 -10q6 0 6 10t-6 10zM1320 88q-10 0 -10 -10t10 -10q4 0 4 10t-4 10zM1018 778q-8 0 -8 -10 t8 -10q6 0 6 10t-6 10zM624 808q-6 0 -6 -10t6 -10q10 0 10 10t-10 10zM846 806l28 8h-28v-8zM934 832q-10 0 -10 -9t10 -9q6 0 6 9t-6 9zM998 842q-8 0 -8 -9t8 -9t8 9t-8 9zM954 858q-10 0 -10 -8t10 -8q6 0 6 8t-6 8zM1346 1018q-8 0 -8 -8t8 -8t8 8t-8 8zM1308 1074 q-4 0 -4 -8t4 -8q6 0 6 8t-6 8zM760 1510q-34 18 -68 -12t-62 -90t-49 -143t-29 -169v-12q2 0 13 2t15 2q14 2 57 7t92 11t91 10t54 6q16 0 20 5t4 15q8 16 -4 71t-34 118t-49 116t-51 63zM1234 1342q8 -6 17 -22t16 -33t11 -34t4 -27q0 -2 -5 -6t-9 -4q-10 22 -22 51 t-12 57v18zM592 1454q-4 4 -8 -2t0 -8q10 0 8 10zM600 1482q-6 0 -6 -10t6 -10q10 0 10 10t-10 10zM584 1490q-10 0 -10 -8t10 -8q6 0 6 8t-6 8zM1158 1462q-8 0 -8 -10t8 -10t8 10t-8 10zM584 1576q-10 0 -10 -10t10 -10q6 0 6 10t-6 10zM658 1596q-8 0 -8 -10t8 -10 q4 0 4 10t-4 10z" />
<glyph unicode="&#xc1;" horiz-adv-x="1472" d="M1130 2414q0 -30 -7 -50t-19 -35t-29 -29t-37 -30q-28 -26 -56 -50t-56 -52q-38 -34 -74 -80t-76 -78q-28 -20 -70 -23t-76 -3q-34 10 -50 39t-21 69t2 84t20 84t31 70t38 42l2 -2q20 22 53 58t71 71t77 61t69 28q30 0 67 -11t68 -33t52 -54t21 -76zM320 28q-2 0 -15 -4 t-15 -4q-2 -2 -11 -4t-21 -3l-24 -2t-20 -3h-4q-12 0 -14 9t-7 20t-16 22t-41 15q-22 4 -34 13t-24 25v48q0 24 3 74t6 113t8 133t8 133t6 114t3 75q0 10 -1 39t-1 37q-4 6 -11 32t-7 36q0 2 3 13t5 15v70q0 142 -14 279t-10 279q0 44 4 102t20 111t51 90t99 37h200 q14 0 35 -19t31 -29q0 -6 1 -21t2 -31l2 -32t1 -22v-34q28 0 46 16t42 32q28 16 64 21t68 5q38 0 71 -8t65 -12q54 -6 85 -16t53 -29t41 -48t49 -73q6 -10 14 -18t16 -17t14 -19t6 -24h-10q0 -16 7 -41t19 -41q0 -4 9 -7t9 -7q16 -22 17 -46t19 -46q0 -2 -2 -4q-4 -4 -6 -4 t-9 4t-9 4v-4v-4q0 -4 5 -16t11 -27t12 -29t10 -22q10 -22 14 -43t20 -43q4 4 7 6t7 4h2q40 0 57 -14t17 -50h64q-28 -16 -56 -31t-28 -45q14 0 22 -1t14 -1t13 2t21 8l14 -20q-14 10 -25 1t-21 -25t-19 -31t-19 -15q0 -28 4 -54t4 -54q0 -8 1 -16t-11 -10l20 -10 q14 -170 24 -308q4 -58 9 -115t9 -104t8 -78t6 -39q2 -6 3 -19t4 -26t8 -23t13 -12v-106q-28 0 -28 -28l-10 28q0 -6 -8 -17t-18 -11q-8 0 -11 6l-7 14t-9 14t-15 6l-14 -12q-12 6 -17 12t-6 11t-4 8t-13 3v-8q2 -4 2 -9t2 -11q0 -8 2 -14h16q-2 -2 -2 -4v-6q-4 -4 -14 -15 t-14 -13q-4 0 -4 -1t-2 -1l-2 -2q0 20 -16 34t-16 36h-8q-6 0 -20 -8t-18 -12q-10 26 -33 58t-53 32v6h-24q0 6 -5 62t-14 136t-19 171t-20 168t-18 128t-12 51q-62 0 -124 -20t-130 -20v12q22 0 49 5t45 15h-6h-10q-8 -4 -38 -7t-40 -5l-8 -8q-12 -20 -50 -25t-80 -7 t-77 -8t-43 -26q-2 -6 -3 -41t-2 -85t-2 -106t-1 -106t-1 -85t-1 -41q-6 -20 -16 -35t-18 -31q0 -4 2 -24t-2 -24l-5 -12t-13 -27t-15 -30t-11 -23t-9 -15t-9 -15q-6 -8 -10 -18h-28v8q0 4 2 9t-14 9zM1326 48q-4 0 -4 -10t4 -10q6 0 6 10t-6 10zM1320 88q-10 0 -10 -10 t10 -10q4 0 4 10t-4 10zM1018 778q-8 0 -8 -10t8 -10q6 0 6 10t-6 10zM624 808q-6 0 -6 -10t6 -10q10 0 10 10t-10 10zM846 806l28 8h-28v-8zM934 832q-10 0 -10 -9t10 -9q6 0 6 9t-6 9zM998 842q-8 0 -8 -9t8 -9t8 9t-8 9zM954 858q-10 0 -10 -8t10 -8q6 0 6 8t-6 8z M1346 1018q-8 0 -8 -8t8 -8t8 8t-8 8zM1308 1074q-4 0 -4 -8t4 -8q6 0 6 8t-6 8zM760 1510q-34 18 -68 -12t-62 -90t-49 -143t-29 -169v-12q2 0 13 2t15 2q14 2 57 7t92 11t91 10t54 6q16 0 20 5t4 15q8 16 -4 71t-34 118t-49 116t-51 63zM1234 1342q8 -6 17 -22t16 -33 t11 -34t4 -27q0 -2 -5 -6t-9 -4q-10 22 -22 51t-12 57v18zM592 1454q-4 4 -8 -2t0 -8q10 0 8 10zM600 1482q-6 0 -6 -10t6 -10q10 0 10 10t-10 10zM584 1490q-10 0 -10 -8t10 -8q6 0 6 8t-6 8zM1158 1462q-8 0 -8 -10t8 -10t8 10t-8 10zM584 1576q-10 0 -10 -10t10 -10 q6 0 6 10t-6 10zM658 1596q-8 0 -8 -10t8 -10q4 0 4 10t-4 10z" />
<glyph unicode="&#xc2;" horiz-adv-x="1472" d="M202 2156q-6 46 11 85t45 73t60 67t54 67q8 10 24 36t34 54t33 54t21 36q32 22 71 44t81 39t84 28t82 11q28 0 70 -29t89 -75t95 -103t86 -113t62 -105t24 -79q0 -16 -7 -25t-16 -15t-18 -11t-15 -15q-12 -20 -11 -30t2 -13t-5 -2t-36 1q0 -6 1 -18t1 -18q0 -4 -28 -8 t-63 -8t-66 -7t-39 -3q-28 0 -56 28t-54 66t-49 78t-41 62q-20 -66 -48 -111t-63 -77t-75 -55t-84 -43l-130 -14q-8 12 -21 18t-27 10t-26 9t-18 17q-4 10 -11 26t-11 32q-8 18 -12 36zM320 28q-2 0 -15 -4t-15 -4q-2 -2 -11 -4t-21 -3l-24 -2t-20 -3h-4q-12 0 -14 9t-7 20 t-16 22t-41 15q-22 4 -34 13t-24 25v48q0 24 3 74t6 113t8 133t8 133t6 114t3 75q0 10 -1 39t-1 37q-4 6 -11 32t-7 36q0 2 3 13t5 15v70q0 142 -14 279t-10 279q0 44 4 102t20 111t51 90t99 37h200q14 0 35 -19t31 -29q0 -6 1 -21t2 -31l2 -32t1 -22v-34q28 0 46 16t42 32 q28 16 64 21t68 5q38 0 71 -8t65 -12q54 -6 85 -16t53 -29t41 -48t49 -73q6 -10 14 -18t16 -17t14 -19t6 -24h-10q0 -16 7 -41t19 -41q0 -4 9 -7t9 -7q16 -22 17 -46t19 -46q0 -2 -2 -4q-4 -4 -6 -4t-9 4t-9 4v-4v-4q0 -4 5 -16t11 -27t12 -29t10 -22q10 -22 14 -43t20 -43 q4 4 7 6t7 4h2q40 0 57 -14t17 -50h64q-28 -16 -56 -31t-28 -45q14 0 22 -1t14 -1t13 2t21 8l14 -20q-14 10 -25 1t-21 -25t-19 -31t-19 -15q0 -28 4 -54t4 -54q0 -8 1 -16t-11 -10l20 -10q14 -170 24 -308q4 -58 9 -115t9 -104t8 -78t6 -39q2 -6 3 -19t4 -26t8 -23t13 -12 v-106q-28 0 -28 -28l-10 28q0 -6 -8 -17t-18 -11q-8 0 -11 6l-7 14t-9 14t-15 6l-14 -12q-12 6 -17 12t-6 11t-4 8t-13 3v-8q2 -4 2 -9t2 -11q0 -8 2 -14h16q-2 -2 -2 -4v-6q-4 -4 -14 -15t-14 -13q-4 0 -4 -1t-2 -1l-2 -2q0 20 -16 34t-16 36h-8q-6 0 -20 -8t-18 -12 q-10 26 -33 58t-53 32v6h-24q0 6 -5 62t-14 136t-19 171t-20 168t-18 128t-12 51q-62 0 -124 -20t-130 -20v12q22 0 49 5t45 15h-6h-10q-8 -4 -38 -7t-40 -5l-8 -8q-12 -20 -50 -25t-80 -7t-77 -8t-43 -26q-2 -6 -3 -41t-2 -85t-2 -106t-1 -106t-1 -85t-1 -41 q-6 -20 -16 -35t-18 -31q0 -4 2 -24t-2 -24l-5 -12t-13 -27t-15 -30t-11 -23t-9 -15t-9 -15q-6 -8 -10 -18h-28v8q0 4 2 9t-14 9zM1326 48q-4 0 -4 -10t4 -10q6 0 6 10t-6 10zM1320 88q-10 0 -10 -10t10 -10q4 0 4 10t-4 10zM1018 778q-8 0 -8 -10t8 -10q6 0 6 10t-6 10z M624 808q-6 0 -6 -10t6 -10q10 0 10 10t-10 10zM846 806l28 8h-28v-8zM934 832q-10 0 -10 -9t10 -9q6 0 6 9t-6 9zM998 842q-8 0 -8 -9t8 -9t8 9t-8 9zM954 858q-10 0 -10 -8t10 -8q6 0 6 8t-6 8zM1346 1018q-8 0 -8 -8t8 -8t8 8t-8 8zM1308 1074q-4 0 -4 -8t4 -8q6 0 6 8 t-6 8zM760 1510q-34 18 -68 -12t-62 -90t-49 -143t-29 -169v-12q2 0 13 2t15 2q14 2 57 7t92 11t91 10t54 6q16 0 20 5t4 15q8 16 -4 71t-34 118t-49 116t-51 63zM1234 1342q8 -6 17 -22t16 -33t11 -34t4 -27q0 -2 -5 -6t-9 -4q-10 22 -22 51t-12 57v18zM592 1454 q-4 4 -8 -2t0 -8q10 0 8 10zM600 1482q-6 0 -6 -10t6 -10q10 0 10 10t-10 10zM584 1490q-10 0 -10 -8t10 -8q6 0 6 8t-6 8zM1158 1462q-8 0 -8 -10t8 -10t8 10t-8 10zM584 1576q-10 0 -10 -10t10 -10q6 0 6 10t-6 10zM658 1596q-8 0 -8 -10t8 -10q4 0 4 10t-4 10z" />
<glyph unicode="&#xc3;" horiz-adv-x="1472" d="M490 2290q-4 0 -17 -21t-29 -48t-32 -53t-26 -34q-6 -2 -23 -11t-35 -20t-33 -21t-19 -14h-10q-26 0 -43 9t-41 17q-24 6 -50 7t-47 7t-34 22t-13 54q0 40 13 84t34 87t47 82t50 69q28 36 56 52t50 48q78 24 145 47t147 23q6 0 26 -1t24 -1q28 -22 56 -27t58 -33 q4 -2 19 -19t17 -23l8 -8q6 -6 10 -6q4 -8 14 -23t20 -31t20 -30t14 -18q8 -14 19 -44t25 -60t31 -53t35 -23q12 0 20 23t13 52t8 56t5 37q0 4 4 8q2 2 6 4l4 8q4 8 4 10q16 50 47 81t70 48t86 23t97 6q16 0 32 -12t28 -30t19 -38t7 -34q0 -50 -16 -98t-16 -100v-8 q2 -4 5 -9t3 -9l-8 -4v-18q-40 -52 -92 -104t-112 -94t-126 -69t-134 -27q-24 0 -53 1t-59 6t-57 13t-47 22q-44 22 -68 49t-52 65q-10 14 -24 40t-29 52t-29 45t-22 19zM320 28q-2 0 -15 -4t-15 -4q-2 -2 -11 -4t-21 -3l-24 -2t-20 -3h-4q-12 0 -14 9t-7 20t-16 22t-41 15 q-22 4 -34 13t-24 25v48q0 24 3 74t6 113t8 133t8 133t6 114t3 75q0 10 -1 39t-1 37q-4 6 -11 32t-7 36q0 2 3 13t5 15v70q0 142 -14 279t-10 279q0 44 4 102t20 111t51 90t99 37h200q14 0 35 -19t31 -29q0 -6 1 -21t2 -31l2 -32t1 -22v-34q28 0 46 16t42 32q28 16 64 21 t68 5q38 0 71 -8t65 -12q54 -6 85 -16t53 -29t41 -48t49 -73q6 -10 14 -18t16 -17t14 -19t6 -24h-10q0 -16 7 -41t19 -41q0 -4 9 -7t9 -7q16 -22 17 -46t19 -46q0 -2 -2 -4q-4 -4 -6 -4t-9 4t-9 4v-4v-4q0 -4 5 -16t11 -27t12 -29t10 -22q10 -22 14 -43t20 -43q4 4 7 6t7 4 h2q40 0 57 -14t17 -50h64q-28 -16 -56 -31t-28 -45q14 0 22 -1t14 -1t13 2t21 8l14 -20q-14 10 -25 1t-21 -25t-19 -31t-19 -15q0 -28 4 -54t4 -54q0 -8 1 -16t-11 -10l20 -10q14 -170 24 -308q4 -58 9 -115t9 -104t8 -78t6 -39q2 -6 3 -19t4 -26t8 -23t13 -12v-106 q-28 0 -28 -28l-10 28q0 -6 -8 -17t-18 -11q-8 0 -11 6l-7 14t-9 14t-15 6l-14 -12q-12 6 -17 12t-6 11t-4 8t-13 3v-8q2 -4 2 -9t2 -11q0 -8 2 -14h16q-2 -2 -2 -4v-6q-4 -4 -14 -15t-14 -13q-4 0 -4 -1t-2 -1l-2 -2q0 20 -16 34t-16 36h-8q-6 0 -20 -8t-18 -12 q-10 26 -33 58t-53 32v6h-24q0 6 -5 62t-14 136t-19 171t-20 168t-18 128t-12 51q-62 0 -124 -20t-130 -20v12q22 0 49 5t45 15h-6h-10q-8 -4 -38 -7t-40 -5l-8 -8q-12 -20 -50 -25t-80 -7t-77 -8t-43 -26q-2 -6 -3 -41t-2 -85t-2 -106t-1 -106t-1 -85t-1 -41 q-6 -20 -16 -35t-18 -31q0 -4 2 -24t-2 -24l-5 -12t-13 -27t-15 -30t-11 -23t-9 -15t-9 -15q-6 -8 -10 -18h-28v8q0 4 2 9t-14 9zM1326 48q-4 0 -4 -10t4 -10q6 0 6 10t-6 10zM1320 88q-10 0 -10 -10t10 -10q4 0 4 10t-4 10zM1018 778q-8 0 -8 -10t8 -10q6 0 6 10t-6 10z M624 808q-6 0 -6 -10t6 -10q10 0 10 10t-10 10zM846 806l28 8h-28v-8zM934 832q-10 0 -10 -9t10 -9q6 0 6 9t-6 9zM998 842q-8 0 -8 -9t8 -9t8 9t-8 9zM954 858q-10 0 -10 -8t10 -8q6 0 6 8t-6 8zM1346 1018q-8 0 -8 -8t8 -8t8 8t-8 8zM1308 1074q-4 0 -4 -8t4 -8q6 0 6 8 t-6 8zM760 1510q-34 18 -68 -12t-62 -90t-49 -143t-29 -169v-12q2 0 13 2t15 2q14 2 57 7t92 11t91 10t54 6q16 0 20 5t4 15q8 16 -4 71t-34 118t-49 116t-51 63zM1234 1342q8 -6 17 -22t16 -33t11 -34t4 -27q0 -2 -5 -6t-9 -4q-10 22 -22 51t-12 57v18zM592 1454 q-4 4 -8 -2t0 -8q10 0 8 10zM600 1482q-6 0 -6 -10t6 -10q10 0 10 10t-10 10zM584 1490q-10 0 -10 -8t10 -8q6 0 6 8t-6 8zM1158 1462q-8 0 -8 -10t8 -10t8 10t-8 10zM584 1576q-10 0 -10 -10t10 -10q6 0 6 10t-6 10zM658 1596q-8 0 -8 -10t8 -10q4 0 4 10t-4 10z" />
<glyph unicode="&#xc4;" horiz-adv-x="1472" d="M244 2062q-32 18 -57 29t-42 28t-26 43t-9 72q0 56 31 105t79 86t105 58t111 21q52 0 84 -24t52 -60t29 -78t17 -80q0 -4 3 -14t7 -22l7 -21t3 -11q0 -16 -11 -40t-17 -32q-12 -18 -29 -24t-36 -8t-39 -1t-36 -1q-26 -4 -43 -19t-39 -15h-24q-6 0 -24 1t-38 3t-36 3 t-22 1zM948 2062q-32 18 -57 29t-42 28t-26 43t-9 72q0 56 31 105t79 86t105 58t111 21q52 0 84 -24t52 -60t29 -78t17 -80q0 -4 3 -14t7 -22l7 -21t3 -11q0 -16 -11 -40t-17 -32q-12 -18 -29 -24t-36 -8t-39 -1t-36 -1q-26 -4 -43 -19t-39 -15h-24q-6 0 -24 1t-38 3t-36 3 t-22 1zM320 28q-2 0 -15 -4t-15 -4q-2 -2 -11 -4t-21 -3l-24 -2t-20 -3h-4q-12 0 -14 9t-7 20t-16 22t-41 15q-22 4 -34 13t-24 25v48q0 24 3 74t6 113t8 133t8 133t6 114t3 75q0 10 -1 39t-1 37q-4 6 -11 32t-7 36q0 2 3 13t5 15v70q0 142 -14 279t-10 279q0 44 4 102 t20 111t51 90t99 37h200q14 0 35 -19t31 -29q0 -6 1 -21t2 -31l2 -32t1 -22v-34q28 0 46 16t42 32q28 16 64 21t68 5q38 0 71 -8t65 -12q54 -6 85 -16t53 -29t41 -48t49 -73q6 -10 14 -18t16 -17t14 -19t6 -24h-10q0 -16 7 -41t19 -41q0 -4 9 -7t9 -7q16 -22 17 -46t19 -46 q0 -2 -2 -4q-4 -4 -6 -4t-9 4t-9 4v-4v-4q0 -4 5 -16t11 -27t12 -29t10 -22q10 -22 14 -43t20 -43q4 4 7 6t7 4h2q40 0 57 -14t17 -50h64q-28 -16 -56 -31t-28 -45q14 0 22 -1t14 -1t13 2t21 8l14 -20q-14 10 -25 1t-21 -25t-19 -31t-19 -15q0 -28 4 -54t4 -54q0 -8 1 -16 t-11 -10l20 -10q14 -170 24 -308q4 -58 9 -115t9 -104t8 -78t6 -39q2 -6 3 -19t4 -26t8 -23t13 -12v-106q-28 0 -28 -28l-10 28q0 -6 -8 -17t-18 -11q-8 0 -11 6l-7 14t-9 14t-15 6l-14 -12q-12 6 -17 12t-6 11t-4 8t-13 3v-8q2 -4 2 -9t2 -11q0 -8 2 -14h16q-2 -2 -2 -4v-6 q-4 -4 -14 -15t-14 -13q-4 0 -4 -1t-2 -1l-2 -2q0 20 -16 34t-16 36h-8q-6 0 -20 -8t-18 -12q-10 26 -33 58t-53 32v6h-24q0 6 -5 62t-14 136t-19 171t-20 168t-18 128t-12 51q-62 0 -124 -20t-130 -20v12q22 0 49 5t45 15h-6h-10q-8 -4 -38 -7t-40 -5l-8 -8 q-12 -20 -50 -25t-80 -7t-77 -8t-43 -26q-2 -6 -3 -41t-2 -85t-2 -106t-1 -106t-1 -85t-1 -41q-6 -20 -16 -35t-18 -31q0 -4 2 -24t-2 -24l-5 -12t-13 -27t-15 -30t-11 -23t-9 -15t-9 -15q-6 -8 -10 -18h-28v8q0 4 2 9t-14 9zM1326 48q-4 0 -4 -10t4 -10q6 0 6 10t-6 10z M1320 88q-10 0 -10 -10t10 -10q4 0 4 10t-4 10zM1018 778q-8 0 -8 -10t8 -10q6 0 6 10t-6 10zM624 808q-6 0 -6 -10t6 -10q10 0 10 10t-10 10zM846 806l28 8h-28v-8zM934 832q-10 0 -10 -9t10 -9q6 0 6 9t-6 9zM998 842q-8 0 -8 -9t8 -9t8 9t-8 9zM954 858q-10 0 -10 -8 t10 -8q6 0 6 8t-6 8zM1346 1018q-8 0 -8 -8t8 -8t8 8t-8 8zM1308 1074q-4 0 -4 -8t4 -8q6 0 6 8t-6 8zM760 1510q-34 18 -68 -12t-62 -90t-49 -143t-29 -169v-12q2 0 13 2t15 2q14 2 57 7t92 11t91 10t54 6q16 0 20 5t4 15q8 16 -4 71t-34 118t-49 116t-51 63zM1234 1342 q8 -6 17 -22t16 -33t11 -34t4 -27q0 -2 -5 -6t-9 -4q-10 22 -22 51t-12 57v18zM592 1454q-4 4 -8 -2t0 -8q10 0 8 10zM600 1482q-6 0 -6 -10t6 -10q10 0 10 10t-10 10zM584 1490q-10 0 -10 -8t10 -8q6 0 6 8t-6 8zM1158 1462q-8 0 -8 -10t8 -10t8 10t-8 10zM584 1576 q-10 0 -10 -10t10 -10q6 0 6 10t-6 10zM658 1596q-8 0 -8 -10t8 -10q4 0 4 10t-4 10z" />
<glyph unicode="&#xc5;" horiz-adv-x="1472" d="M1178 2072q-16 -4 -24 -11t-14 -17t-14 -19t-20 -15q-4 -4 -16 -11t-27 -15t-28 -15t-19 -9q-50 -6 -91 -22t-93 -22l-18 4q-6 0 -17 1t-24 3t-25 3t-16 1q-6 0 -22 3t-33 6t-33 6t-22 5q-50 12 -101 26t-99 33t-90 41t-74 50q10 6 -2 11t-22 9q-34 40 -44 88t14 100 q10 22 31 40t45 36t47 36t39 40q8 8 21 14t17 16l16 -4q6 12 24 28t41 30t48 23t43 5l4 10q14 4 26 10q10 4 22 7t22 5q18 2 52 6t72 6t72 2t52 -2l6 -4q2 -4 16 -9t18 -5q2 0 4 2l4 4l4 -2q2 -2 18 -10q8 -4 14 -10h4q6 -2 8 -4l-6 16q22 -10 53 -26t53 -20q28 -16 58 -37 t48 -45q-8 -6 5 -16t15 -14q12 -18 26 -42t23 -50t10 -51t-9 -47q-2 -2 -4 -2h-4q-4 -22 -9 -33t-13 -25q-14 -30 -33 -56t-29 -56zM1250 2258q-4 -4 4 -6t12 2t-5 6t-11 -2zM770 2196q48 -10 78 0t43 31t10 49t-19 51t-45 37t-69 8q-12 -2 -26 1t-29 6t-27 4t-20 -7l-8 8 q-78 -28 -91 -56t13 -53t80 -46t110 -33zM320 28q-2 0 -15 -4t-15 -4q-2 -2 -11 -4t-21 -3l-24 -2t-20 -3h-4q-12 0 -14 9t-7 20t-16 22t-41 15q-22 4 -34 13t-24 25v48q0 24 3 74t6 113t8 133t8 133t6 114t3 75q0 10 -1 39t-1 37q-4 6 -11 32t-7 36q0 2 3 13t5 15v70 q0 142 -14 279t-10 279q0 44 4 102t20 111t51 90t99 37h200q14 0 35 -19t31 -29q0 -6 1 -21t2 -31l2 -32t1 -22v-34q28 0 46 16t42 32q28 16 64 21t68 5q38 0 71 -8t65 -12q54 -6 85 -16t53 -29t41 -48t49 -73q6 -10 14 -18t16 -17t14 -19t6 -24h-10q0 -16 7 -41t19 -41 q0 -4 9 -7t9 -7q16 -22 17 -46t19 -46q0 -2 -2 -4q-4 -4 -6 -4t-9 4t-9 4v-4v-4q0 -4 5 -16t11 -27t12 -29t10 -22q10 -22 14 -43t20 -43q4 4 7 6t7 4h2q40 0 57 -14t17 -50h64q-28 -16 -56 -31t-28 -45q14 0 22 -1t14 -1t13 2t21 8l14 -20q-14 10 -25 1t-21 -25t-19 -31 t-19 -15q0 -28 4 -54t4 -54q0 -8 1 -16t-11 -10l20 -10q14 -170 24 -308q4 -58 9 -115t9 -104t8 -78t6 -39q2 -6 3 -19t4 -26t8 -23t13 -12v-106q-28 0 -28 -28l-10 28q0 -6 -8 -17t-18 -11q-8 0 -11 6l-7 14t-9 14t-15 6l-14 -12q-12 6 -17 12t-6 11t-4 8t-13 3v-8 q2 -4 2 -9t2 -11q0 -8 2 -14h16q-2 -2 -2 -4v-6q-4 -4 -14 -15t-14 -13q-4 0 -4 -1t-2 -1l-2 -2q0 20 -16 34t-16 36h-8q-6 0 -20 -8t-18 -12q-10 26 -33 58t-53 32v6h-24q0 6 -5 62t-14 136t-19 171t-20 168t-18 128t-12 51q-62 0 -124 -20t-130 -20v12q22 0 49 5t45 15h-6 h-10q-8 -4 -38 -7t-40 -5l-8 -8q-12 -20 -50 -25t-80 -7t-77 -8t-43 -26q-2 -6 -3 -41t-2 -85t-2 -106t-1 -106t-1 -85t-1 -41q-6 -20 -16 -35t-18 -31q0 -4 2 -24t-2 -24l-5 -12t-13 -27t-15 -30t-11 -23t-9 -15t-9 -15q-6 -8 -10 -18h-28v8q0 4 2 9t-14 9zM1326 48 q-4 0 -4 -10t4 -10q6 0 6 10t-6 10zM1320 88q-10 0 -10 -10t10 -10q4 0 4 10t-4 10zM1018 778q-8 0 -8 -10t8 -10q6 0 6 10t-6 10zM624 808q-6 0 -6 -10t6 -10q10 0 10 10t-10 10zM846 806l28 8h-28v-8zM934 832q-10 0 -10 -9t10 -9q6 0 6 9t-6 9zM998 842q-8 0 -8 -9t8 -9 t8 9t-8 9zM954 858q-10 0 -10 -8t10 -8q6 0 6 8t-6 8zM1346 1018q-8 0 -8 -8t8 -8t8 8t-8 8zM1308 1074q-4 0 -4 -8t4 -8q6 0 6 8t-6 8zM760 1510q-34 18 -68 -12t-62 -90t-49 -143t-29 -169v-12q2 0 13 2t15 2q14 2 57 7t92 11t91 10t54 6q16 0 20 5t4 15q8 16 -4 71 t-34 118t-49 116t-51 63zM1234 1342q8 -6 17 -22t16 -33t11 -34t4 -27q0 -2 -5 -6t-9 -4q-10 22 -22 51t-12 57v18zM592 1454q-4 4 -8 -2t0 -8q10 0 8 10zM600 1482q-6 0 -6 -10t6 -10q10 0 10 10t-10 10zM584 1490q-10 0 -10 -8t10 -8q6 0 6 8t-6 8zM1158 1462q-8 0 -8 -10 t8 -10t8 10t-8 10zM584 1576q-10 0 -10 -10t10 -10q6 0 6 10t-6 10zM658 1596q-8 0 -8 -10t8 -10q4 0 4 10t-4 10z" />
<glyph unicode="&#xc6;" horiz-adv-x="2286" d="M908 1882q12 -2 24 -3t22 -3q26 22 61 35t83 13q38 0 83 -10t77 -30q18 -8 25 -26t23 -18q60 0 113 19t109 25q48 6 94 9t86 19q6 0 19 1t28 1t28 1t19 1q8 0 23 -1t30 -1t27 -1t14 -1q10 0 25 -3l30 -6t26 -6t11 -5v-2q-16 0 -36 -5t-38 -9q34 -16 70 -20t72 0 q4 -10 16 -16t27 -14t32 -22t31 -40q4 6 17 -1t9 -19q-4 -2 -12 -9t-8 -11v-8q0 -2 8 -11t12 -9v-2q0 -6 -27 -13t-69 -15t-92 -15t-95 -13t-79 -10t-44 -4q-102 -18 -195 -43t-201 -65q-6 -2 -24 -10t-39 -19t-39 -20t-26 -15q-4 0 -12 -6t-8 -10v-12l8 -8q-16 -10 -22 -37 t-6 -37v-236q0 -2 5 -9t9 -7h6q8 0 30 4t46 8t45 8t27 6q4 0 20 4t20 4q36 6 95 16t115 19t97 16l41 7h148q4 0 15 -4t17 -8q12 -4 37 -13t51 -15q-4 -4 -4 -11t8 -7q6 0 7 6t-3 10q18 -4 33 -7t25 1l60 -58v-6h44q0 -20 8 -28t24 -12q-6 0 -17 -8t-22 -18t-19 -22t-10 -18 q-6 2 -28 2t-26 -2q-4 0 -26 -7t-32 -11q-34 -12 -76 -17t-86 -11t-85 -16t-71 -32q0 4 -4 8t-8 4h-2q-26 0 -47 -14t-43 -14q-2 0 -4 2q-4 4 -4 6q-6 -10 -18 -16t-22 -4q-8 0 -29 -7t-45 -14t-45 -15t-29 -12q-16 -4 -49 -10t-67 -16t-59 -25t-25 -39q0 -22 2 -68t4 -96 t5 -95t7 -63q4 -12 18 -12h18q70 0 139 9t137 20t136 20t138 9q76 0 136 -14t120 -44q20 -10 48 -23t32 -17l8 -14h-14q0 -26 8 -33t16 -8t14 -2t4 -15q-16 0 -42 -3t-26 -25q0 -14 11 -17t21 -3q0 -12 -12 -20l-208 -28q0 -8 -43 -13t-99 -11t-110 -13t-74 -17 q-26 -16 -63 -20t-67 -8q-12 0 -41 -4t-62 -7t-62 -6t-41 -3q-18 -6 -40 -27t-28 -31h-4q-16 0 -23 12t-19 22h-4q-20 0 -31 -26t-11 -42q-6 8 -13 10t-13 5t-11 9t-7 20v-40q-4 0 -6 2q-4 0 -5 1t-5 1q-10 4 -13 15t-4 22l-2 22t-9 15q-10 8 -15 8t-10 -1t-14 3t-25 20h-6 q-8 0 -10 -5l-4 -10t-8 -10t-20 -5l-4 4q-4 4 -4 6v10q0 2 -8 5t-12 5q-8 4 -16 30t-16 59t-12 63t-2 44l-46 490q0 4 -2 6q-26 -6 -52 -10t-54 -4v12q20 0 47 4t45 14l-2 2h-12q-8 -4 -38 -7t-40 -5l-8 -8q-12 -20 -41 -25t-59 -8t-55 -9t-33 -26q-2 -6 -3 -41t-2 -85 t-2 -106t-1 -106t-1 -85t-1 -41q-6 -20 -16 -35t-18 -31q0 -4 2 -24t-2 -24l-5 -12t-13 -27t-15 -30t-11 -23t-9 -15t-9 -15q-6 -8 -10 -18h-28v8q0 2 -9 4t-21 5l-24 6l-20 5q-2 0 -15 -4t-15 -4q-2 -2 -11 -4t-21 -3l-24 -2t-20 -3h-4q-12 0 -14 9t-7 20t-16 22t-41 15 q-22 4 -34 13t-24 25v48q0 24 3 74t6 113t8 133t8 133t6 114t3 75q0 10 -1 39t-1 37q-4 6 -11 32t-7 36q0 2 3 13t5 15v70q0 70 4 154t8 170t9 170t7 154q0 44 4 102t20 111t51 90t99 37h200q14 0 35 -19t31 -29q0 -6 1 -21t2 -31l2 -32t1 -22v-34q28 0 46 16t42 32 q28 16 64 21t68 5q38 0 71 -8t65 -12zM600 1074q10 2 33 5t51 6t59 6t57 7q-2 26 -3 51t-1 53q0 90 12 177t8 177q6 4 12 14q-40 -18 -85 -68t-83 -117t-63 -146t-25 -157v-12q2 0 13 2t15 2zM1996 1830q0 -14 14 -21t34 -11t40 -5t30 -1q0 14 -14 22t-33 11t-39 4t-32 1z M2128 1724l6 6q0 10 -15 12t-21 2h-14zM2084 1096q-8 0 -8 -10t8 -10t8 10t-8 10zM576 1398q-6 0 -6 -10t6 -10q10 0 10 10t-10 10zM612 1582q-10 0 -10 -10t10 -10q6 0 6 10t-6 10zM668 790q-6 0 -6 -10t6 -10q10 0 10 10t-10 10zM1096 70q-10 0 -10 -10t10 -10q6 0 6 10 t-6 10zM2122 1772q-10 0 -10 -10t10 -10q4 0 4 10t-4 10zM2056 1022q-8 0 -8 -10t8 -10q6 0 6 10t-6 10zM2094 1022q-8 0 -8 -10t8 -10q6 0 6 10t-6 10zM2094 1062q-8 0 -8 -10t8 -10q6 0 6 10t-6 10zM2160 302q-10 0 -10 -8t10 -8q4 0 4 8t-4 8zM686 1602q-8 0 -8 -10 t8 -10q4 0 4 10t-4 10zM560 1406q-10 0 -10 -8t10 -8q6 0 6 8t-6 8zM2064 1752q-6 0 -6 -8t6 -8q8 0 8 8t-8 8zM2148 994q4 0 9 -1t7 -1q6 0 13 1t11 9zM1886 1856h18q-2 2 -4 6t-4 4l-4 4l-6 -4v-10zM2168 1022q-4 0 -4 -10t4 -10q6 0 6 10t-6 10zM2148 1076q-4 0 -4 -7 t4 -7q10 0 10 7t-10 7zM1914 946q-6 0 -6 -8t6 -8t6 8t-6 8zM2128 1096q-2 0 -9 -3t-11 -3v-14zM2162 1736q0 4 -7 4t-7 -4t5 -4t9 4zM2142 1076q0 6 -7 6t-7 -6q6 -4 14 0zM2140 286q0 4 -7 4t-7 -4q6 -8 14 0zM2142 1050q0 4 -7 4t-7 -4q6 -8 14 0zM568 1370q-4 4 -8 -2 t0 -8q10 0 8 10zM2142 1002v12h-14zM2074 1096q0 6 -5 6t-5 -6q2 -4 6 -4t4 4zM2108 1050q-2 4 -2 -4t2 -4q8 0 8 4t-8 4zM1662 870q2 4 -5 4t-3 -4q0 -4 4 -4t4 4zM2168 1050q0 4 -5 4t-1 -4q0 -4 3 -4t3 4zM2056 1106l8 10h-8v-10zM2046 1142l4 -2q-4 0 -8 2h4z" />
<glyph unicode="&#xc7;" horiz-adv-x="1464" d="M598 -788q-4 -2 2 12t15 32t15 32t2 12l-10 12q-4 -10 -18 -22t-30 -16q-6 8 -14 6t-17 -4t-14 2t-5 24l-14 -7t-21 -11t-22 -11t-17 -7h-6q-52 6 -55 20t14 33t43 41t34 40q126 34 206 89t101 108t-25 91t-174 36q-10 6 -14 11t-6 11t-4 11t-8 11q-10 -6 -12 -16t4 -20 q-58 28 -73 74t-12 100t14 110t3 104q18 36 44 37t44 -9t23 -21t-17 1q2 14 28 22t59 6t66 -13t49 -35q30 2 28 -29t-14 -68t-20 -63t12 -14q170 -12 254 -73t102 -143t-20 -174t-115 -168t-183 -124t-222 -40zM530 -216q-10 0 -10 -5t10 -1q4 2 4 5t-4 1zM54 818 q0 38 -1 83t0 92t4 92t11 81q8 56 18 96t20 90v8q84 274 276 421t474 147q104 0 199 -37t168 -102t117 -155t44 -198q0 -32 -1 -72t-9 -79t-23 -75t-45 -58q-2 -2 -6 -4q-2 -2 -6 -2h-2q-48 -18 -73 -34t-48 -28t-55 -18t-92 -6q-34 0 -70 18t-66 47t-50 64t-20 69 q0 26 7 54t16 58t16 62t7 66q0 6 -6 28t-12 22q-58 0 -105 -31t-84 -81t-63 -114t-44 -128t-26 -123t-8 -101q0 -80 11 -165t36 -167t66 -155t101 -129q24 -16 61 -31t63 -15q42 4 83 18t82 29t82 27t81 12q20 0 40 -10t36 -10l8 4q8 4 12 4q2 4 12 6t14 6h4h4 q-22 -10 -30 -32t-4 -44h12q22 0 35 8t29 8h6l-18 -34h10l5 -15t3 -15q0 -22 -7 -43t-29 -33l8 -6q-36 -44 -116 -79t-173 -59t-183 -37t-146 -13h-45t-56 3t-55 9t-44 16q-162 96 -261 238t-161 316q-10 28 -13 60t-11 60q-8 8 -14 8v108z" />
<glyph unicode="&#xc8;" horiz-adv-x="1568" d="M312 2388q0 38 22 68t54 49t69 29t69 10q30 -2 70 -25t79 -54t73 -64t54 -53l4 4q30 -16 56 -67t35 -109t-6 -108t-65 -64q-34 0 -77 3t-71 19q-42 30 -79 70t-77 74q-28 24 -57 46t-57 44q-44 30 -70 52t-26 76zM398 4q-4 0 -6 2q-4 0 -5 1t-5 1q-10 4 -13 15t-4 22 l-2 22t-9 15q-10 8 -15 8t-10 -1t-14 3t-25 20h-6q-8 0 -10 -5l-4 -10t-8 -10t-20 -5l-4 4q-4 4 -4 6v10q0 2 -8 5t-12 5q-8 4 -16 30t-16 59t-12 63t-2 44l-46 490q0 10 -9 17t-18 15t-17 21t-8 35q0 8 3 21t7 26t11 23t13 12v44q0 56 -5 110t-5 112q0 90 12 177t8 177 q12 4 19 33t15 70t22 87t42 86t72 66t112 26q38 0 83 -10t77 -30q18 -8 25 -26t23 -18q60 0 113 19t109 25q48 6 94 9t86 19q6 0 19 1t28 1t28 1t19 1q8 0 23 -1t30 -1t27 -1t14 -1q10 0 25 -3l30 -6t26 -6t11 -5v-2q-16 0 -36 -5t-38 -9q34 -16 70 -20t72 0q4 -10 16 -16 t27 -14t32 -22t31 -40q4 6 17 -1t9 -19q-4 -2 -12 -9t-8 -11v-2v-6q0 -2 8 -11t12 -9v-2q0 -6 -27 -13t-69 -15t-92 -15t-95 -13t-79 -10t-44 -4q-102 -18 -195 -43t-201 -65q-6 -2 -24 -10t-39 -19t-39 -20t-26 -15q-4 0 -12 -6t-8 -10v-6v-6l8 -8q-16 -10 -22 -37t-6 -37 v-236q0 -2 5 -9t9 -7h6q8 0 30 4t46 8t45 8t27 6q4 0 20 4t20 4q36 6 95 16t115 19t97 16l41 7h148q4 0 15 -4t17 -8l33 -11t44 -14t44 -11t33 0l60 -58v-6h44q0 -20 8 -28t24 -12q-6 0 -17 -8t-22 -18t-19 -22t-10 -18q-6 2 -28 2t-26 -2q-4 0 -26 -7t-32 -11 q-34 -12 -76 -17t-86 -11t-85 -16t-71 -32q0 4 -4 8t-8 4h-2q-26 0 -47 -14t-43 -14q-2 0 -4 2q-4 4 -4 6q-6 -10 -18 -16t-22 -4q-8 0 -29 -7t-45 -14t-45 -15t-29 -12q-16 -4 -49 -10t-67 -16t-59 -25t-25 -39q0 -22 2 -68t4 -96t5 -95t7 -63q4 -12 18 -12h18q70 0 139 9 t137 20t136 20t138 9q76 0 136 -14t120 -44q20 -10 48 -23t32 -17l8 -14h-14q0 -26 8 -33t16 -8t14 -2t4 -15q-16 0 -42 -3t-26 -25q0 -14 11 -17t21 -3q0 -12 -12 -20l-208 -28q0 -8 -43 -13t-99 -11t-110 -13t-74 -17q-26 -16 -63 -20t-67 -8q-12 0 -41 -4t-62 -7t-62 -6 t-41 -3q-18 -6 -40 -27t-28 -31h-4q-16 0 -23 12t-19 22h-4q-20 0 -31 -26t-11 -42q-6 8 -13 11t-13 6t-11 9t-7 22v-44zM394 102q-10 0 -10 -10t10 -10q6 0 6 10t-6 10zM1438 318q0 4 -7 4t-7 -4q6 -8 14 0zM1458 334q-10 0 -10 -8t10 -8q4 0 4 8t-4 8zM960 902q2 4 -5 4 t-3 -4q0 -4 4 -4t4 4zM1212 978q-6 0 -6 -8t6 -8t6 8t-6 8zM1446 1026q4 0 9 -1t7 -1q6 0 13 1t11 9zM1440 1034v12h-14zM1354 1054q-8 0 -8 -10t8 -10q6 0 6 10t-6 10zM1392 1054q-8 0 -8 -10t8 -10q6 0 6 10t-6 10zM1466 1054q-4 0 -4 -10t4 -10q6 0 6 10t-6 10z M1406 1082q-2 4 -2 -4t2 -4q8 0 8 4t-8 4zM1392 1094q-8 0 -8 -10t8 -10q6 0 6 10t-6 10zM1440 1082q0 4 -7 4t-7 -4q6 -8 14 0zM1466 1082q0 4 -5 4t-1 -4q0 -4 3 -4t3 4zM1446 1108q-4 0 -4 -7t4 -7q10 0 10 7t-10 7zM1426 1128q-2 0 -9 -3t-11 -3v-6v-8zM1440 1108 q0 6 -7 6t-7 -6q6 -4 14 0zM1382 1128q-8 0 -8 -10t8 -10t8 10t-8 10zM1372 1128q0 6 -5 6t-5 -6q2 -4 6 -4t4 4zM1354 1138l8 10h-8v-10zM1344 1174q8 0 8 -9t-8 -9t-8 9t8 9zM1426 1756l6 6q0 10 -15 12t-21 2h-14zM1460 1768q0 4 -7 4t-7 -4t5 -4t9 4zM1362 1784 q-6 0 -6 -8t6 -8q8 0 8 8t-8 8zM1420 1804q-10 0 -10 -10t10 -10q4 0 4 10t-4 10zM1294 1862q0 -14 14 -21t34 -11t40 -5t30 -1q0 14 -14 22t-33 11t-39 4t-32 1zM1184 1888h20q-2 0 -5 5t-5 5l-4 4l-6 -4v-10z" />
<glyph unicode="&#xc9;" horiz-adv-x="1568" d="M1074 2458q0 -30 -7 -50t-19 -35t-29 -29t-37 -30q-28 -26 -56 -50t-56 -52q-38 -34 -74 -80t-76 -78q-28 -20 -70 -23t-76 -3q-34 10 -50 39t-21 69t2 84t20 84t31 70t38 42l2 -2q20 22 53 58t71 71t77 61t69 28q30 0 67 -11t68 -33t52 -54t21 -76zM398 4q-4 0 -6 2 q-4 0 -5 1t-5 1q-10 4 -13 15t-4 22l-2 22t-9 15q-10 8 -15 8t-10 -1t-14 3t-25 20h-6q-8 0 -10 -5l-4 -10t-8 -10t-20 -5l-4 4q-4 4 -4 6v10q0 2 -8 5t-12 5q-8 4 -16 30t-16 59t-12 63t-2 44l-46 490q0 10 -9 17t-18 15t-17 21t-8 35q0 8 3 21t7 26t11 23t13 12v44 q0 56 -5 110t-5 112q0 90 12 177t8 177q12 4 19 33t15 70t22 87t42 86t72 66t112 26q38 0 83 -10t77 -30q18 -8 25 -26t23 -18q60 0 113 19t109 25q48 6 94 9t86 19q6 0 19 1t28 1t28 1t19 1q8 0 23 -1t30 -1t27 -1t14 -1q10 0 25 -3l30 -6t26 -6t11 -5v-2q-16 0 -36 -5 t-38 -9q34 -16 70 -20t72 0q4 -10 16 -16t27 -14t32 -22t31 -40q4 6 17 -1t9 -19q-4 -2 -12 -9t-8 -11v-2v-6q0 -2 8 -11t12 -9v-2q0 -6 -27 -13t-69 -15t-92 -15t-95 -13t-79 -10t-44 -4q-102 -18 -195 -43t-201 -65q-6 -2 -24 -10t-39 -19t-39 -20t-26 -15q-4 0 -12 -6 t-8 -10v-6v-6l8 -8q-16 -10 -22 -37t-6 -37v-236q0 -2 5 -9t9 -7h6q8 0 30 4t46 8t45 8t27 6q4 0 20 4t20 4q36 6 95 16t115 19t97 16l41 7h148q4 0 15 -4t17 -8l33 -11t44 -14t44 -11t33 0l60 -58v-6h44q0 -20 8 -28t24 -12q-6 0 -17 -8t-22 -18t-19 -22t-10 -18 q-6 2 -28 2t-26 -2q-4 0 -26 -7t-32 -11q-34 -12 -76 -17t-86 -11t-85 -16t-71 -32q0 4 -4 8t-8 4h-2q-26 0 -47 -14t-43 -14q-2 0 -4 2q-4 4 -4 6q-6 -10 -18 -16t-22 -4q-8 0 -29 -7t-45 -14t-45 -15t-29 -12q-16 -4 -49 -10t-67 -16t-59 -25t-25 -39q0 -22 2 -68t4 -96 t5 -95t7 -63q4 -12 18 -12h18q70 0 139 9t137 20t136 20t138 9q76 0 136 -14t120 -44q20 -10 48 -23t32 -17l8 -14h-14q0 -26 8 -33t16 -8t14 -2t4 -15q-16 0 -42 -3t-26 -25q0 -14 11 -17t21 -3q0 -12 -12 -20l-208 -28q0 -8 -43 -13t-99 -11t-110 -13t-74 -17 q-26 -16 -63 -20t-67 -8q-12 0 -41 -4t-62 -7t-62 -6t-41 -3q-18 -6 -40 -27t-28 -31h-4q-16 0 -23 12t-19 22h-4q-20 0 -31 -26t-11 -42q-6 8 -13 11t-13 6t-11 9t-7 22v-44zM394 102q-10 0 -10 -10t10 -10q6 0 6 10t-6 10zM1438 318q0 4 -7 4t-7 -4q6 -8 14 0zM1458 334 q-10 0 -10 -8t10 -8q4 0 4 8t-4 8zM960 902q2 4 -5 4t-3 -4q0 -4 4 -4t4 4zM1212 978q-6 0 -6 -8t6 -8t6 8t-6 8zM1446 1026q4 0 9 -1t7 -1q6 0 13 1t11 9zM1440 1034v12h-14zM1354 1054q-8 0 -8 -10t8 -10q6 0 6 10t-6 10zM1392 1054q-8 0 -8 -10t8 -10q6 0 6 10t-6 10z M1466 1054q-4 0 -4 -10t4 -10q6 0 6 10t-6 10zM1406 1082q-2 4 -2 -4t2 -4q8 0 8 4t-8 4zM1392 1094q-8 0 -8 -10t8 -10q6 0 6 10t-6 10zM1440 1082q0 4 -7 4t-7 -4q6 -8 14 0zM1466 1082q0 4 -5 4t-1 -4q0 -4 3 -4t3 4zM1446 1108q-4 0 -4 -7t4 -7q10 0 10 7t-10 7z M1426 1128q-2 0 -9 -3t-11 -3v-6v-8zM1440 1108q0 6 -7 6t-7 -6q6 -4 14 0zM1382 1128q-8 0 -8 -10t8 -10t8 10t-8 10zM1372 1128q0 6 -5 6t-5 -6q2 -4 6 -4t4 4zM1354 1138l8 10h-8v-10zM1344 1174q8 0 8 -9t-8 -9t-8 9t8 9zM1426 1756l6 6q0 10 -15 12t-21 2h-14z M1460 1768q0 4 -7 4t-7 -4t5 -4t9 4zM1362 1784q-6 0 -6 -8t6 -8q8 0 8 8t-8 8zM1420 1804q-10 0 -10 -10t10 -10q4 0 4 10t-4 10zM1294 1862q0 -14 14 -21t34 -11t40 -5t30 -1q0 14 -14 22t-33 11t-39 4t-32 1zM1184 1888h20q-2 0 -5 5t-5 5l-4 4l-6 -4v-10z" />
<glyph unicode="&#xca;" horiz-adv-x="1568" d="M396 2136q-6 46 11 85t45 73t60 67t54 67q8 10 24 36t34 54t33 54t21 36q32 22 71 44t81 39t84 28t82 11q28 0 70 -29t89 -75t95 -103t86 -113t62 -105t24 -79q0 -16 -7 -25t-16 -15t-18 -11t-15 -15q-12 -20 -11 -30t2 -13t-5 -2t-36 1q0 -6 1 -18t1 -18q0 -4 -28 -8 t-63 -8t-66 -7t-39 -3q-28 0 -56 28t-54 66t-49 78t-41 62q-20 -66 -48 -111t-63 -77t-75 -55t-84 -43l-130 -14q-8 12 -21 18t-27 10t-26 9t-18 17q-4 10 -11 26t-11 32q-8 18 -12 36zM398 4q-4 0 -6 2q-4 0 -5 1t-5 1q-10 4 -13 15t-4 22l-2 22t-9 15q-10 8 -15 8t-10 -1 t-14 3t-25 20h-6q-8 0 -10 -5l-4 -10t-8 -10t-20 -5l-4 4q-4 4 -4 6v10q0 2 -8 5t-12 5q-8 4 -16 30t-16 59t-12 63t-2 44l-46 490q0 10 -9 17t-18 15t-17 21t-8 35q0 8 3 21t7 26t11 23t13 12v44q0 56 -5 110t-5 112q0 90 12 177t8 177q12 4 19 33t15 70t22 87t42 86t72 66 t112 26q38 0 83 -10t77 -30q18 -8 25 -26t23 -18q60 0 113 19t109 25q48 6 94 9t86 19q6 0 19 1t28 1t28 1t19 1q8 0 23 -1t30 -1t27 -1t14 -1q10 0 25 -3l30 -6t26 -6t11 -5v-2q-16 0 -36 -5t-38 -9q34 -16 70 -20t72 0q4 -10 16 -16t27 -14t32 -22t31 -40q4 6 17 -1t9 -19 q-4 -2 -12 -9t-8 -11v-2v-6q0 -2 8 -11t12 -9v-2q0 -6 -27 -13t-69 -15t-92 -15t-95 -13t-79 -10t-44 -4q-102 -18 -195 -43t-201 -65q-6 -2 -24 -10t-39 -19t-39 -20t-26 -15q-4 0 -12 -6t-8 -10v-6v-6l8 -8q-16 -10 -22 -37t-6 -37v-236q0 -2 5 -9t9 -7h6q8 0 30 4t46 8 t45 8t27 6q4 0 20 4t20 4q36 6 95 16t115 19t97 16l41 7h148q4 0 15 -4t17 -8l33 -11t44 -14t44 -11t33 0l60 -58v-6h44q0 -20 8 -28t24 -12q-6 0 -17 -8t-22 -18t-19 -22t-10 -18q-6 2 -28 2t-26 -2q-4 0 -26 -7t-32 -11q-34 -12 -76 -17t-86 -11t-85 -16t-71 -32q0 4 -4 8 t-8 4h-2q-26 0 -47 -14t-43 -14q-2 0 -4 2q-4 4 -4 6q-6 -10 -18 -16t-22 -4q-8 0 -29 -7t-45 -14t-45 -15t-29 -12q-16 -4 -49 -10t-67 -16t-59 -25t-25 -39q0 -22 2 -68t4 -96t5 -95t7 -63q4 -12 18 -12h18q70 0 139 9t137 20t136 20t138 9q76 0 136 -14t120 -44 q20 -10 48 -23t32 -17l8 -14h-14q0 -26 8 -33t16 -8t14 -2t4 -15q-16 0 -42 -3t-26 -25q0 -14 11 -17t21 -3q0 -12 -12 -20l-208 -28q0 -8 -43 -13t-99 -11t-110 -13t-74 -17q-26 -16 -63 -20t-67 -8q-12 0 -41 -4t-62 -7t-62 -6t-41 -3q-18 -6 -40 -27t-28 -31h-4 q-16 0 -23 12t-19 22h-4q-20 0 -31 -26t-11 -42q-6 8 -13 11t-13 6t-11 9t-7 22v-44zM394 102q-10 0 -10 -10t10 -10q6 0 6 10t-6 10zM1438 318q0 4 -7 4t-7 -4q6 -8 14 0zM1458 334q-10 0 -10 -8t10 -8q4 0 4 8t-4 8zM960 902q2 4 -5 4t-3 -4q0 -4 4 -4t4 4zM1212 978 q-6 0 -6 -8t6 -8t6 8t-6 8zM1446 1026q4 0 9 -1t7 -1q6 0 13 1t11 9zM1440 1034v12h-14zM1354 1054q-8 0 -8 -10t8 -10q6 0 6 10t-6 10zM1392 1054q-8 0 -8 -10t8 -10q6 0 6 10t-6 10zM1466 1054q-4 0 -4 -10t4 -10q6 0 6 10t-6 10zM1406 1082q-2 4 -2 -4t2 -4q8 0 8 4t-8 4 zM1392 1094q-8 0 -8 -10t8 -10q6 0 6 10t-6 10zM1440 1082q0 4 -7 4t-7 -4q6 -8 14 0zM1466 1082q0 4 -5 4t-1 -4q0 -4 3 -4t3 4zM1446 1108q-4 0 -4 -7t4 -7q10 0 10 7t-10 7zM1426 1128q-2 0 -9 -3t-11 -3v-6v-8zM1440 1108q0 6 -7 6t-7 -6q6 -4 14 0zM1382 1128 q-8 0 -8 -10t8 -10t8 10t-8 10zM1372 1128q0 6 -5 6t-5 -6q2 -4 6 -4t4 4zM1354 1138l8 10h-8v-10zM1344 1174q8 0 8 -9t-8 -9t-8 9t8 9zM1426 1756l6 6q0 10 -15 12t-21 2h-14zM1460 1768q0 4 -7 4t-7 -4t5 -4t9 4zM1362 1784q-6 0 -6 -8t6 -8q8 0 8 8t-8 8zM1420 1804 q-10 0 -10 -10t10 -10q4 0 4 10t-4 10zM1294 1862q0 -14 14 -21t34 -11t40 -5t30 -1q0 14 -14 22t-33 11t-39 4t-32 1zM1184 1888h20q-2 0 -5 5t-5 5l-4 4l-6 -4v-10z" />
<glyph unicode="&#xcb;" horiz-adv-x="1568" d="M388 2036q-32 18 -57 29t-42 28t-26 43t-9 72q0 56 31 105t79 86t105 58t111 21q52 0 84 -24t52 -60t29 -78t17 -80q0 -4 3 -14t7 -22l7 -21t3 -11q0 -16 -11 -40t-17 -32q-12 -18 -29 -24t-36 -8t-39 -1t-36 -1q-26 -4 -43 -19t-39 -15h-24q-6 0 -24 1t-38 3t-36 3 t-22 1zM1092 2036q-32 18 -57 29t-42 28t-26 43t-9 72q0 56 31 105t79 86t105 58t111 21q52 0 84 -24t52 -60t29 -78t17 -80q0 -4 3 -14t7 -22l7 -21t3 -11q0 -16 -11 -40t-17 -32q-12 -18 -29 -24t-36 -8t-39 -1t-36 -1q-26 -4 -43 -19t-39 -15h-24q-6 0 -24 1t-38 3t-36 3 t-22 1zM398 4q-4 0 -6 2q-4 0 -5 1t-5 1q-10 4 -13 15t-4 22l-2 22t-9 15q-10 8 -15 8t-10 -1t-14 3t-25 20h-6q-8 0 -10 -5l-4 -10t-8 -10t-20 -5l-4 4q-4 4 -4 6v10q0 2 -8 5t-12 5q-8 4 -16 30t-16 59t-12 63t-2 44l-46 490q0 10 -9 17t-18 15t-17 21t-8 35q0 8 3 21 t7 26t11 23t13 12v44q0 56 -5 110t-5 112q0 90 12 177t8 177q12 4 19 33t15 70t22 87t42 86t72 66t112 26q38 0 83 -10t77 -30q18 -8 25 -26t23 -18q60 0 113 19t109 25q48 6 94 9t86 19q6 0 19 1t28 1t28 1t19 1q8 0 23 -1t30 -1t27 -1t14 -1q10 0 25 -3l30 -6t26 -6t11 -5 v-2q-16 0 -36 -5t-38 -9q34 -16 70 -20t72 0q4 -10 16 -16t27 -14t32 -22t31 -40q4 6 17 -1t9 -19q-4 -2 -12 -9t-8 -11v-2v-6q0 -2 8 -11t12 -9v-2q0 -6 -27 -13t-69 -15t-92 -15t-95 -13t-79 -10t-44 -4q-102 -18 -195 -43t-201 -65q-6 -2 -24 -10t-39 -19t-39 -20 t-26 -15q-4 0 -12 -6t-8 -10v-6v-6l8 -8q-16 -10 -22 -37t-6 -37v-236q0 -2 5 -9t9 -7h6q8 0 30 4t46 8t45 8t27 6q4 0 20 4t20 4q36 6 95 16t115 19t97 16l41 7h148q4 0 15 -4t17 -8l33 -11t44 -14t44 -11t33 0l60 -58v-6h44q0 -20 8 -28t24 -12q-6 0 -17 -8t-22 -18 t-19 -22t-10 -18q-6 2 -28 2t-26 -2q-4 0 -26 -7t-32 -11q-34 -12 -76 -17t-86 -11t-85 -16t-71 -32q0 4 -4 8t-8 4h-2q-26 0 -47 -14t-43 -14q-2 0 -4 2q-4 4 -4 6q-6 -10 -18 -16t-22 -4q-8 0 -29 -7t-45 -14t-45 -15t-29 -12q-16 -4 -49 -10t-67 -16t-59 -25t-25 -39 q0 -22 2 -68t4 -96t5 -95t7 -63q4 -12 18 -12h18q70 0 139 9t137 20t136 20t138 9q76 0 136 -14t120 -44q20 -10 48 -23t32 -17l8 -14h-14q0 -26 8 -33t16 -8t14 -2t4 -15q-16 0 -42 -3t-26 -25q0 -14 11 -17t21 -3q0 -12 -12 -20l-208 -28q0 -8 -43 -13t-99 -11t-110 -13 t-74 -17q-26 -16 -63 -20t-67 -8q-12 0 -41 -4t-62 -7t-62 -6t-41 -3q-18 -6 -40 -27t-28 -31h-4q-16 0 -23 12t-19 22h-4q-20 0 -31 -26t-11 -42q-6 8 -13 11t-13 6t-11 9t-7 22v-44zM394 102q-10 0 -10 -10t10 -10q6 0 6 10t-6 10zM1438 318q0 4 -7 4t-7 -4q6 -8 14 0z M1458 334q-10 0 -10 -8t10 -8q4 0 4 8t-4 8zM960 902q2 4 -5 4t-3 -4q0 -4 4 -4t4 4zM1212 978q-6 0 -6 -8t6 -8t6 8t-6 8zM1446 1026q4 0 9 -1t7 -1q6 0 13 1t11 9zM1440 1034v12h-14zM1354 1054q-8 0 -8 -10t8 -10q6 0 6 10t-6 10zM1392 1054q-8 0 -8 -10t8 -10q6 0 6 10 t-6 10zM1466 1054q-4 0 -4 -10t4 -10q6 0 6 10t-6 10zM1406 1082q-2 4 -2 -4t2 -4q8 0 8 4t-8 4zM1392 1094q-8 0 -8 -10t8 -10q6 0 6 10t-6 10zM1440 1082q0 4 -7 4t-7 -4q6 -8 14 0zM1466 1082q0 4 -5 4t-1 -4q0 -4 3 -4t3 4zM1446 1108q-4 0 -4 -7t4 -7q10 0 10 7t-10 7z M1426 1128q-2 0 -9 -3t-11 -3v-6v-8zM1440 1108q0 6 -7 6t-7 -6q6 -4 14 0zM1382 1128q-8 0 -8 -10t8 -10t8 10t-8 10zM1372 1128q0 6 -5 6t-5 -6q2 -4 6 -4t4 4zM1354 1138l8 10h-8v-10zM1344 1174q8 0 8 -9t-8 -9t-8 9t8 9zM1426 1756l6 6q0 10 -15 12t-21 2h-14z M1460 1768q0 4 -7 4t-7 -4t5 -4t9 4zM1362 1784q-6 0 -6 -8t6 -8q8 0 8 8t-8 8zM1420 1804q-10 0 -10 -10t10 -10q4 0 4 10t-4 10zM1294 1862q0 -14 14 -21t34 -11t40 -5t30 -1q0 14 -14 22t-33 11t-39 4t-32 1zM1184 1888h20q-2 0 -5 5t-5 5l-4 4l-6 -4v-10z" />
<glyph unicode="&#xcc;" horiz-adv-x="730" d="M-104 2388q0 38 22 68t54 49t69 29t69 10q30 -2 70 -25t79 -54t73 -64t54 -53l4 4q30 -16 56 -67t35 -109t-6 -108t-65 -64q-34 0 -77 3t-71 19q-42 30 -79 70t-77 74q-28 24 -57 46t-57 44q-44 30 -70 52t-26 76zM390 58q-58 0 -89 31t-59 85q-24 80 -47 187t-45 229 t-41 251t-33 251t-22 232t-8 192q0 52 5 98t15 106q6 52 18 90t34 62t57 35t87 11q6 0 28 -1t26 -1q16 -14 24 -12t32 -6q64 -28 89 -59t25 -101q0 -54 -10 -107t-10 -111q0 -38 2 -102t6 -142t10 -161t13 -161t15 -142t18 -102v40l12 -8q0 -2 5 -18t11 -39t13 -46t11 -37 q0 -8 4 -26t4 -22v-12v-8l-20 36l-8 -16l48 -152l8 -8v4v4q0 16 -10 46t-10 46h12q8 -24 16 -46l12 -40t10 -34l6 -24t8 -34t8 -33t4 -21v-8v-12l-10 12q-4 18 -10 36q-4 16 -9 32t-7 26q-4 10 -1 16t-7 10v-22q0 -46 12 -93t12 -95q0 -22 -4 -49t-15 -49t-27 -37t-40 -15 q-26 0 -54 20q6 -12 -4 -19t-25 -10t-31 -4t-24 -1q-30 0 -35 20t-5 38zM422 28q-10 0 -10 -10t10 -10q6 0 6 10t-6 10zM554 610q-4 0 -4 -6t4 -2q4 0 4 4t-4 4zM542 630h12l-12 18v-18zM534 702q-2 2 -3 -2t-1 -10t1 -11t3 -5q4 4 4 15t-4 13z" />
<glyph unicode="&#xcd;" horiz-adv-x="730" d="M658 2458q0 -30 -7 -50t-19 -35t-29 -29t-37 -30q-28 -26 -56 -50t-56 -52q-38 -34 -74 -80t-76 -78q-28 -20 -70 -23t-76 -3q-34 10 -50 39t-21 69t2 84t20 84t31 70t38 42l2 -2q20 22 53 58t71 71t77 61t69 28q30 0 67 -11t68 -33t52 -54t21 -76zM390 58q-58 0 -89 31 t-59 85q-24 80 -47 187t-45 229t-41 251t-33 251t-22 232t-8 192q0 52 5 98t15 106q6 52 18 90t34 62t57 35t87 11q6 0 28 -1t26 -1q16 -14 24 -12t32 -6q64 -28 89 -59t25 -101q0 -54 -10 -107t-10 -111q0 -38 2 -102t6 -142t10 -161t13 -161t15 -142t18 -102v40l12 -8 q0 -2 5 -18t11 -39t13 -46t11 -37q0 -8 4 -26t4 -22v-12v-8l-20 36l-8 -16l48 -152l8 -8v4v4q0 16 -10 46t-10 46h12q8 -24 16 -46l12 -40t10 -34l6 -24t8 -34t8 -33t4 -21v-8v-12l-10 12q-4 18 -10 36q-4 16 -9 32t-7 26q-4 10 -1 16t-7 10v-22q0 -46 12 -93t12 -95 q0 -22 -4 -49t-15 -49t-27 -37t-40 -15q-26 0 -54 20q6 -12 -4 -19t-25 -10t-31 -4t-24 -1q-30 0 -35 20t-5 38zM422 28q-10 0 -10 -10t10 -10q6 0 6 10t-6 10zM554 610q-4 0 -4 -6t4 -2q4 0 4 4t-4 4zM542 630h12l-12 18v-18zM534 702q-2 2 -3 -2t-1 -10t1 -11t3 -5 q4 4 4 15t-4 13z" />
<glyph unicode="&#xce;" horiz-adv-x="730" d="M-124 2112q-6 46 11 85t45 73t60 67t54 67q8 10 24 36t34 54t33 54t21 36q32 22 71 44t81 39t84 28t82 11q28 0 70 -29t89 -75t95 -103t86 -113t62 -105t24 -79q0 -16 -7 -25t-16 -15t-18 -11t-15 -15q-12 -20 -11 -30t2 -13t-5 -2t-36 1q0 -6 1 -18t1 -18q0 -4 -28 -8 t-63 -8t-66 -7t-39 -3q-28 0 -56 28t-54 66t-49 78t-41 62q-20 -66 -48 -111t-63 -77t-75 -55t-84 -43l-130 -14q-8 12 -21 18t-27 10t-26 9t-18 17q-4 10 -11 26t-11 32q-8 18 -12 36zM390 58q-58 0 -89 31t-59 85q-24 80 -47 187t-45 229t-41 251t-33 251t-22 232t-8 192 q0 52 5 98t15 106q6 52 18 90t34 62t57 35t87 11q6 0 28 -1t26 -1q16 -14 24 -12t32 -6q64 -28 89 -59t25 -101q0 -54 -10 -107t-10 -111q0 -38 2 -102t6 -142t10 -161t13 -161t15 -142t18 -102v40l12 -8q0 -2 5 -18t11 -39t13 -46t11 -37q0 -8 4 -26t4 -22v-12v-8l-20 36 l-8 -16l48 -152l8 -8v4v4q0 16 -10 46t-10 46h12q8 -24 16 -46l12 -40t10 -34l6 -24t8 -34t8 -33t4 -21v-8v-12l-10 12q-4 18 -10 36q-4 16 -9 32t-7 26q-4 10 -1 16t-7 10v-22q0 -46 12 -93t12 -95q0 -22 -4 -49t-15 -49t-27 -37t-40 -15q-26 0 -54 20q6 -12 -4 -19 t-25 -10t-31 -4t-24 -1q-30 0 -35 20t-5 38zM422 28q-10 0 -10 -10t10 -10q6 0 6 10t-6 10zM554 610q-4 0 -4 -6t4 -2q4 0 4 4t-4 4zM542 630h12l-12 18v-18zM534 702q-2 2 -3 -2t-1 -10t1 -11t3 -5q4 4 4 15t-4 13z" />
<glyph unicode="&#xcf;" horiz-adv-x="730" d="M-114 1950q-32 18 -57 29t-42 28t-26 43t-9 72q0 56 31 105t79 86t105 58t111 21q52 0 84 -24t52 -60t29 -78t17 -80q0 -4 3 -14t7 -22l7 -21t3 -11q0 -16 -11 -40t-17 -32q-12 -18 -29 -24t-36 -8t-39 -1t-36 -1q-26 -4 -43 -19t-39 -15h-24q-6 0 -24 1t-38 3t-36 3 t-22 1zM590 1950q-32 18 -57 29t-42 28t-26 43t-9 72q0 56 31 105t79 86t105 58t111 21q52 0 84 -24t52 -60t29 -78t17 -80q0 -4 3 -14t7 -22l7 -21t3 -11q0 -16 -11 -40t-17 -32q-12 -18 -29 -24t-36 -8t-39 -1t-36 -1q-26 -4 -43 -19t-39 -15h-24q-6 0 -24 1t-38 3t-36 3 t-22 1zM390 58q-58 0 -89 31t-59 85q-24 80 -47 187t-45 229t-41 251t-33 251t-22 232t-8 192q0 52 5 98t15 106q6 52 18 90t34 62t57 35t87 11q6 0 28 -1t26 -1q16 -14 24 -12t32 -6q64 -28 89 -59t25 -101q0 -54 -10 -107t-10 -111q0 -38 2 -102t6 -142t10 -161t13 -161 t15 -142t18 -102v40l12 -8q0 -2 5 -18t11 -39t13 -46t11 -37q0 -8 4 -26t4 -22v-12v-8l-20 36l-8 -16l48 -152l8 -8v4v4q0 16 -10 46t-10 46h12q8 -24 16 -46l12 -40t10 -34l6 -24t8 -34t8 -33t4 -21v-8v-12l-10 12q-4 18 -10 36q-4 16 -9 32t-7 26q-4 10 -1 16t-7 10v-22 q0 -46 12 -93t12 -95q0 -22 -4 -49t-15 -49t-27 -37t-40 -15q-26 0 -54 20q6 -12 -4 -19t-25 -10t-31 -4t-24 -1q-30 0 -35 20t-5 38zM422 28q-10 0 -10 -10t10 -10q6 0 6 10t-6 10zM554 610q-4 0 -4 -6t4 -2q4 0 4 4t-4 4zM542 630h12l-12 18v-18zM534 702q-2 2 -3 -2 t-1 -10t1 -11t3 -5q4 4 4 15t-4 13z" />
<glyph unicode="&#xd0;" horiz-adv-x="1592" d="M762 34q-10 -2 -36 -3t-52 3t-43 17t-11 41q-18 -6 -25 -15t-14 -19t-17 -17t-30 -7q-34 0 -43 17t-3 51q-6 -16 -11 -33t-9 -35h-8q0 18 -1 35t-9 33q-4 -8 -20 -14t-16 -14q0 -4 4 -10t4 -10v-4q0 -8 -6 -10t-14 -2t-14 -3t-6 -15l-12 8v84q-8 -16 -13 -36t-3 -42 q-2 14 -9 21t-13 15t-8 17t4 25l-20 -20q-6 10 -16 16t-19 13t-15 18t-4 29h-12l-8 -8l-4 -6l-2 6q-2 56 -11 144t-21 185t-25 190t-23 159l-72 -4q-52 12 -93 38t-41 78t46 91t116 67q-16 116 -27 226t-11 212q0 34 8 79t16 77q22 4 35 17t23 29t21 30t31 20q24 -2 55 -4 t66 -1t69 7t62 18q2 0 4 2l4 4h-46l38 28l8 -8l6 20l88 28v18l-54 -18l-14 8q4 0 10 4t10 6l-4 10h-22v18q12 0 22 2t18 3t14 5h12l8 -10l-8 -10h8q16 0 23 11t33 11t41 -4t35 -26h128q-18 10 -51 12t-49 6l-12 10h8q76 0 166 -28t178 -74t166 -104t130 -118h8q0 -22 21 -28 t37 -26q18 -22 21 -47t19 -47q0 -8 6 -16q4 -6 8 -10q8 -10 14 -21t10 -23q-4 -4 -2 -9t6 -7q8 -32 6 -65t-5 -64t-2 -58t13 -45q0 -4 9 -7t11 -7v-6q0 -32 -10 -96t-27 -143t-40 -165t-48 -163t-51 -137t-50 -86q-4 -6 -18 -21t-30 -31l-31 -31l-23 -23q-4 -4 -18 -15 t-30 -25t-32 -26t-24 -16q-22 -16 -57 -43t-75 -53t-80 -45t-68 -19q-14 0 -31 15t-25 19zM578 874q2 -34 8 -93t12 -119t10 -109t4 -63l10 20q0 -6 4 -21t4 -19v-8q0 -6 -4 -21t-14 -15v-2h12q0 -6 6 -20t-8 -20v-78q20 0 37 11t33 26t33 30t37 23q8 6 29 23t45 36t45 36 t29 25q4 4 12 10t8 10q114 158 174 343t60 397q0 52 -13 111t-51 99q-36 40 -91 73t-116 57t-124 37t-117 13t-84 -15t-44 -41t-17 -64t-3 -82v-12q6 -20 17 -89t21 -163q66 6 110 6q26 0 47 -25t37 -60t25 -70t9 -53v-48q-10 -8 -28 -29t-32 -37zM610 1900q-10 -6 -18 -18 t-10 -18q6 0 29 2t49 5t48 8t26 13h-40q-22 0 -35 -6t-33 -6q-4 0 -12 5t-4 15zM500 1832q4 0 17 5t13 15h-30v-20zM1002 1770q-8 0 -8 -10t8 -10t8 10t-8 10zM1378 1590q-8 0 -8 -10t8 -10t8 10t-8 10zM562 1804q-6 0 -6 -10t6 -10q10 0 10 10t-10 10zM948 1804 q-10 0 -10 -10t10 -10q6 0 6 10t-6 10zM722 1872q-6 0 -6 -10t6 -10q10 0 10 10t-10 10zM1048 1750q-6 0 -6 -10t6 -10q10 0 10 10t-10 10zM750 1900q-6 0 -6 -10t6 -10q10 0 10 10t-10 10zM480 1844q-10 0 -10 -10t10 -10q4 0 4 10t-4 10zM394 130q-10 0 -10 -9t10 -9 q6 0 6 9t-6 9zM610 450q-6 0 -6 -10t6 -10q8 0 8 10t-8 10zM834 54q-8 0 -8 -10t8 -10q6 0 6 10t-6 10zM640 1910q-10 0 -10 -9t10 -9q4 0 4 9t-4 9zM1368 1550q-8 0 -8 -9t8 -9t8 9t-8 9zM818 48q-8 0 -8 -10t8 -10q4 0 4 10t-4 10zM1502 1410q6 0 6 -10t-6 -10h-4 q0 4 -4 16q4 4 8 4zM694 1872q-6 0 -6 -10t6 -10t6 10t-6 10zM254 222q-10 0 -10 -7t10 -7q6 0 6 7t-6 7zM562 82q-6 0 -6 -7t6 -7q10 0 10 7t-10 7zM928 1804v12h-28zM888 1824q2 0 -7 8t-19 17t-19 16l-9 7q2 -2 11 -10t18 -17t17 -16t8 -5zM686 1778q0 4 -6 4t-6 -4 q8 -10 12 0zM620 1928q0 4 -5 4t-5 -4q4 -10 10 0zM546 1864h16l-8 8zM1416 1532q-6 2 -6 -3t6 -5q4 2 4 5t-4 3zM1020 1750q0 4 -5 4t-3 -4q0 -6 3 -6t5 6z" />
<glyph unicode="&#xd1;" horiz-adv-x="1856" d="M580 2298q-4 0 -17 -21t-29 -48t-32 -53t-26 -34q-6 -2 -23 -11t-35 -20t-33 -21t-19 -14h-10q-26 0 -43 9t-41 17q-24 6 -50 7t-47 7t-34 22t-13 54q0 40 13 84t34 87t47 82t50 69q28 36 56 52t50 48q78 24 145 47t147 23q6 0 26 -1t24 -1q28 -22 56 -27t58 -33 q4 -2 19 -19t17 -23l8 -8q6 -6 10 -6q4 -8 14 -23t20 -31t20 -30t14 -18q8 -14 19 -44t25 -60t31 -53t35 -23q12 0 20 23t13 52t8 56t5 37q0 4 4 8q2 2 6 4l4 8q4 8 4 10q16 50 47 81t70 48t86 23t97 6q16 0 32 -12t28 -30t19 -38t7 -34q0 -50 -16 -98t-16 -100v-8 q2 -4 5 -9t3 -9l-8 -4v-18q-40 -52 -92 -104t-112 -94t-126 -69t-134 -27q-24 0 -53 1t-59 6t-57 13t-47 22q-44 22 -68 49t-52 65q-10 14 -24 40t-29 52t-29 45t-22 19zM288 100q0 -4 3 -16t3 -14t-6 -8q-2 -2 -4 -2h-2q-4 0 -6 2h-2q2 4 -2 10t-4 10q-4 8 -10 8l-18 -2 q-2 0 -6 4l-4 4q-4 4 -12 6t-10 2q0 6 -4 24t-10 39t-12 41t-8 32q-8 84 -13 200t-6 237t2 237t13 202q8 84 26 168t26 170q0 8 1 17t3 19t2 22l-202 270q-14 16 -14 41t2 47q18 -4 23 5t11 20t21 18t57 1q4 26 23 24t49 -6q10 -2 16 -10t16 -10q6 -4 29 -6t29 -4 q42 -12 77 -41t65 -66t57 -75t51 -66l16 -16l10 -10q2 0 11 1t9 3v-6q10 -14 35 -48t52 -71t52 -71t35 -48q6 -10 16 -26t8 -18l-8 -6q-2 0 5 -12t9 -18q0 -2 5 -9t11 -14l12 -14t8 -9q4 -4 13 -18t19 -29t20 -29t14 -20q-4 -4 8 -18t28 -32t30 -37t16 -31q30 -38 65 -91 t70 -108t71 -106t70 -83q0 4 4 7t8 1h2q12 -2 20 -9t14 -15t13 -14t17 -8q18 -4 38 12t37 39t28 47t13 36q4 46 0 119t-15 158t-25 178t-30 178t-31 157t-25 116q-10 28 -31 61t-17 63q2 2 6 8t6 8l-28 4q-4 22 -20 42t-16 26l20 -2q4 22 3 37t-11 33h4l4 -2q6 0 16 -10 t12 -14l34 56q16 -10 31 -25t17 -31q10 8 22 4q26 -4 16 -32l22 6q-4 -8 -2 -23t14 -17h8h4q0 6 6 27t8 27v8v4q-4 6 -8 10l-10 10v8q0 2 2 4q68 -12 118 -61t81 -115t44 -138t7 -132q12 -2 19 -15t11 -30t6 -35t4 -28q0 -4 5 -38t13 -84t18 -108t18 -108t14 -86t8 -40l8 -8 q-16 -18 -20 -28t-6 -32l-2 -12q0 -2 4 -10q2 -4 6 -10q0 -4 1 -21t2 -37t2 -37t3 -21q0 -6 2 -10q0 -8 4 -12l6 -10v-2q-2 -20 -6 -32t-6 -28l22 -4q-14 -132 -78 -227t-166 -165q-14 -4 -41 -13t-39 -7l-8 8q4 -2 15 3t15 7q0 4 -3 11t-3 9q-22 4 -43 2t-41 -6t-41 -6 t-45 2q-84 14 -157 62t-139 117t-125 152t-115 167t-110 162t-108 138q-2 -6 -4 -24t-5 -39t-5 -39t-2 -26v-35t1 -64t2 -76t2 -74t2 -58t1 -25v-90v-137t1 -138t3 -91q0 -2 -1 -3t-1 -5v-6q-4 -22 -23 -39t-33 -33q-22 6 -28 34q-20 -18 -46 -20t-52 -14v8h-2q-4 0 -6 2 q-4 0 -13 8t-13 8q-10 2 -29 -2t-29 -8l10 -2q0 4 -2 26t-18 26h-4zM260 124q-4 2 -4 -5t4 -9q12 6 0 14zM206 148q-4 0 -5 -7t3 -7q6 -2 7 5t-5 9zM436 122q-10 2 -11 -7t9 -11q6 -2 7 7t-5 11zM426 152q-6 0 -7 -9t5 -9q10 -2 11 7t-9 11zM466 136v8l-12 2zM1258 658 q-8 2 -9 -6t7 -10q6 0 7 8t-5 8zM1798 688q-6 2 -7 -8t5 -12q4 -2 5 8t-3 12zM1772 924q-6 0 -7 -10t5 -10q6 -2 7 8t-5 12zM1774 938q-6 0 -7 -7t5 -7q6 -2 7 5t-5 9zM1770 972q-6 2 -8 -11t6 -9q2 2 2 9v11zM1676 1002q-8 2 -8 -5t8 -9q4 -2 4 5t-4 9zM764 1360 q-6 0 -7 -10t5 -10q10 -2 11 8t-9 12zM1758 988l12 -2q0 2 -5 31t-12 72t-17 92t-18 91t-15 70t-9 30zM756 1368q-8 2 -9 -8t7 -12q6 0 7 10t-5 10zM740 1372l6 -2l-4 12zM1688 1384l8 8l-6 10zM734 1400q-8 2 -9 -7t7 -11q8 0 9 9t-7 9zM724 1412q-6 2 -7 -7t5 -11 q8 -2 9 7t-7 11zM716 1414l2 8l-12 2zM1680 1422l12 -2l-12 14v-12zM692 1446v-4q0 -6 6 -6l2 4v4q0 2 -4 6q-2 2 -4 2l-4 -2zM1684 1462q-6 0 -7 -10t5 -10q10 -2 11 8t-9 12zM682 1474q-6 2 -7 -8t5 -12q10 -2 11 8t-9 12zM664 1492q-2 0 -3 -7t1 -7q10 4 2 14zM1546 1504 q-6 2 -7 -8t5 -12q10 -2 11 8t-9 12zM638 1530q-6 0 -7 -10t5 -10q10 -2 11 8t-9 12zM632 1542q-10 2 -11 -8t9 -12q6 0 7 10t-5 10zM1654 1542q-8 0 -9 -10t7 -10q6 -2 7 8t-5 12zM1286 1850q-8 2 -9 -8t7 -12t9 8t-7 12zM1436 1826q-6 2 -7 -8t5 -12q8 -2 9 8t-7 12z M1428 1834q-10 2 -11 -6t9 -10q6 -2 7 6t-5 10zM1290 1896q-8 2 -9 -8t7 -12t9 8t-7 12zM202 1916q0 4 -5 5t-1 -5q0 -4 3 -4t3 4zM1274 1914q-8 2 -9 -6t7 -10q6 0 7 8t-5 8zM1472 1916q-6 0 -7 -10t5 -10q8 -2 9 8t-7 12zM1306 1950q-8 2 -9 -8t7 -12t9 8t-7 12z M1466 1932q-8 2 -9 -6t7 -10q6 0 7 8t-5 8z" />
</font>
</defs>
</svg>
